<mxfile host="Electron" agent="Mozilla/5.0 (Windows NT 10.0; Win64; x64) AppleWebKit/537.36 (KHTML, like Gecko) draw.io/24.7.8 Chrome/128.0.6613.36 Electron/32.0.1 Safari/537.36" version="24.7.8">
  <diagram name="Page-1" id="DKjhRe44bUF9u8TZCXLa">
    <mxGraphModel dx="1434" dy="1814" grid="1" gridSize="10" guides="1" tooltips="1" connect="1" arrows="1" fold="1" page="1" pageScale="1" pageWidth="1100" pageHeight="850" math="0" shadow="0">
      <root>
        <mxCell id="0" />
        <mxCell id="1" style="locked=1;" parent="0" />
        <mxCell id="3MaQ9lW96g9JMEUkwHcK-1" value="Database" style="shape=datastore;whiteSpace=wrap;html=1;" parent="1" vertex="1">
          <mxGeometry x="430" y="370" width="90" height="70" as="geometry" />
        </mxCell>
        <mxCell id="p5WUSUvf69YappTLz1nT-3" value="" style="shape=image;verticalLabelPosition=bottom;labelBackgroundColor=default;verticalAlign=top;aspect=fixed;imageAspect=0;image=data:image/png,iVBORw0KGgoAAAANSUhEUgAABLAAAAOVCAYAAAB55xnEAAAAAXNSR0IArs4c6QAAIABJREFUeF7s3Qd4lMX69/FJ7wVSISGEGqQ3KdJBRIFIUVc6AkIMKigiFs6RgB4bCh4UBBGRzon0EkHpGDqClAQIkJACJCGFkF7f917d/EMEaSm7yfe5rlxAsvs8M59Zsru/nbnHSHEggAACCCCAAAIIIIAAAggggAACCCCgxwJGetw2moYAAggggAACCCCAAAIIIIAAAggggIAiwOJBgAACCCCAAAIIIIAAAggggAACCCCg1wIEWHo9PDQOAQQQQAABBBBAAAEEEEAAAQQQQIAAi8cAAggggAACCCCAAAIIIIAAAggggIBeCxBg6fXw0DgEEEAAAQQQQAABBBBAAAEEEEAAAQIsHgMIIIAAAggggAACCCCAAAIIIIAAAnotQICl18ND4xBAAAEEEEAAAQQQQAABBBBAAAEECLB4DCCAAAIIIIAAAggggAACCCCAAAII6LUAAZZeDw+NQwABBBBAAAEEEEAAAQQQQAABBBAgwOIxgAACCCCAAAIIIIAAAggggAACCCCg1wIEWHo9PDQOAQQQQAABBBBAAAEEEEAAAQQQQIAAi8cAAggggAACCCCAAAIIIIAAAggggIBeCxBg6fXw0DgEEEAAAQQQQAABBBBAAAEEEEAAAQIsHgMIIIAAAggggAACCCCAAAIIIIAAAnotQICl18ND4xBAAAEEEEAAAQQQQAABBBBAAAEECLB4DCCAAAIIIIAAAggggAACCCCAAAII6LUAAZZeDw+NQwABBBBAAAEEEEAAAQQQQAABBBAgwOIxgAACCCCAAAIIIIAAAggggAACCCCg1wIEWHo9PDQOAQQQQAABBBBAAAEEEEAAAQQQQIAAi8cAAggggAACCCCAAAIIIIAAAggggIBeCxBg6fXw0DgEEEAAAQQQQAABBBBAAAEEEEAAAQIsHgMIIIAAAggggAACCCCAAAIIIIAAAnotQICl18ND4xBAAAEEEEAAAQQQQAABBBBAAAEECLB4DCCAAAIIIIAAAggggAACCCCAAAII6LUAAZZeDw+NQwABBBBAAAEEEEAAAQQQQAABBBAgwOIxgAACCCCAAAIIIIAAAggggAACCCCg1wIEWHo9PDQOAQQQQAABBBBAAAEEEEAAAQQQQIAAi8cAAggggAACCCCAAAIIIIAAAggggIBeCxBg6fXw0DgEEEAAAQQQQAABBBBAAAEEEEAAAQIsHgMIIIAAAggggAACCCCAAAIIIIAAAnotQICl18ND4xBAAAEEEEAAAQQQQAABBBBAAAEECLB4DCCAAAIIIIAAAggggAACCCCAAAII6LUAAZZeDw+NQwABBBBAAAEEEEAAAQQQQAABBBAgwOIxgAACCCCAAAIIIIAAAggggAACCCCg1wIEWHo9PDQOAQQQQAABBBBAAAEEEEAAAQQQQIAAi8cAAggggAACCCCAAAIIIIAAAggggIBeCxBg6fXw0DgEEEAAAQQQQAABBBBAAAEEEEAAAQIsHgMIIIAAAggggAACCCCAAAIIIIAAAnotQICl18ND4xBAAAEEEEAAAQQQQAABBBBAAAEECLB4DCCAAAIIIIAAAggggAACCCCAAAII6LUAAZZeDw+NQwABBBBAAAEEEEAAAQQQQAABBBAgwOIxgAACCCCAAAIIIIAAAggggAACCCCg1wIEWHo9PDQOAQQQQAABBBBAAAEEEEAAAQQQQIAAi8cAAggggAACCCCAAAIIIIAAAggggIBeCxBg6fXw0DgEEEAAAQQQQAABBBBAAAEEEEAAAQIsHgMIIIAAAggggAACCCCAAAIIIIAAAnotQICl18ND4xBAAAEEEEAAAQQQQAABBBBAAAEECLB4DCCAAAIIIIAAAggggAACCCCAAAII6LUAAZZeDw+NQwABBBBAAAEEEEAAAQQQQAABBBAgwOIxgAACCCCAAAIIIIAAAggggAACCCCg1wIEWHo9PDQOAQQQQAABBBBAAAEEEEAAAQQQQIAAi8cAAggggAACCCCAAAIIIIAAAggggIBeCxBg6fXw0DgEEEAAAQQQQAABBBBAAAEEEEAAAQIsHgMIIIAAAggggAACCCCAAAIIIIAAAnotQICl18ND4xBAAAEEEEAAAQQQQAABBBBAAAEECLB4DCCAAAIIIIAAAggggAACCCCAAAII6LUAAZZeDw+NQwABBB5NYOPGjW4FBQW9k5OTjW/dunXbydLT05W1tXV3U1PTWkZGRovs7e23DBkyJPbRrnjve8+fP39yTk7OMzk5OVZ3unV+fv5vxsbG583MzP72YwcHB2VjY5NnZGQUNHDgwLh7X41bIIAAAggggAACCCCAQEUQIMCqCKNIHxBAwGAFNmzYUMPY2NhUOpCcnKxu3rxZ2JfMzExlYmJiW1BQ4Jqbm3vPPt68edPcwcFhcVJSkpvu9gUFBSovL0/FxMSopKQkJf/WHRJgJSQkqPz8fNWgQQPVrl27n+vXr6/RaDSp97zYQ9xg0aJFdtevXz+9b9++mqGhoSo1NfW29sgpjYyMlKurq/areIBlYmKinJ2dVdWqVZWlpeVtLZDbVqlSRfoy3MjI6Nr9Ns/U1FSuecvMzCz+TveRwMzR0VFZWFjc9mNzc/Okbt26Jd/vdbgdAggggAACCCCAAAIIPJoAAdaj+XFvBBBA4KEEVq9e/UJiYuIraWlpNZRSphJWxcbGqhs3bhSGOvK9W7du2aanp7vcT4CVlZUlt1c5OTm3BUMSWsnP5BxFAywJtnTfs7GxUR06dFDPPvvsFD8/v5kP1al73GnmzJnd161bt+ns2bM2aWlp2mDtToe5ubmSLwmzih7ybwmq5MvY2PhvP5Mwyt7e/m9h0z81S85pa2ub6uzsHF/8nLrAzMXFRRuYFW1PQUFBkr29/blx48YNMzIy+r9UsDTgOCcCCCCAAAIIIIAAAggoAiweBAgggMBDCCxZsqTpjRs3bF1cXMZI0HT9+nUlM5p0YZGdnd1o+beENEVDI7mUBEzXrl3TzoiS+8rPJUiSGUkS7OhuL9/LyMjQfu9uYc9DNP2Od5FwpmnTpmr48OGnfHx8evj6+t4oqXPrzvPvf/970ooVK768fPlySZ/6kc4n4Z3MtCoemEmgJT+Tr79mahVeR24r33dzc1NOTk5/u6+EXyYmJjuqV68e8OabbwY/UgO5MwIIIIAAAggggAACCBBg8RhAAAEEigps3rx5qIRKEjBlZ2dLsORmZmbWo+gMKAmaEhMTn7h586aj3Ea+ZPaU3E+CJgmoZGmeBE/y9zsdsmxPjqLhlu7vxQOv4v8ujRGTGU9t27ZVgwcPXmliYjLWz88vvaSv8+GHH76zdu3aT8+dO6e10pejeHCla5fu+//0c/nZnX4uAZaHh4fq169fctOmTZuNHDkysrT6u2bNmkbR0dE9TExMemRnZ18pKCg4XPRaMrayJFMCtyJHen5+/o5+/frdXhittBrJeRFAAAEEEEAAAQQQeEQBZmA9IiB3RwABwxZYsGCBdVpaWvWMjAz7vLy86ampqX0leLpy5Yo2ZJEgSsIsWYJXNGCSQKvorCgJpHShlIgU/3dpK8lsob9m/dx2Kfn+nZbjyW3l+7raTrL0rkOHDlHz5s3zKq22fvXVVz5Hjx7ddv78ee/ExMS/zUwrel3xFf87LZ0UW7G/0+w2OYfc536WXJZWP3XnFd927dqpvn377vfx8elTGmHRwoULm16+fPnQgQMHrKKjo7XLK6tVq6Z9LOgOmT3m7e2tXV6pO+RxIbW9zM3NP05JSVl7p4L5RX2sra1l2eat/Pz8v9VH8/Lyui0cy8/Pz33mmWcSjIyM/kxpORBAAAEEEEAAAQQQKAEBAqwSQOQUCCBguAIfffTRhN9///392NhYt7i4OO2SPQlG5E8JSmQGlYRXRcOpkujtnWo4FZ/NI7cpfru7XVtm10hxcwklit5HajdJeFG8CLkUPLe1td128+bN7yXssLKykq+TU6ZMuVQS/bvbOebOnft4UlKSl8xi+6fD2NjYy8TEZJYssyw+i02CLfm+hIvFl1ZKcCV1xOLj4x9ozCSclDG+02w3+Z7u605tvtvPJBRq3bq11BU76+Pj0700dk3817/+9XZgYODnErKKi4x98bGWx5UEUEVDLfmeBFvyfXnsFP1Z8T7q7m9paRlva2t729JSCenq1KmjPU+RI0spdcXe3v7nKlWqLNVoNBml+Zji3AgggAACCCCAAAKVQ4AAq3KMM71EAIG7CLz11lubVq5c6SuBx8PM2rnX8rM7XVaCDVnSpdtJT8IDCZ6K1lqS27i5uSU6OzvH3ivEkjZIaGFnZyeh1G1L2vLy8k7Y29sfKD7DxtLS8ue+ffvqVzGqYlgyqyg2NrZ/Xl5e1aI/kqDmr7pg7czNzVvpfqYLoWQnR/l6kKWXWVlZxtHR0RKsWRV/HMgSUQnc5Kv4zyTclO+npKTcFpjJmP7/+leqT58+Ge3atRswYsSI7aXxn/D1119/+8cff/xciveX1iGPLwmqdGFX0ce89FNqgMnPix4SjkmgKuGp/P1+DnmMmpqa7s3JyTlTPFCTc7m7u2sf2wkJCQtzc3OjJk2alHg/5+U2CCCAAAIIIIAAAhVDgACrYowjvUAAgYcUePnllzctX77c90FqMsmbawmb5A23BEcye0m3TE9+Jm/0pbh38ZkwuibK/STc0M1ayc3NjTYzMzsihcR1O+wZGxvLDJYVQ4cOPf6QXeNuDyCwYMECs4yMjO5WVlbjioZUMitLQipZ8piZmelma2vboXiYJmFZcnLy3wIsd3f3m15eXq9MmjRp9QM05YFu+u677769cuVK7Qysu9Vbe6AT/sON71bv624h7oPMIJTLyv8h2fFR/l8UD71kxqD8n9KFaY6Ojsfq1q275fXXX59eUv3jPAgggAACCCCAAAL6LUCApd/jQ+sQqLACv/76q0Nqaqr2d9CAAQOSy6ujr7/++trAwMCBRWfQyBtv3a5z8qZaZkoVfZMu/5Y6Q7a2tjl2dnZpMjNEwicJrywsLAqqVKly2s/Pr0t59YnrVh6BuXPnjt+xY8cX58+ft5JZWLKkUgI3CeGKbxAgYVzxGWRyGwm+HmS2Wmnpyv8x+b93p0BMvqeblSV/l/+DzZo1Uy+++OLz/v7+a0urTUXPGxQUZCHOMltSvnRHjRo10lq3bn3n3RrKomFcAwEEEEAAAQQQqCQCBFiVZKDpJgL6JPDDDz+0TUlJ+To/P99E3rBaWlq++8orr/xaHm384osvekZHR/90+vRpCdS0TZDZVTVq1NDOoHJwcPjVzMwssOiSJpklJYGVqalpcnZ29mX5u8wake+bm5vn+fr6/lEefeGalU9g+/btNufOneuUmprqKbMIc3JyHJRSQ9PS0lpIkCWHhFNFa4MVDauk1ltkZKR2J817Hbri+Xe6nW755p1+VtL14+Qa8nujVq1aatiwYV9Onz598r3aXhI//+yzz74PDw9vIb8XZIdJXdBmZmYWbmNjs2Hs2LHLS+I6nAMBBBBAAAEEEEDgzgIEWDwyEECgVAQKCgqMli5dWtXMzOy9q1evypu9t2QZlsz2kOVOssufvLGVN4HNmjW7Xq9evc4TJ04MK5XG3OOk69evbxUZGdlN3szLIW9QZYmf/Nm/f/8vyqNNXBOBRxHYsGFDQ6VUbzmHbjMCWeoo/weLHtbW1k/evHmz2f3Uf0tKSjK5evWqiwS9xXfglPMWr8Mlt9EV3NeFaY/Sp6L3lQCrXr16yt/ff+7EiRNfK6nz3uk8CxYseCoqKmrL4cOHzSTsk9mZElrrAiyZpSlLHD09PQvr2hU/j26jBHNz8wupqamb5efSB2dnZ22tMN1yy7y8vP0ZGRn7X375Zep7leagcm4EEEAAAQQQMEgBAiyDHDYajYD+CaxZs6ZRYmKiV3Z29jN/FdE2y8rKGhAfH+8WExOj5Ov69euFy5WK7vjWvHlz9dxzz11///33q+lfz2gRAgiIwPLly+1v3bo1Ijc3t61SykmnIkGVhNKyEULRw8jIyMbS0rJNYmKi5f3WmJMgTc6jWw5Z9HxyHQnPJECSJbxNmzYNb9asWY/XX389vDRHaOrUqev+97//DZDfYbogrugyR11tsLvVCJO26ermSdAlMzzlkNsXDbDkexKGOTo6RltZWa2/Ww093fmsra0jc3JyzoqH3FbObW9vLzPuYvr163eqNE04NwIIIIAAAgggUB4CBFjloc41ETBQgcDAQBNbW1vTixcvyhsmy6SkJCVfderUeS8qKuqdiIgIdfbsWe2bWd0sDXnTKWHVPy0/qlOnjurXr5+aNWsWv5MM9LFBsxEoKYHly5dvi4mJeSIrK+u2rQ1l50n5HSMBUIMGDdZ5e3u/pNFo7r328REb9uabb/66ePHiJ4vvNPmgp71Tja87FbovWoPvbteQoEuWUP61lFm7+6iEerITqfysatWqMUZGRs9GRUVdKn4OCbrkKyUlJdfCwiJXfl63bl3tzaysrPK6deum/R4HAggggAACCCCgbwK8WdS3EaE9COipQGBgoNeNGzemxsXFNY6OjpaZCE/IjCqZMSEzriTISk9P1wZXMtui6BKj4l3SzVTQvVFr27atLNXb/+abb3bW0+7TLAQQKEOB9evXOxoZGckyyMJDlh/LcmTZ9dPGxiZ06NChSWXRpGnTpn32yy+/TAkJCdH+jtPVECteJF/+XVbF8OV3p263Rvl9KrOwpLC9/Ck/+6t+n9aq+KFbIl1QUBCenZ19Tc7j5eWlW/4YZWFhsc/NzW2BRqPJKwtfroEAAggggAACCNyvAAHW/UpxOwQqicDu3btNb9y4MTE+Pt4xPz//lRs3bjjLshkJqGT2g9S6kb/Ln8nJyf8YVN2NTGYLODk5aQsht2zZMtfHx2dllSpVXh82bFhKJWGmmwggYCACS5YskfD+29OnTz99/fp1YwmxZDaYLHPU1Q6TIvjyO1HC+9IoWl+SVLLZhMzAkiDrr000tP+W78tSR1mGWLt2bW34JeGYBFyOjo5zXF1dJxFqleRIcC4EEEAAAQQQeFABAqwHFeP2CFQwgcDAQIfk5OTm8hUfH181JydnUGJiYv3Y2FjtbIeoqCglxc11u4zpZhnca7aBvPGRN0Sy3EeWtcgbJHd3d+3yFnmDZGJisq927dpJtWvXfm/EiBGhFYyV7iCAQAUTWLRo0dDU1NRuWVlZdSTEv3Hjhramnxx/1fjqKr8r7xZgyfcl5JIZqzJDVX6Hyp8SfhUNvuR7EpLJuUtrRlfxel3Fa3pJsKW7jfy+btKkiXryySe/fO+998pkx8cK9tChOwgggAACCCBQQgIEWCUEyWkQMFSBWbNmbQ8NDe158uRJowsXLmjfNOnqVelqV93rTZS82ZFP7uVL/i7BlW4Ji7e3t7a+Sv369XfcvHmzl85p2rRpBX+9aSowVDvajQAClU9Adli9U6+nT59+z9dUNWvW/Pf/D74CdIGVzG6VUEvqBupmc8kybCkYLzW37rYUW34ny+11QZi0R/d33e/r+/39fa8R1C1R1Gg0P65YsWLUvW7PzxFAAAEEEEAAgdISuOeLrdK6MOdFAIGyFwgICDC1srL67OrVqwPi4uJqSQ0rmUUgswlkOaAsi7lbWFV8py1dWCWBlW45oBQRdnd3z7W1tV3v5OR0UWqyZGZm7pSlgsOGDdtZ9j3miggggIB+CSxYsMDM09OzZX5+vq2uhqDMyiqyHNHI2tq6+z8tR5TbpqWltcrMzHxKF3TJ73D5kvvJz2UWbdHZXkUVdOGWfK/obNqi9b10f9cVmpcAa+XKlQRY+vVwojUIIIAAAghUKgECrEo13HS2MgrMnz//6by8vDUSVMlXaGio9ZUrV4zi4uK0n/Dfa3aVzkxmVDk6OioXFxdtYOXp6Sm7D2qXBJqbm8sSwPVubm4qLi7u45o1a2ZSK6UyPtroMwIIlJWABGEpKSnmderUGaOUcpMPIuRDCF2AZWZmpsnJyalbfBaXLHOUpeHyfCAzwGTWbdHgS/4tzw+ytFGKwstOh/K7vm/fvj9+8MEHZRJgzZo1a11SUtJT0gY55DnH2tr6eHZ29nZ5nrGzs9v47LPPni0ra66DAAIIIIAAAvohQIClH+NAKxAoEYG1a9e2i42NdUpKSqovBYbT0tJs4uPjJ4eEhDjIkhT5XtFlJXcKr3RFe6XuidStkjcLMpPqrx2uzlavXv1WtWrV4l1cXJaMGTNmbYk0nJMggAACCJSZwKpVq56Ni4vrqpRqLyGWzMaV5wcJryTgysrKapOVlWUsAZaNjU2sj49PeL169f5V2jNpV61aVf3UqVPb9uzZ00R2ffyrtpiS2b3y4YlsACLPSRJo2draHs7Ozv6ftFEOKTovP8vLy7tgZWWV4OTklDhw4MALZYbKhRBAAAEEEECg1AUIsEqdmAsgUDYCixcvfv/y5ctTQ0NDTc6dO2chn6DLmxHdp/HyKfydigvr6lfJmwCpXSVBVc2aNVXDhg1Vo0aNfk9PT+8lbxr+eoOQaWpqml+lSpVcjUbz50fjHAgggAACBimwefNma2m4bNihO6Qel7Ozs1VmZqb2NaKJiUlu3bp1s319fdNLu5OffvrpE4GBgbtCQkIsJFjTfciiW7IuH7Do/i5/yvOWbnm7bqaYjY1Nlqura1716tXzXF1d4xwcHAYOGTLkVGm3nfMjgAACCCCAQOkLEGCVvjFXQKDEBX744YfuCQkJIyMjI+ulpqa2lyLAEljJkhBZFih1T4q++C/aAHmxrwutdLsE1qpVS4qsy6fXfzg6Oh40MTHZ5ebmlmFra7tHo9GklngHOCECCCCAAALFBO4WYN0PlDyfyYctuk1ErK2ttR/IVK1aVfunHPLcJ7vhyuxiExOTC1WrVg2zsbEJs7OzWzVy5Mgj93MdboMAAggggAAC5SdAgFV+9lwZgfsWWLdunVNMTMwLaWlpU2WpR1xcXNXr169byyflUqhXln7oCgD/U00r+cRalgbKMotGjRqppk2bygv6q6ampmvc3d2P2djYbNJoNDfvu2HcEAEEEEAAgRISWLVqlffhw4fP/PLLLzYXL17UziK+3zqNxZvw1y63t31bAiwJryTosrGx0S5F/OvPW87OzjflOVLuJ9+T4EuWJSqlZlepUuWPF154gY1ISmicOQ0CCCCAAAIPK0CA9bBy3A+BUhYICgpyOX/+fIfIyEgHExOTVy9evPj46dOntUs9dC/qdbtH3e0FvrwYl0+edcXX3dzcCkxNTS/VqlUrzcfHZ8lrr732lZGRUUEpd4XTI4AAAgggcF8Cq1ev7rtnz56A6OjoFlKHS5a+JyQkaAvN65bFywxj+ZIPbh404NIFW7qlh9Io3cxkXQPlOVNmasksrurVq2trcFWtWvVaenr6Z/n5+cl2dnayzDLb2tr6kq2tbfKgQYOotXVfo8uNEEAAAQQQeDQBAqxH8+PeCJSKwLp161zDwsI+Dw4OHnzq1ClzWRYohXXlxbtuplXxC+tegEtNEF09K/kUuUaNGqpZs2ayi9THNjY2i5OTk2+5ubnl5OXl3fLz88splQ5wUgQQQAABBB5SYN68eVUKCgqccnNzta9T8/Pz34yLi/OXnRZlFrJ8xcfHa2cf6wIsqfMooZZuoxL58261H+/VLN0ye92funpbsjxR/i6zuOrWrZtfrVq1lBo1amRXq1Zt5ZgxY96813n5OQIIIIAAAgg8mgAB1qP5cW8ESkxg/vz5na9fvz4nMjKymdSyio6OVpGRkUpesBffBl0uqgusdC+wZaaVLIeQAux16tTJc3FxCXZ1db2clZW11cvLK3vw4MGbSqyxnAgBBBBAAIEyFNiwYUOv7OxsO6n5KHUelVK1rKysWuk2J0lOTnaMiorqJc+Z8iXPozJzS7e7oq6p8nxadPayLgB7kJlcFhYWSmZhyYdE8iUF5CXUkg+PZOmhh4eHLM9fI7O2HB0d540aNepcGVJxKQQQQAABBCqsAAFWhR1aOmYIAt99993jqampC2NiYoyio6NrhYWF2YWHh6vU1NR/XBoh4ZW8WJZlDbK8wcfHRwKtbcbGxhESYJmYmMy1tbW9MmbMmFuG4EAbEUAAAQQQeBSB3bt3W168ePEJY2PjFyTAkqBLAiwHB4cu5ubmj8m5Jbw6f/68tnZkenq6dlmiPN/Kl+zY+yAhlu6DpKJtludmqTPp4uKiDbL+Wr5/rUqVKvHyYZP8Wz5osrS03GRjY7N56NChFI5/lEHnvggggAAClU6AAKvSDTkdLm+BpUuXuoaHhzczMTEZc+nSpW6///67a0REhEpLS9MufdB9Mlz8RbEUk5UXxhJcOTg45FStWjWqfv36GTVr1tz35ptvji/vfnF9BBBAAAEE9FkgMDDQ5MaNG5NSUlL6p6WlOclMZ1mKKEGXsbGxp6mpqY08B0ugJQGYLNmXYEuWJmZnZ2u/7hVyFa2xJRYSXOlmTDs7O2tra8kMLU9PT5m9NS0jI+Okblmit7f3pZEjR4YaGRnl67MjbUMAAQQQQKC8BAiwykue61ZKgR9++OGJiIiIH4KDg2tdunTJXD4lltpW8iJZtwxCByMveGU5grm5ubaQrMysatGihdS0+tTExOQnGxubGw4ODtlXrly5ERAQkFspQek0AggggAACDygQFBRkn5qaaifBlTwHy58uLi5OxsbGlnKq/Pz8JklJSd/LUkVdzS3dkkR5vtbV25I/dXW2dB9A/VNTdLW0dLUq5YMp+Z4sSXR1dVWdOnW63rx585eGDh26/QG7xM0RQAABBBCoFAIEWJVimOmkPgjMnj074I8//ph25MgR7U6CumWCRdum+5RWCsXKNt9eXl5SgP2ml5fXL3Z2djtcXFzCRo4cuVsf+kMbEEAAAQQQqMgCmzdv7p+UlGQnHzbJLGkTE5N6NjY27W6iZ9Y9AAAgAElEQVTcuGF35cqVdvJcLsFWXFycNgTT1dcqOpv6TrOqi5vpdgyW5/xBgwaFTps2rWFFdqVvCCCAAAIIPKwAAdbDynE/BB5QYMqUKQXLli3Tfpp7pyUIElpJIdhatWqpevXqnTcxMTno7e0tda5+HD9+/N4HvBw3RwABBBBAAIFSEAgMDLRNTEzsnJGR8XRycrKd1NSSAMvW1tY7Jyena1RUlLbQvK4Wl3xgda+lh9JMmXE9aNAg1atXL++hQ4deKYWmc0oEEEAAAQQMWoAAy6CHj8YbksCIESMKli9ffttSQVlGILsH6upiODs7R7Zu3TrFx8en9+DBg6MMqX+0FQEEEEAAgcousGDBAufU1NTvk5OTW8hOwrIxi8zSMjc3d8jOznaQmVxSV0u+pJB8Tk5OIZnsaOjr6ytfI4YOHbqsslvSfwQQQAABBIoLEGDxmECgjATGjh1bsHLlSu2LVV19K9mlqHbt2qpLly5xlpaWYy0tLUO8vb2TBg4cmFBGzeIyCCCAAAIIIFDCAhs3bqwrBeLlS2ZjValSpaqRkdGQjIyMiVI8XmZpXbp0SbsTohxS7F2Ku/fr1+/ctGnTtLsmciCAAAIIIIDA7QIEWDwiECgjgdmzZ/8YHBw8+PLly+byKWvdunULvL29zzg7O891cXHZotFoYsqoKVwGAQQQQAABBMpJ4KeffuqbmJhYXZYeyg6HukN2Gc7Ly1v1zjvv3CqnpnFZBBBAAAEE9FqAAEuvh4fGVSSBBQsWmKWmpg5NSkp6WgIsBweHlSYmJjv8/PzSK1I/6QsCCCCAAAII6L/A3LlzH4uJiflYZoF5enoqJyenrW5ubtv79+9PCQP9Hz5aiAACCFRKAQKsSjnsdBoBBBBAAAEEEECgsgrMmTOnTURExM41a9bYyjLHOnXqqCZNmigfH5+Lt27dGmNqaprg7u6e4ejomDhq1Kg/1zlyIIAAAgggUM4CBFjlPABcHgEEEEAAAQQQQACBshR46aWXru7YsaOaLGPMzc1VFhYW2k1l5MvOzk5Vr15ddkVOrFu37n4XF5eX/fz8bpRl+7gWAggggAACdxIgwOJxgQACCCCAAAIIIIBAJRIYMmRIdlBQkJkUmC8oKLit57LRjLW1tRSeV25ubqpGjRraPyXUcnZ23mllZfWhubn5iWHDhqVUIjK6igACCCCgBwIEWHowCDQBAQQQQAABBBBAAIGyEpgyZcqnx48fnxwcHGwiheSLh1hF2yE7JNrb22tDLNkp0d3dPcnW1vacpaVlqIRarq6uJ0aPHv1NWbWd6yCAAAIIVF4BAqzKO/b0HAEEEEAAAQQQQKCSCnz44YcrNm7cODA+Pt4yLS1NZWRkaL/y8/PvKSKztKpWraqtndWwYUPVqlWrLSdOnPCTmVsyY8vGxibL1dU1WaPR5N3zZNwAAQQQQACB+xQgwLpPKG6GAAIIIIAAAggggEBFEVi7dm21S5cutcjMzBwdFxf33JkzZ1R4eLhKT09XmZmZSmZm5eTk3HV2lqmpqTI3Ny+smyXhleyyXLduXdnVMMrNzW3B22+//Z+K4kU/EEAAAQTKX4AAq/zHgBYggAACCCCAAAIIIFBuAhs2bGiSlJTUOy4uTpmamrYICwt79siRI1ZhYWGFs7JkmeE/LTWUWVkSakntLEdHR1laqF1yKMGW/Onm5nbEycnpk1u3bm318/PLKbfOcmEEEEAAAYMVIMAy2KGj4QgggAACCCCAAAIIlLzAV1991fb69etvhYWFOZiYmFRPTk5uHBkZqW7cuKGSk5O1OxfezyGhlpWVldTN0i4t9PLykpBrnZmZWbh8r1q1apFOTk67NRrN6fs5H7dBAAEEEKjcAgRYlXv86T0CCCCAAAIIIIAAAv8o8N13342PiIiYffbsWePLly+r1NRUU6mXpVtqKMsN76d2llxEQi0pCi9hVqNGjWTJYZyHh8eKXbt2TfX09FS1atXKnzBhQrZS6vbtERkjBBBAAIFKL0CAVekfAgAggAACCCCAAAIIIPDPArLM8MaNG1VkFlZubm6PrKysYdHR0bXPnz+vrl69qlJSUrQ1s+QrLy9P+3W3UMvExERbP0tmZ1laWmqXGcrSQwm1fHx8YpydnSdPmjRpNWOCAAIIIIBAUQECLB4PlUrg66+/fiEyMjIwJiZGWVhYyK45ma6urj4ajSayUkHQWQQQQAABBBBA4BEFAgMDq966dWtCYmKiys7O7hMVFdVaZmhFRESo69evq1u3bv1j3ayilzczM1N2dnaFtbOqV6+u3enQy8vrppub29Jhw4ZNeMTmcncEEEAAAQMXIMAy8AGk+fcWWLlypXNkZOQr4eHhzomJiRODg4O1L6okwGrbtq3q0aPHmn//+98v3PtM3AIBBBBAAAEEEEDgbgJLly7tFRMT82xsbGzja9euqYSEBHmv0Uled8nMraSkJO0MrftZbiiBlhSDl9pZ3t7eEmadNzY23u7m5hbv4eFxzsPD46Cvr28Mo4EAAgggUHkECLAqz1hXyp4uXbrUJjY2du3WrVt7nTx5Uju9XbeLjrGxsXJyclIdO3bctX79+h6VEohOI4AAAggggAACJShQUFBgtGfPHhM55apVq4xatWo1Mj4+/ruQkBCjS5cuSf0s7ZfMzpLaWVJHS5Yb3u2QmlnyJa/bZKlhvXr1VNOmTfOaNWuWYG1t3WvcuHEnS7D5nAoBBBBAQI8FCLD0eHBo2sMLzJ071zY7O/v1kJCQjw8ePKiioqK0L5aKvkCSrZ5r1aqlunTpsuv7778nwHp4bu6JAAIIIIAAAgj8o8Dq1aufiouL0wZW2dnZQ65evTpSAq0LFy5owyx5jSY/kx0O71Y/S2pn6Wpm2djYKAcHB+0Oh/Xr11fVq1f/r5ub23ejR48OYSgQQAABBCqmAAFWxRzXSt2rTZs2NTp//nzwrl27bE+dOmUSGxv7t+2e5ZM8mX01aNCgnGbNmvUZO3bsr5Uajc4jgAACCCCAAAJlJLB7927Ta9eu1c3Ozh4cGxtrITsa5ufn9zt+/HiDsLAwJcsPJdS61yGv5yTIktd01apVkzArrWrVqtlSP8vT0zO4atWqX2g0mr33Og8/RwABBBAwDAECLMMYJ1p5nwIzZ85sGx0dPevIkSNPnDp1SqWlpd12T9nxxtnZWdWpU0dmX0W1atVq3MSJE7fd5+m5GQIIIIAAAggggEApCMjs+eTk5Mnx8fG9ZbOdpKQk+7S0NB/Z4TAhIUE7k/5ehywzlEBLZmXJLHsPD49Ee3v7w5mZmVt8fHyuTZo0af29zsHPEUAAAQT0V4AAS3/HhpY9oMCqVate3L9//4Lt27c7REZGamddSb0rOWTKuexs4+npKTsPqvbt2/+Sm5s75LXXXkt4wMtwcwQQQAABBBBAAIFSEti4caOdFHwvKCiomp2dveXs2bONQ0NDlYRaEmLJbC35kuWGutd5RZtStGaWBFpSDF5mZ7Vq1Sq7c+fOH7m4uHym0WiyS6n5nBYBBBBAoBQFCLBKEZdTl77A4sWLLbOysjShoaEfHTt2rIZs3SxbOUtRUDnkRYy8cJFtmDt16qRat269xsPD48thw4YdKv3WcQUEEEAAAQQQQACBRxEIDAxsfvPmzZoJCQkO6enpb8bExDQPCQlRUj9LQizZ1VA+tCz6wWXxQEtm4MsHmV5eXqp79+6XmjRpMnDkyJGnHqVd3BcBBBBAoOwFCLDK3pwrlpDAwoULm0ZHR288fvy487lz52xl1lV29v99oCbhlYWFhbawZ48ePTJr1KgxvkqVKqtGjRqVWUJN4DQIIIAAAggggAACZSTw/fffV01LS6teUFAwMC4urlZGRsZL8uGlhFlXrlzRlo7Iz8+/a2vkdWGXLl0kxFr47rvvjiujZnMZBBBAAIESEiDAKiFITlO2Al988cW4sLCwz4ODgx3khUt6evptDZAlg46OjqpFixaZLVq0OO7j4/PSyy+/fLFsW8nVEEAAAQQQQAABBEpLYNmyZdXS0tK+vHDhQvUrV644SeH3zMzMxrL7tCxDlNeHRXeglplYbdu2VT179tzQoEGDF1lKWFojw3kRQACB0hEgwCodV85aigJz58797Lfffpu4Y8cOC1kuKJ+06WogyKwr2V7Z1dVVNW/eXD5hC3Bycpo9bNiwlFJsEqdGAAEEEEAAAQQQKCeBwMBA29TUVCupkZWdnd0vOjp6oSwzlJ2ok5OTC+tlyWvE///aUD3xxBPTxo0bN6OcmstlEUAAAQQeUoAA6yHhuFvZC2zbtq3qyZMnZx85cmTEgQMHVHx8fOGnarpaV7a2tqpBgwby6VpIzZo1J73xxhvby76lXBEBBBBAAAEEEECgvATWrVvneuvWrW4pKSnq1q1bfklJSd2kzIS1tXVyvXr1Fo0ePXpyebWN6yKAAAIIPLwAAdbD23HPMhT44YcfXK5fv75xz549LU6ePGkp08KL1jiwsrJSPj4+qnPnztfc3NxmOzg4BL722mtXyrCJXAoBBBBAAAEEEEBAzwR2795tGxUV1UCKvZuZmaVZWlpe0Gg0eXrWTJqDAAIIIHAfAgRY94HETcpXYOHChbUuXrz4xYEDBwaePn1aOxVcd8jMK3d3d9W4ceOcli1bnnvssccGvPTSS5fKt8VcHQEEEEAAAQQQQAABBBBAAAEESlKAAKskNTlXiQusXLmy0alTp9Zu3rzZR4q1Z2VlFc68kkLtzs7Oqlu3bqpTp04BdnZ2344YMSKuxBvBCRFAAAEEEEAAAQQQQAABBBBAoFwFCLDKlZ+L301g6dKlrteuXdOcOnXq60OHDqmYmBhteKUr1m5mZqYNr55++umbbdq0+dTf3/9TNBFAAAEEEEAAAQQQQAABBBBAoGIKEGBVzHE16F5t3Lix6dGjR1ccOnRIZl8ZFa93ZWpqqurXr6+efPLJLdWqVZuRlZV1IiAgINegO03jEUAAAQQQQAABBCqMwI8//jg4Ly/Pws7O7leNRhNTYTpGRxBAAIFyFCDAKkd8Lv13ga+++qpjdHT0V3v37m31xx9/yFbIhTeSelf29vbaXQabNm26/bHHHhsyadKkRBwRQAABBBBAAAEEENAHgY8++sgjKyvrg2vXro3LyMiQFQMhNWrUOJCenj7Pzc3tjJ+fX44+tJM2IIAAAoYoQIBliKNWQds8btw4s/z8/Ev79++vceXKlb8tGXR0dJTgSmpeycwrvzFjxlytoBR0CwEEEEAAAQQQQMAABSZNmvTNmjVrXpVNh/Ly8pSFhYW27EWLFi0yW7RosdDb2/tne3v7Xb17984ywO7RZAQQQKBcBQiwypWfi+sEVq9e3Sw8PPzk6tWr1blz57ThlRwy60qKtVerVk117dpVNW/e/IPHHnvsc570eewggAACCCCAAAII6JNAQUGB0eTJk3d9/fXXXXNycrS1W+W1rJS/cHBwUK6urqpmzZra1QS1atVaYGZm9mGDBg0SunXrlqlP/aAtCCCAgL4KEGDp68hUonYVFBQYT58+/augoKDXQ0ND1a1btwrDK0tLS9W4cWPVvn37y3Xq1Jnh7e29rl+/fn/egAMBBBBAAAEEEEAAAT0SGD9+/NerVq16LSUlRTsDq/hhY2OjDbJq1aql3NzcLnl7e1/y8vKa5e/vv12PukFTEEAAAb0UIMDSy2GpPI1avHixY0pKymfBwcHjNm7ceNvMK5ly3b59+8wePXrEeHl59RwxYkR45ZGhpwgggAACCCCAAAKGJvDll1++euDAgekhISFOkZGRKi0t7Y5dkJlZtra22iCrbdu2ysPD42szM7P11apVOzN69Oh4Q+s37UUAAQTKQoAAqyyUucYdBZYuXWoTFRW1du/evb0OHz6s5JMqmWoth8y88vb2VkOGDJmVn5//DrsM8iBCAAEEEEAAAQQQMASBefPmNY2MjPz18OHDrhEREermzZvaIEs2J9K91pV+GBsba5cXyuteWWLo4+OjWrZseaJevXqzXF1dY/r167fbEPpLGxFAAIGyEiDAKitprlMoIPUBvvrqK4eMjIxft27d2vr06dPaZYO6J3R5MpdPo/r375/VqlWrXkOGDNkLHwIIIIAAAggggAAChiQgxdwvXLjwREhIyKCjR48aX716VcnOhPn5+dqvoofUfLW2tlZOTk4yG0vVq1dPNWrU6IKJiUl3GxubJD8/v3RD6jttRQABBEpDgACrNFQ55z8K/PDDD21DQkK+Cw4Obnr27FntzCvdIeGVPGl37tw5sUePHn6jR49eAycCCCCAAAIIIIAAAoYoICsOkpOTX4iJiemYnp4+JCQkxOrChQsqNjZWOyPrTofMypKdC728vORD3cwqVar85uPj87u1tfXHfn5+Nw3RgTYjgAACJSFAgFUSipzjvgRk5tXq1atbXbhw4eiGDRvUqVOnbituKZ88/RVe5XTs2HFR1apVX9NoNH+vfnlfV+NGCCCAAAIIIIAAAgjol8C8efOCQ0JCGl65csU8MjLSMjo62jgpKelvM7J0rZaasG5ubqpFixayvPCiu7t7oI2NzYphw4aF6FfPaA0CCCBQ+gIEWKVvzBX+EpgzZ47L5cuXd+/du7fRuXPntFOoiz45u7u7qx49eiS2aNHilddff/0n4BBAAAEEEEAAAQQQqGgCW7dudY+Li/OOi4v76Pjx4z2knEZiYqK2pEZmZuZtYZYUe5cZWRJkyQ6G8mFvixYtkhs2bPi+q6tr+PDhw7dVNB/6gwACCNxNgACLx0aZCAQEBJg6OzsfXLp0qbbmVdHwSpYN1q9fXz333HNptWvXfnrMmDG/lUmjuAgCCCCAAAIIIIAAAuUosHHjxrpxcXGaCxcuTNu3b5+5fMibmpqqDbGKFnyXJkqYZW5urhwdHZV88FujRg3VsGHDglq1avnFxsYuadiwYR6rF8pxMLk0AgiUugABVqkTcwER+Prrr1//+eef5xw8eFDJNGndk7B8mtStW7fcxo0bf1+3bt1P/Pz8IhFDAAEEEEAAAQQQQKAyCXz77bdtwsPDe6SkpPS5du1ai7CwMOvo6OjbasUW97Czs1PVqlXTfhBsb2//W926daM8PT0Dxo0bd6Ey2dFXBBCoPAIEWJVnrMutp3PmzLEPCwvbsmzZsk5SsF2364psGdy+ffuCoUOHbnn55ZefLbcGcmEEEEAAAQQQQAABBPREYMWKFf+5ePHiOxcuXDC6cuWK9isuLk5lZWXdsYWymkGWFzZs2FB17NhRNWjQYIWDg8MrGo0mVU+6RDMQQACBEhEgwCoRRk5yN4F169a5Hj9+fGtQUFDrM2fOqJycHO1NzczMZFcVNWjQoIAZM2ZMRxABBBBAAAEEEEAAAQT+T2DdunWNIyIiml68ePG7Y8eO2Vy9elVbJys9PV3l5ubetsRQQixZXmhra6udlfX444+rmjVr/qdevXq7hgwZsgtXBBBAoCIIEGBVhFHU0z4EBQXJzKutmzdv7ihLB+XJVtbyy/p92Ra4Z8+eaW3btn1y7Nixh/S0CzQLAQQQQAABBBBAAIHyFDBasGCBqY2NTa/IyMgPjx071vzw4cNKZmTpPhgu2jh5nS0fFNvb26vq1asXNGjQIL9NmzY/GxsbayZNmvR/OyiVZ4+4NgIIIPCQAgRYDwnH3e4t8N///nfKL7/8Mu3o0aPW8fHxheGVfDLUpUsX9dRTT42cMGHC0nufiVsggAACCCCAAAIIIFC5BQIDA10SEhImh4aG1k5MTGwXHh7uGRYWpt3BUGZkFT9k90Ip+P7YY49JnaxIT0/PfdWrV//cz8/vdOWWpPcIIGCoAgRYhjpyet7uZcuWDd6zZ8+yLVu2mMgnRLpdVOSJVKY09+rV6+eAgIDeet4NmocAAggggAACCCCAgF4J7N692/TSpUv2ycnJQRcuXGgbGRmpLl68qK5fv67dwbD4YWJioq2RJUFWhw4dMho1avSTo6Pju88999w1veoYjUEAAQTuIUCAxUOkxAWkaHtkZOTSFStW9JPwKi8vT3sNefJ0dnZWL7300vEmTZp0HzZsWEqJX5wTIoAAAggggAACCCBQSQQCAgKM69evP+T06dOfHDp0yFOCrOTkZG3pDt1rcKHQ1ciSpYUeHh6qXbt2UtJjuqen587hw4fvryRcdBMBBAxcgADLwAdQH5v//vvv79m4cWPH8+fPmxSdzixPmL6+vurpp5+eMnz48Jn62HbahAACCCCAAAIIIICAoQnMmzevSk5OTm1jY+Mvf/755y6HDh3SLi0sfkiNLCn2LksLPTw88uvXr5/Zpk2bw1WqVBk4atSoZEPrN+1FAIHKJUCAVbnGu1R7++2337pGRER8FBwcPFaKS+oKS8oTpZOTk2rZsmVur169lr711ltjSrUhnBwBBBBAAAEEEEAAgUoqMHPmzI8jIiKaXLt2rdMff/zhEBUVpbKzs/+mIaU95DW6LC2sV69edI0aNXbVqFFj9qhRo05WUjq6jQACei5AgKXnA2RIzfvoo4/e2Lp165enTp0yLrrjoMy8at26tew6uNbc3Hw4O6AY0qjSVgQQQAABBBBAAAFDEwgKCrIIDw8fHBERsSA0NNT8woUL6tq1a9oaWbratNIn+aBZynzIJksNGzZUnTp1SvLw8Jjh6ekZNHDgwAuG1m/aiwACFVuAAKtij2+Z9W727Nmv/vbbb9/s2bNHO11ZnhjlCdHS0lI1b95cdh0M+vTTT/uUWYO4EAIIIIAAAggggAACCKglS5Y0PXfu3E+HDh2qL7sWJiUlqczMzL/VyLKwsFAODg7K09NTdezYUWpkvWdlZbXa398/AkYEEEBAHwQIsPRhFAy8DfPnz+/5+++/b9q0aZNlfHx84ZOhPAnWrl1bPf/886Genp6d/fz8bhh4V2k+AggggAACCCCAAAIGJ7Bo0aLqp0+fdnB3d/9o586dA48dO6YNsoofumLvsrTQ09Mzr1mzZtf79evXt0+fPiwrNLhRp8EIVDwBAqyKN6Zl3qMpU6YEb968+QmZmlx0x0HZ4aR///5nGjVq1N/Pz+9SmTeMCyKAAAIIIIAAAggggMBtAp9//vms8+fPeyUmJj75+++/O8jSwjvVyJJi7zIbq23btidr1KhxwdPTc/mECRM2w4kAAgiUlwABVnnJV5Drfv311y9u27Zt9S+//HJb0fYaNWrIssHYdu3a+b766qtHK0h36QYCCCCAAAIIIIAAAhVCYPbs2QPDw8N/vHTpkp18EH316lWlq2Or66BuRpa8tn/iiSeyGjVq9LGXl9eWQYMG/V4hEOgEAggYlAABlkENl3419quvvnoxKChoybFjxyxkCrKuIKSNjY0aOHCg6tGjR92XXnqJmVf6NWy0BgEEEEAAAQQQQACBQoGFCxfWOnfu3IaDBw82jYiIUMnJySorK+u2GllmZmbK2tpayQqLzp075zdo0OAjBweH5aNGjQqDEgEEECgrAQKsspKuYNdZuXJlo8OHD29bs2aNp0w7zs/P1/ZQtuNt06aN6tOnz89Tp07tXcG6TXcQQAABBBBAAAEEEKhwAt98803Ny5cvezg4OIw7ePDgyKNHj6qEhIS/9VOCLBcXF1WzZs3Mhg0bxrds2XLh+PHjPzIyMiqocCh0CAEE9E6AAEvvhsQwGjR79uwvV65cOen06dPaXUzkkHXyMr3Y19c3tEGDBv1eeeUVPpExjOGklQgggAACCCCAAAIIaAVmzZq14Ny5c71DQ0M9Q0JCtDOydHVudUSyWVO1atVUq1atVJMmTU65urq+Nn78+P0QIoAAAqUpQIBVmroV9Nzz58+vFxoaeuCHH35wTk1N1S4dNDIyUq6urlK0XTVt2vSZV199dVsF7T7dQgABBBBAAAEEEECgwgoEBgaa3Lp1q25CQsInJ06cGHD27FkVHR2tbt68WRhkyWt/+dItK+zateuxdu3ajR81ahS1byvsI4OOIVD+AgRY5T8GBteCCRMm7P/11187Ft110NLSUoKr3MGDB49+8803lxlcp2gwAggggAACCCCAAAII3Cbw/fff10xISNi+Z8+eWidPnjSX2Viy+kJX+1ZCLCkh4ubmpnr37q2efPLJphqN5jSMCCCAQGkIEGCVhmoFPufy5cunrly58qPdu3cXPnnJ7iQNGjSQJ6zTtWvX7vnGG2/EVmACuoYAAggggAACCCCAQKURWLlypVtYWFjjjIwM/8OHDz937NgxdevWrdv6r6uD++KLL34wceLEDysNDh1FAIEyFSDAKlNuw77YkiVLOh49enR7UFCQdXh4eOHSQQcHB+0nLr6+vhMHDx48x7B7SesRQAABBBBAAAEEEECguMDcuXNt8/Ly1pw7d65aaGhog1OnTmlnZEl9LAmwOnTooAYNGvSKv7//AvQQQACB0hAgwCoN1Qp6zhkzZvzrp59+mh4WFmasK9wuT1YdO3ZUXbt2nR8QEOBfQbtOtxBAAAEEEEAAAQQQQEApJTWyzp079/nZs2cnSUmRlJQU5ezsrNq1a3euQ4cO3TQazXWgEEAAgdIQIMAqDdUKeM7vvvtu0J49e1Zt3bpV+ySlK9xuZ2en/P39d3fs2LGvr69vegXsOl1CAAEEEEAAAQQQQACBYgLr169vc+XKlVcTEhJ6u7u7r3ZxcXlDo9HkAYUAAgiUlgABVmnJVqDzrl69ut2JEyd2r1q1yvLq1asqNzdX2zsJr5o3b65efPHFOa+99trECtRluoIAAggggAACCCCAAAL3IRAYGNjEwsIiol+/frcXxrqP+3ITBBBA4EEECLAeRKuS3nbq1Kk/7tmzZ+SRI0dUTk6OVkGWDtarV089//zzP7do0eKNgQMHXqikPHQbAQQQQAABBBBAAAEEEEAAAQRKWYAAq5SBDf30S5Ysqb9p06ajO3bssC+6dFC2yu3SpUtKq1atWi2vrI8AACAASURBVE6ZMuWSofeT9iOAAAIIIIAAAggggAACCCCAgP4KEGDp79iUe8tWrFhROzQ09PyaNWtMpUBjfn6+tk3m5uaqc+fOasCAAetdXFyGajSajHJvLA1AAAEEEEAAAQQQQAABBBBAAIEKK0CAVWGH9tE79vnnn3fZuXPnzmPHjpkkJCRoT2hiYqIaNWqk+vXrF9GkSZNWGo0m8dGvxBkQQAABBBBAAAEEEEAAAQQQQACBuwsQYPHouKvAvHnzOu3Zs2f3vn37TGJjY7XhVdWqVdXAgQOjunbtOn7QoEFb4EMAAQQQQAABBBBAAAEEEEAAAQRKW4AAq7SFDfj8gYGBDlFRUav37Nnz9Llz55SFhYV29lXLli1HvPPOO8sMuGs0HQEEEEAAAQQQQAABBBBAAAEEDEiAAMuABqu8mrp48eJ3k5OTP1BKxbu6ujYfOnRoUnm1hesigAACCCCAAAIIIIAAAggggEDlEyDAqnxj/tA93rhxY91+/fpdfOgTcEcEEEAAAQQQQAABBBBAAAEEEEDgIQQIsB4CjbsggAACCCCAAAIIIIAAAggggAACCJSdAAFW2VlzJQQQQAABBBBAAAEEEEAAAQQQQACBhxAgwHoINO6CAAIIIIAAAggggAACCCCAAAIIIFB2AgRYZWfNlRBAAAEEEEAAAQQQQAABBB5SIDAw8PnLly93NTU13TN58uQ1D3ka7oYAAgYqQIBloANHsxFAAAEEEEAAAQQQQACByiKwfPnykcePH1949uxZMwcHh5xGjRptr1Onzr7hw4fPrCwG9BOByi5AgFXZHwH0HwEEEEAAAQQQQAABBBDQY4HFixdbhoeH71+2bFnrmJgYZWxsrJycnFTbtm3V448//n2dOnU+1Gg0kXrcBZqGAAIlIECAVQKInAIBBBBAAAEEEEAAAQQQQKB0BD799FOHqKio5NWrV6uEhATtRSTEsrGxUW3atMnr2bPnL++++27v0rk6Z0UAAX0RIMDSl5GgHQgggAACCCCAAAIIIIAAAn8TCAgIMM7NzZ2xYsWKqREREaqgoKDwNjITq3nz5jIb6+eaNWsO9vPzuwkhAghUTAECrIo5rvQKAQQQQAABBBBAAAEEEKgwAgsWLGhw8ODB0J07d6qrV6+qvLw8bd+MjIyUg4ODaty4sercufO6unXrvj169OjLFabjdAQBBAoFCLB4MCCAAAIIIIAAAggggAACCOi9wLJly2bs2LHjlQMHDrhERkaqrKyswhDLyspK1axZUz311FPbGjRo8LK/v3+M3neIBiKAwAMJEGA9EBc3RgABBBBAAAEEEEAAAQQQKCcBozlz5tROTU1dtWjRosclxMrJySkMsczMzFT9+vVze/fuHf3555/XKqc2clkEECglAQKsUoLltAgggAACCCCAAAIIIIAAAqUjMHny5KDNmzc/HR4ebpSdnV14EWtra+Xj46M6dux4ulGjRs+98sorYaXTAs6KAAJlLUCAVdbiXA8BBBBAAAEEEEAAAQQQQOCRBBYsWOB88eLFTXv37m1/+vRplZmZWVjc3dLSUruc8Pnnn7/s5eX1lJ+f36VHuhh3RgABvRAgwNKLYaARCCCAAAIIIIAAAggggAACDyowZcqUn3/99ddeYWFhRmlpadoQSwq7m5ubK09PT9WnT5+9LVq0GDRq1KjrD3pubo8AAvolQIClX+NBaxBAAAEEEEAAAQQQQAABBO5TYM6cOS7JyckzNm3a9EpISIjKyMgoDLFMTU1VixYtcvr06XNx2rRpDe/zlNwMAQT0VIAAS08HhmYhgAACCCCAAAIIIIAAAgjcn8CMGTM2b9u27ZmzZ8+apKSkFC4ndHBwUI8//rjq1avXMjc3N/8RI0ak3d8ZuRUCCOibAAGWvo0I7UEAAQQQQAABBBBAAAEEEHgggQULFjjcuHFj/fbt27sdPXq0sCaWLCd0cXFRbdu2zenZs+eqCRMmjHygE3NjBBDQGwECLL0ZChqCAAIIIIAAAggggAACCCDwKAKvvvrqwj179oy+ePGicVZWlvZUxsbGyt7eXmZhqc6dO6/w8vIa5+vrm/4o1+G+CCBQ9gIEWGVvzhURQAABBBBAAAEEEEAAAQRKQeCrr75yS0pKWrV48eJuMTExKi8vT3sVExMT5ejoqLp06ZLTvXv3Fa+99tqoUrg8p0QAgVIUIMAqRVxOjQACCCCAAAIIIIAAAgggULYCa9asGbZ58+bvt23bZhEXF1dYD0taUb16ddWpUyfVvXv3qVWqVPlCo9Fkl23ruBoCCDysAAHWw8pxPwQQQAABBBBAAAEEEEAAAb0UmDlz5tuHDx/+8NChQxZXr15V+fn52nZKTSwPDw/Vo0ePjJYtW/aZOHHibr3sAI1CAIG/CRBg8aBAAAEEEEAAAQQQQAABBBCocAJLly79LCgo6I0dO3aYJyYmFoZYpqamqlq1amr48OFfuru7T50wYcKfxbI4EEBArwUIsPR6eGgcAggggAACCCCAAAIIIIDAwwrMnj17yu+//z59y5YtlsnJyYXLCa2srFTHjh1V165d502dOvXVhz0/90MAgbITIMAqO2uuhAACCCCAAAIIIIAAAgggUMYC//3vf2dt3779zYMHD6qkpCTt1WVnQgcHByW7EXbo0EHj5+e3tYybxeUQQOABBQiwHhCMmyOAAAIIIIAAAggggAACCBiOQFBQkMuxY8cWbNiwYcCZM2dUdvafddulHlajRo1Unz59Ln322Wd1DadHtBSByilAgFU5x51eI4AAAggggAACCCCAAAKVRuDrr7+udeDAgZ9/++03n5iYmMJ6WObm5tpdCYcOHdpj1KhRu42MjAoqDQodRcDABAiwDGzAaC4CCCCAAAIIIIAAAggggMCDC8ycObNxSEjItsDAQI+0tDTtCWQWlhR079atW2qjRo36vv/++3sf/MzcAwEEykKAAKsslMvpGgEBAca1a9eekZWVJZ8wTPfz88spp6ZwWQQQQAABBBBAAAEEEECg3AVmzJixaMOGDaPPnj2r5H2SHDILy93dXY0cOfK8iYlJ44CAgNxybygNQACBvwkQYFXQB8WSJUs8wsPD3wkNDX1dPl2oXbv2cWdn57c++OADPlGooGNOtxBAAAEEEEAAAQQQQOCfBebPn9/59OnTK9etW+cRFxen8vLyCkMsWUro6+u79o033ngeRwQQ0D8BAiz9G5MSadEnn3yydNu2bcOPHj2qLVJoa2ur+vXrV7BkyRLjErkAJ0EAAQQQQAABBBBAAAEEDFDg22+/Hb527dql8l7p5s2b2h7IUkJLS0s1aNCg+I4dOzYfM2bMVQPsGk1GoEILEGBV0OH19/c/8dNPPzVPTEzUFig0NTWVAEutXbuWMa+gY063EEAAAQQQQAABBBBA4P4Epk+fPnzTpk2zT5486aSbhSUhlpeXl+rRo8eNPn36tHjuueei7+9s3AoBBMpCgDCjLJTL+Brz58+fs27dutd37dqlcnNzCz9NkABr9erVjHkZjweXQwABBBBAAAEEEEAAAf0SWLVqVfU9e/bs2rlzp094eHjhUkIJsRo0aKBGjRq16bHHHhvv6+sbo18tpzUIVF4BwowKNvbz5s3z2b17967g4ODq169f186+kl/C3t7easCAATdmzZrlUsG6THcQQAABBBBAAAEEEEAAgQcW+Pbbb6ccOXLks23btqmi9bCqVq2q2rdvn9e1a9exb7/99uIHPjF3QACBUhEgwCoV1vI76eeff9539erVG0+ePGks4ZUcZmZmqk+fPuqpp56aMX78+Gnl1zqujAACCCCAAAIIIIAAAgjoh0BgYKBJRETE+H379s2R1Svp6enahkn5FRcXF/Xcc89N+uabb2brR2tpBQIIEGBVoMfAN9980+jEiRO/bNmypXpsbKy2ZyYmJsrJyUkNHTr0dN26dZ949dVXUytQl+kKAggggAACCCCAAAIIIPDQAnPmzLG4evXqF0uWLHlNVrAUFBRoV7DY2NioESNGBMybN2/6Q5+cOyKAQIkKEGCVKGf5nuyTTz45uHTp0naXL19WWVlZ2sbIL96OHTuq/v37/+Dv7z+mfFvI1RFAAAEEEEAAAQQQQAAB/RKYPXv28ytXrvzp7NmzhbOwzM3NJcA627dv3zH9+/c/rF8tpjUIVE4BAqwKMu7ffPONf3Bw8OxNmzZZpKWlaXtlbGysqlevroYPH360TZs2mgEDBkRUkO7SDQQQQAABBBBAAAEEEECgRARWrFjx5LZt23799ddflczCkkNWsrRu3Vq9+OKLJyZNmtSyRC7ESRBA4JEECLAeiU9/7jxlypQTGzZsaC6zr2TnQTlk9lXz5s1Vz549fQMCArboT2tpCQIIIIAAAggggAACCCCgHwKBgYHmly9fPrJ8+fJmZ86c0TZKlhFKMffhw4dndOvWrW6/fv2u6kdraQUClVeAAKsCjP3ixYvbbdu27eDWrVuVzL7SrduuX7++evbZZ682bNiwx6hRo85VgK7SBQQQQAABBBBAAAEEEECgxAWmTZvmtXfv3j/27dvnWHQzrC5duuT37Nlz5jvvvPNuiV+UEyKAwAMJEGA9EJf+3XjlypUNzpw5s33Lli1e8mmB/LKVTwssLCxUjx49VN++fX2dnJx+1mg0efrXelqEAAIIIIAAAggggAACCJS/wKxZs6oeOnRo5759+5rHxcVp31fJ4eHhoZ5++unsRYsWWZR/K2kBApVbgADLwMd/1qxZ/bZs2RJ4/Phx85SUlMLZV97e3rLt680vvvjC0cC7SPMRQAABBBBAAAEEEEAAgVIVkGWEISEh/zl48ODk3bt3q+zsbO31pBZWs2bNlL+/v9/YsWO/K9VGcHIEEPhHAQIsA3+AzJgxY9fixYu7XblypfBTAjMzM+Xr6yu1rz709/f/wMC7SPMRQAABBBBAAAEEEEAAgVIXWLx4seWJEycWLV++fEhSUpJ2coAcsjFW//79Ux5//PFho0aN2lzqDeECCCBwRwECLAN+YCxZsmTG+vXr/71r1y4ls6/kMDU11RYbHDJkyMGWLVv2HDFixJ9bEnIggAACCCCAAAIIIIAAAgj8o8AXX3zxwfr166cfO3ZMZWVlaW9ra2urfHx8ZIXLjPfff38ahAggUD4CBFjl414iV/3Pf/5zduHChQ2jo6MLdx60t7dX3bt3l6/JEyZM+LJELsRJEEAAAQQQQAABBBBAAIFKILBo0aLqp0+fDly2bFmHhIQEbY9lGaG8zxoxYsSM//73vwRYleBxQBf1U4AASz/H5Z6t+uabb8YdOHDgmw0bNpilp6drby9LB6X21ejRo7e+9957fe95Em6AAAIIIIAAAggggAACCCBwm8D06dP7LF68eIuUadEtI5QQa/z48RudnJwGBgQE/FnhnQMBBMpUgACrTLlL7mJvvfXWiU2bNjUPDw/Xzr6SnQdl6WCnTp1Ut27dnpw4ceLOkrsaZ0IAAQQQQAABBBBAAAEEKofAzJkz+yxbtmzL+fPnC5cRGhsbq8GDB2f07t17/NChQ3+sHBL0EgH9EiDA0q/xuK/WLF68uF5QUNCFoKAgJbOv5FMB+YXaokULNXDgwIP16tXrp9Fo4u/rZNwIAQQQQAABBBBAAAEEEECgUODHH3/ss3nz5i379+9XcXFx2u/LhIFu3bpJMfcfJkyYMAYuBBAoewECrLI3f6QrBgYG+vzxxx/bN23aVPPMmTPa8Ep+mcqa7L59+6pnn3326RdffHH7I12EOyOAAAIIIIAAAggggAAClVRg48aNbsePH7/+v//9T8ksLF2A1ahRI/XSSy+pyZMn8z66kj426Hb5CvAfr3z9H/jqc+bMGbx27dqlJ06cMNXtPCizrxo3bqxefPHFxKlTpzo98Em5AwIIIIAAAggggAACCCCAQKHAkiVLVnz33XdDgoODCwMsNzc3bYD16aef8j6axwoC5SDAf7xyQH+US/7rX//6eenSpU/LzoP5+fna2Vfm5uYSXqV06tRp8NixY4Me5fzcFwEEEEAAAQQQQAABBBCo7AKfffaZ3fbt24/v3r27nq6Qu2yaJQHWwoULeR9d2R8g9L9cBPiPVy7sD3fR5cuXf/jTTz/9a+fOnSo1NVV7EgmvPD091ZAhQ3a0bdu2n6+v759bEnIggAACCCCAAAIIIIAAAgg8lMCsWbOsNm7cuCs4OLhdXl5eYekWCbDatWtn7ufnl/NQJ+ZOCCDw0AIEWA9NV/Z3/Pjjjy8tXLiwdlRUlHbnQTlk58HevXurrl27vv3yyy9/Ufat4ooIIIAAAggggAACCCCAQMUSkABr//79u/bu3dsuOTm5cPXL008/LbWHR40fP36pkZFRfsXqNb1BQL8FCLD0e3wKWzd37tyxwcHB89evX2+ckZGh/b6pqamqV6+eTGP98p133plsIF2hmQgggAACCCCAAAIIIICAXgsEBgZqA6xffvml3aVLlwonEEgh9969ex9r2LBhp1GjRmXqdSdoHAIVTIAAy0AGdMKECSe3bdvW7PLly9pfnlL7ysnJSXXp0kX16tWrw7hx4w4YSFdoJgIIIIAAAggggAACCCCg1wJBQUEWv//++/pt27Y9c+TIEZWdna1tr7e3t/L19ZVNtBz9/Pxu6nUnaBwCFUyAAMsABnTOnDn2u3fvvrl9+3Yls6+kiKDsPNiyZUs1YMCAg97e3n2GDh2aZABdoYkIIIAAAggggAACCCCAgEEIzJkz54udO3e+Je/DMjP/nGzl7OysunfvLu/FHN99910CLIMYSRpZUQQIsPR8JAMDA+v+8ccfuzZs2FAjJCSksHigvb29evbZZ9VTTz3VYfjw4cy+0vNxpHkIIIAAAggggAACCCBgWAKrV69udvTo0ZPz589XaWlp2sZbWlpKEXfVtm1bx88++4wAy7CGlNYauAABlp4P4DfffDN69erVi06dOqVSUlK0rZXlg02aNFEjRozImjx5sqWed4HmIYAAAggggAACCCCAAAIGKfDOO+/8Z/78+e/fvPl/WVXz5s1VmzZtHL/77jsCLIMcVRptqAIEWHo8cgEBAcaZmZkbly1b1vf69etKtm+V8Mrc3Fy98MILMe3bt+/76quvntTjLtA0BBBAAAEEEEAAAQQQQMBgBd57773/fPfdd+8nJiYWroaRAOvxxx8nwDLYUaXhhipAgKXHI7dixYoPAwMD//Xrr7+q9PR0bUstLCxUtWrV1PDhwze1b99e07t37yw97gJNQwABBBBAAAEEEEAAAQQMVmDWrFn/WbJkyftSziUnJ0e7E3zr1q1V06ZNCbAMdlRpuKEKEGDp6citWLGiSkhIyO/Lly/3jo6O1s6+kkOKBvbq1Ut17NhxlL+//4962nyahQACCCCAAAIIIIAAAggYvMCSJUvqHz169PuDBw92SkpKUjVr1pQC7r95eHg8NWnSpAyD7yAdQMCABAiw9HCwdu/ebXr8+PEfd+zYMXT37t0qK+vPSVaS9vv4+KjRo0fPmjRp0mQjI6MCPWw+TUIAAQQQQAABBBBAAAEEKoyAbKx18eLFsNjYWPXYY4/tv379eveAgIDcCtNBOoKAgQgQYOnhQM2aNcvq+PHjh3ft2tVEfknm5+drWymzr7p166b69OnT+qWXXjquh02nSQgggAACCCCAAAIIIIBAhRTYuHFj6xMnTvweEBDw5xs0DgQQKFMBAqwy5b6/i3377be9AgMDg/bv328sSwcLCgq0xdtlrXXfvn03FhQUaAICArLv72zcCgEEEEAAAQQQQAABBBBAAAEEEDBsAQIsPRu/pUuXtj58+PDRLVu2qCtXrhS2zt7eXvXv319mYLUfNWrUIT1rNs1BAAEEEEAAAQQQQAABBBBAAAEESk2AAKvUaB/uxJ999tn45cuXzw0LC1OZmZnak8jsq6ZNm6qRI0cqT09PU41G82dFdw4EEEAAAQQQQAABBBBAAAEEEECgEggQYOnRIP/44491jh49Gvi///2vZUJCQuHSQTMzMzVkyJDYDh06PDV27NhTetRkmoIAAggggAACCCCAAAIIIIAAAgiUugABVqkT3/8Fvvzyy4/WrVs39dixY4U7D1pYWCh3d3f13HPPzZo1a9ZkpRQ7D94/KbdEAAEEEEAAAQQQQAABBBBAAIEKIECApSeDOGfOHPuIiIijS5curZ+YmFi486Cnp6caMGBAbMOGDQf5+/vv0ZPm0gwEEEAAAQQQQAABBBBAAAEEEECgzAQIsMqM+u4XCgoKsjhz5sy8nTt3jt6zZ0/h7Ctzc3P1xBNPqNGjR9ceMWJEuB40lSYggAACCCCAAAIIIIAAAggggAACZS5AgFXm5H+/4Mcff+z0xx9/7Nu3b1/D2NhY7ewrKdzu7e2tnnnmmXhXV1f3gICAfD1oKk1AAAEEEEAAAQQQQAABBBBAAAEEylyAAKvMyf9+wZkzZ/bZuHHj+sOHD5vl5uZqi7cbGxurvn375j/11FNDX3vttdV60EyagAACCCCAAAIIIIAAAggggAACCJSLAAFWubD/30WXL1/++MGDB49s3rxZRUZGan8gs69cXV1l6WD2J598YlHOTeTyCCCAAAIIIIAAAggggAACCCCAQLkKEGCVK79Sn3/++ZvLly+fdeH/sXcfUFVc69/HN0Wwxt5b1BhjFxRFMSpiBVGxICIWsGBFjOVaEj0hsUeJWFBEUQSVqoiggoC9FyQWbLHG3hULCLz/mVx5TW6KCJ4z5/A9a91114ozez/788xhrfNbM3suXBCvX7+WqzE0NBQdOnQQtra2K0eMGDFMwyUyPQIIIIAAAggggAACCCCAAAIIIKBRAQIsDfKvWrWqVlJSUnRgYGD1d28elO6+KlSokHB0dPT08fH5RoPlMTUCCCCAAAIIIIAAAggggAACCCCgCAECLA22YdasWTOjoqKmHjt2LOvNg4ULFxZfffWVsLOzmzRt2rT5GiyPqRFAAAEEEEAAAQQQQAABBBBAAAFFCBBgaagNa9euLXns2LE9GzZsqPPu7iuplOrVq4sePXok1q9ff+DAgQOTNFQe0yKAAAIIIIAAAggggAACCCCAAAKKESDA0kArgoODC1y+fHl5XFzcgL1792bdfWVsbCxatmwpbGxsSn7zzTePNFAaUyKAAAIIIIAAAggggAACCCCAAAKKEyDA0kBLFixYUHnXrl279u/fX/3JkyciIyNDfvNg1apVpY3bny9evPgzDZTFlAgggAACCCCAAAIIIIAAAggggIAiBQiwNNCWWbNmLQ8JCXE9deqUHF5JHynAsrGxSWndunW/iRMnRmigLKZEAAEEEEAAAQQQQAABBBBAAAEEFClAgKXmtgQEBDhu2bIlMCEhQdy/f1+eXV9fX5QsWVK4uLjcnTt3bjk1l8R0CCCAAAIIIIAAAggggAACCCCAgKIFCLDU3J7Zs2cvXrly5ejr16+Lt2/fyrMbGRmJdu3aSY8PrhkxYoSzmktiOgQQQAABBBBAAAEEEEAAAQQQQEDRAgRYamyPp6dn819++SUqLCys+NOnT+WZpUcHP/vsM+Ho6Djb29t7qhrLYSoEEEAAAQQQQAABBBBAAIGPFAgODjbq3bt3mp6eXuZHDsFpCCCQDQECrGxg5fTQadOmrYqIiHA5f/68SEtLk4crXLiwqFu3rrT/1dDp06f75nQOzkcAAQQQQAABBBBAAAEEEPi0Al5eXqMfPnxoVaBAgccVK1Zc1L9//1OfdkZGRwABAiw1XQNLly4tfPbs2edr1qwRL1++FJmZmfLeVzVq1BA9e/a8UK5cuVbu7u531VQO0yCAAAIIIIAAAggggAACCHyEgJeXl8uRI0d8Ll68aCA9TdO4ceOkKlWqtBk5cuTjjxiOUxBA4AMFCLA+EConh61du7bkhQsXNsbGxrY7ceJE1t5X0t1XVlZWonv37uWdnZ3v5GQOzkUAAQQQQAABBBBAAAEEEPi0Aps3b+64Y8eOoIiIiKIPHz4UhoaGol69etJvOsspU6bs+rSzMzoCeVuAAEsN/Z83b16NHTt2xB05cqTqixcv5LuvpL2vpD90NjY2v8yZM6eBGspgCgQQQAABBBBAAAEEEEAAgRwIrF279rsNGzZ47N27V6SkpMi/6ypWrCicnZ2PmpmZOXft2vVMDobnVAQQ+AcBAiw1XB4qlWpBeHj4N6dPnxYZGRnyjPny5ZNS+idWVlb9hg8fHq2GMpgCAQQQQAABBBBAAAEEEEAgBwJSgLV+/XqPffv2yQGW9ClTpozo06ePMDc379mvX7/wHAzPqQggQICluWsgMDBw8JYtW3zj4uLEgwcP5EIMDAxEpUqVxIABA8798MMPdTRXHTMjgAACCCCAAAIIIIAAAgh8qEBQUNB3ISEhHjExMeLZs2fyaSVKlJCerBFNmzbtNWbMmLAPHYvjEEAgewLcgZU9r2wf7enpuWTJkiWjrl27lrX3VaFChYSdnZ34+uuvx7i6ui7J9qCcgAACCCCAAAIIIIAAAgggoHaBiIiIVlu3bt0dEhIinjx5Is8vbeRuYWEhbG1tfx45cuQ4tRfFhAjkEQECrE/Y6O3bt5fYu3fvbm9v73qPHj2SZ5LePFi6dGkxcODA7+fOnfu9np5e5icsgaERQAABBBBAAAEEEEAAAQRyUWD8+PGZ0tvlpU3cpU/BggXl/Y179+4dMHHixP65OBVDIYDAewIEWJ/4cvDw8Aj38vKye/f4YMmSJUWLFi1SLSwsuk+ePHnbJ56e4RFAAAEEEEAAAQQQQAABBHJRYMaMGY+9vb2L3bt3Tx41f/78okqVKsLR0TFApVIRYOWiNUMh8L4AAdYnvh6WLl06NCgoyOfSpUvy3ld16tQR7dq1C61YseJoR0fHu594eoZHAAEEEEAAAQQQQAABBBDIRYH//Oc/UwMDA2fevHlTHtXQeOSzdAAAIABJREFU0FDeB2vAgAEBP/30EwFWLlozFAIEWGq8BqKjoyslJib6Xb58+WsjIyO9KlWqBE+ZMoU/amrsAVMhgAACCCCAAAIIIIAAArkl8P3339usWbNm05UrV/K9G9PIyEgMHjw4wNvbm996uQXNOAj8SYA7sNRwSfj5+eV/+PBhYSnAKleu3At7e/tXapiWKRBAAAEEEEAAAQQQQAABBHJZYNq0aS3Wr18ff+XKFeN3Q0tP2wwZMiRgxYoVBFi57M1wCLwTIMDiWkAAAQQQQAABBBBAAAEEEEDgAwUIsD4QisMQyGUBAqxcBmU4BBBAAAEEEEAAAQQQQAAB3RVQqVQtNm7cGH/p0iXjt2/fyguV7sBydnbe0aFDBzueuNHd3rMyzQoQYGnWn9kRQAABBBBAAAEEEEAAAQS0SGDBggUtNm/eHJ+YmGj8/PlzuXJ9fX3Rv3//p82aNTMdOXLkr1q0HEpFQGsECLC0plUUigACCCCAAAIIIIAAAgggoGmBpUuXtti2bVv8oUOHjB8+fCgyMzPlAMvOzk7Y2NjMdHFx+VbTNTI/ArooQICli11lTQgggAACCCCAAAIIIIAAAp9EYN26dS3i4uLi4+LijG/evJkVYFlZWQlra+ul48aNG/1JJmZQBPK4AAFWHr8AWD4CCCCAAAIIIIAAAggggMCHC4SEhLQ4fPhwfGRkpPGFCxeyAixzc3PRo0ePXRMmTLD88NE4EgEEPlSAAOtDpTgOAQQQQAABBBBAAAEEEEAAASHErFmzngQFBRVNSkqSAyw9PT1Rv3594eTkJCZNmsTvbK4SBD6BAF+sT4DKkAgggAACCCCAAAIIIIAAArorsGzZsidr164teuTIkawA6/PPPxeOjo5i5syZ/M7W3dazMg0K8MXSID5TI4AAAggggAACCCCAAAIIaJ+Av79/wKpVq/rt3btXZGRkyHdglS5dWvTt21csWrSI39na11Iq1gIBvlha0CRKRAABBBBAAAEEEEAAAQQQUI5AYGBg1aCgoKtbt26VAyzpU7hwYdGnTx+xatUqfmcrp1VUokMCfLF0qJksBQEEEEAAAQQQQAABBBBAQD0C3bp1S9q6dWv99PR0eUJ9fX05wNqwYQO/s9XTAmbJYwJ8sfJYw1kuAggggAACCCCAAAIIIIBAzgXatm0bvXv37s7vAizpMUJ7e3sRFBTE7+yc8zICAv8jwBeLiwIBBBBAAAEEEEAAAQQQQACBbApYW1tH79q1q/OrV6+yNnLv1KmT6Nev3yAnJ6e12RyOwxFA4F8ECLC4RBBAAAEEEEAAAQQQQAABBBDIpoCTk1N0XFxc53v37gnpLizpDiwzMzPpMcIwU1NTJ0tLy9fZHJLDEUDgHwQIsLg8EEAAAQQQQAABBBBAAAEEEMimwH/+85/o7du3dz579qxIS0uTA6zatWsLW1vbc1999VVbZ2fnO9kcksMRQIAAi2sAAQQQQAABBBBAAAEEEEAAgdwTmDNnzuqYmBjn/fv3izdv3sgDV61aVXTq1Ompqampuaura3LuzcZICCDAHVhcAwgggAACCCCAAAIIIIAAAghkU8DT03PM/v37vaKiooS0D5b0KV26tGjdurVo3ry56fjx409mc0gORwCBfxAgwPqIy2PJkiXN37x50/zBgweXqlWrdnnYsGFnPmIYTkEAAQQQQAABBBBAAAEEENBSgYCAAIvDhw/H+Pn5FXzx4oW8ikKFCglTU1NhYWFhOmfOHAIsLe0tZStTgAArm30JDAxst23bttgDBw7Izzjb2NiIypUrF544cWJKNoficAQQQAABBBBAAAEEEEAAAS0WmD179sb58+f3efTokbwKfX198cUXX0i/E9t4enru1uKlUToCihMgwMpmSzw9Pb9btmyZx5UrV+QzGzRoINq3b7+tYsWKDm5ubs+yORyHI4AAAggggAACCCCAAAIIaKnAjz/+OMHX13f+jRs35DcRSp+SJUuKrl273jMzMxs6cuTILVq6NMpGQHECBFjZaMm6detqnTlz5vSyZcsMnz37PauqWLGitEmfqFevXrVx48ZdzcZwHIoAAggggAACCCCAAAIIIKDFAmvWrHHbtGnTooSEBPHuN6KRkZG8mXv//v2jpk+f3kWLl0fpCChKgADrA9uRmZmpN2PGjE2xsbHdTpw4kfWWicqVK8uPETZs2LDaiBEjCLA+0JPDEEAAAQQQQAABBBBAAAFdEJg+ffquNWvWtJbuwsrMzJSXJIVYAwYMOGJhYdHR2dn5iS6skzUgoGkBAqwP7IAUYNnZ2SXs3LmzdUpKStYfpjp16oju3bsfq1mzZnv+MH0gJochgAACCCCAAAIIIIAAAjoiMG/ePOuAgICwc+fO5U9LS5NXJe2FZWtrK9q2bes2duzYxTqyVJaBgEYFCLA+kN/b29sjNDT0u127dmU922xoaCg/PtilS5euw4cPj/zAoTgMAQQQQAABBBBAAAEEEEBARwRWr15tun///ri4uLhi165dk292kF741bBhQ9GtW7fE77//3kRHlsoyENCoAAHWB/CHh4e33blzZ1x0dLS4evX/PyX4+eefCwcHBzFnzhwcP8CRQxBAAAEEEEAAAQQQQAABXRRYsmTJlfXr139+6NAhkZGRIQdYZcqUEb179xZLlizh96IuNp01qV2AL9IHkM+fP39wUFCQ75kzZ8SrV6+yzujSpcvzDh06THdzc/v5A4bhEAQQQAABBBBAAAEEEEAAAR0UCAgIsAgPD98XGRkp3j1GKO2DJe2X3Ldv3wb29va/6OCyWRICahUgwPoXbj8/v/wXLlw44+fnV/3u3btZe18ZGBiIIUOGRNStW7ePm5vbG7V2jckQQAABBBBAAAEEEEAAAQQUJTBo0KDkkJCQWi9fvsx6jLBJkybC2dn5SPny5Tva2dmxmbuiOkYx2iZAgPUvHVuzZs3giIgI39jYWPHixQv56AIFCohatWoJOzu7xTNmzHDTtqZTLwIIIIAAAggggAACCCCAQO4KjBo1KnzHjh120rYzb9++lQevWLGisLKyetW0aVOr0aNHH8zdGRkNgbwlQID1L/1euHDhTF9f36kXLlzI+iNUoUIF0a9fv0MNGzYc5uTkxK2gees7w2oRQAABBBBAAAEEEEAAgf8RWLJkSZejR48Gh4aGFpDeXC99pJsfvvrqK9GzZ8+x3377rRdsCCDw8QIEWP9i9+23325btmxZp8ePH8u3gUqvQ61bt670+GCTsWPHHv94es5EAAEEEEAAAQQQQAABBBDQJQEPD4/5K1asmHD79u2szdxLlSolBgwYcLNx48btHR0dk3VpvawFAXUKEGD9g/ayZcsGHjhwYE14eLiQnmN+l6BLzzHXrl27mI+Pz1N1Nou5EEAAAQQQQAABBBBAAAEElCuwaNGiURs2bFiSlJSU9RuyUKFComXLlqJLly6eY8aM+Ua51VMZAsoWIMD6m/54eXkZ3759Ozw2NtZa+uOTmpoqH1mpUiXRoUOHlCpVqlRQqVTPlN1eqkMAAQQQQAABBBBAAAEEEFCXQEhIiFVCQkJoeHh4sTt37sjTSi8AK1OmjLSZ+4FZs2ZZqKsW5kFA1wQIsP6mo8HBwQU2b94cHxsba/7o0SORnp4uH2lhYSEl51PfvHkzV6VSZejaBcF6EEAAAQQQQAABBBBAAAEEPl5g+vTpQyMiInzOnj0r0tLS5IEMDQ1Fjx497nfq1GmMi4tL0MePzpkI5F0BAqy/6f3cuXOLxMXFHd+5c2fNjIzfcyopOe/Tp48UYJVzdHS8m3cvG1aOAAIIIIAAAggggAACCCDwVwJLlixptn379u2HDh0q9vDhQ3kvZT09PVGzZk3RrVu36/Pnz6+KHAIIZF+AAOtvzLy9vQMDAgIc9+/fn3VE0aJFhaOjo/D29sYt+9caZyCAAAIIIIAAAggggAACOi8QHBxc7ty5c/u3bNlSPTExMetpHmNjY2FjYyPCw8P5PanzVwEL/BQCfHH+QjU4OLjwuXPnngcFBQnpts93H+ntg05OTmLKlCm4fYqrkTERQAABBBBAAAEEEEAAAR0QWLdu3Rc7duw4HhYW9tnr16+z7sIyMTGRflNGFi1atN/gwYOf68BSWQICahMgiPkL6qCgoHaxsbGxO3bsEDdu3Mg6omPHjqJ79+6rR4wYMVhtHWIiBBBAAAEEEEAAAQQQQAABrRNwd3ffFB0d3f3XX38Vb9++lesvX768sLS0TGvVqlX34cOHR2vdoigYAQ0KEGD9Bb6vr69NSEjI1sOHD4snT55kHTFgwIDHHTt2bN+vX7/jGuwZUyOAAAIIIIAAAggggAACCChcYMGCBU6HDh3yjoqKKvzy5Uu5Wukxwho1agg7O7tRM2fOXKbwJVAeAooSIMD6i3Z4enrarF27duuZM2ey3hohbbrn6uoaXK5cub68fVBR1zDFIIAAAggggAACCCCAAAKKE1ixYkW+W7durV62bJnTgwcPsh4jLFGihPQY4f3mzZu3dnBwOKe4wikIAYUKEGD9RWPmzJljs3r16q0XL16U/8hIHynAcnR09AgMDJyh0F5SFgIIIIAAAggggAACCCCAgIIEFi9ePDg0NNT3xIkT4vnz37e8yp8/vzAzMxO9evXaNHbs2B4KKpdSEFC0AAHWX7Tn+++/91i1atV3169fl//V0NBQFClSRNjb23usWLGCAEvRlzTFIYAAAggggAACCCCAAALKEAgODq54/PjxNSEhIe2kvbCkj4GBgShZsqTo27fvlaZNmzbu16/fY2VUSxUIKFuAAOtP/fH39y9z5syZ06tXry59//59+V8LFiwovvzyS9GtWzeP77//ngBL2dc01SGAAAIIIIAAAggggAACihGYOXNmg/Dw8LjExMRS6enpcl3STRLW1tav27RpM/ibb75Zr5hiKQQBBQsQYP2pOSqVqtK1a9dubNq0KWsD92LFiolWrVqJDh06eIwePZoAS8EXNKUhgAACCCCAAAIIIIAAAkoS+OGHH6rt3r077ujRo9WePXsmb1Ojr68v6tatK23mftvDw6OCkuqlFgSUKkCA9afO+Pr6LgwODh63b98+8e5NEWXLlhW9e/fObNSo0ddDhgzZr9RmUhcCCCCAAAIIIIAAAggggICyBKTHCE+cOBG1Y8eOhr/88ot4+/atvMdy9erVRc+ePcW8efP4Xa6sllGNQgX4ovypMfPmzVvo7+8/7sKFCyI1NVX+V+kPy4gRI0LLli07aMCAASkK7SVlIYAAAggggAACCCCAAAIIKFDA29vbJDEx8URkZKS4e/eufBeWiYmJsLGxOerh4dFUgSVTEgKKEyDA+lNLJk+evGrVqlUu77/mtGHDhmLmzJnmNjY2hxXXQQpCAAEEEEAAAQQQQAABBBBQvMCiRYvmJyQkDL506VJxaS8sc3PzB82aNRsyfPjwCMUXT4EIKECAAOu9Jqxbt870yJEjx9esWZP1ilMjIyP5Faf79+/HSgEXLCUggAACCCCAAAIIIIAAAtoo4O/vX+jhw4c1MzMzTaT6jY2ND40aNeqcNq6FmhHQhAChzH/VVSqVfpEiRfxjY2P77dq1S7x+/Vr+F+n1pm3bthUhISFYaeIKZU4EEEAAAQQQQAABBBBAAAEEEMjzAoQy/70EgoODSxw8eDBu+/btjS5evChvrCd9atWqJbp37/5g7ty5pfP81QIAAggggAACCCCAAAIIIIAAAgggoAEBAqz/ovv6+paIjY2Ni4uLa/To0SORkZEh/0vr1q2lNxAuHT169GgN9IcpEUAAAQQQQAABBBBAAAEEEEAAgTwvQID1XoAVExMjB1iPHz/OCrB69er12tbW9ouBAwf+luevFgAQQAABBBBAAAEEEEAAAQQQQAABDQgQYP1LgOXo6Jiyfv36whroDVMigAACCCCAAAIIIIAAAggggAACCAghCLAIsPgiIIAAAggggAACCCCAAAIIIIAAAooWIMAiwFL0BUpxCCCAAAIIIIAAAggggAACCCCAAAEWARbfAgQQQAABBBBAAAEEEEAAAQQQQEDRAgRYBFiKvkApDgEEEEAAAQQQQAABBBBAAAEEECDAIsDiW4AAAggggAACCCCAAAIIIIAAAggoWoAAiwBL0RcoxSGAAAIIIIAAAggggAACCCCAAAIEWARYfAsQQAABBBBAAAEEEEAAAQQQQAABRQsQYBFgKfoCpTgEEEAAAQQQQAABBBBAAAEEEECAAIsAi28BAggggAACCCCAAAIIIIAAAgggoGgBAiwCLEVfoBSHAAIIIIAAAggggAACCCCAAAIIEGARYPEtQAABBBBAAAEEEEAAAQQQQAABBBQtQIBFgKXoC5TiEEAAAQQQQAABBBBAAAEEhAgODm585cqVtSkpKaJ48eJdxo0bdxUXBPKSAAEWAVZeut5ZKwIIIIAAAggggAACCCCgdQLe3t4mV69eXRUTE2Py/PlzYWlpebRhw4ZTRo8eHad1i6FgBD5SgACLAOsjLx1OQwABBBBAAAEEEEAAAQQQUIfAhAkTonft2tX5zJkzIi0tTRQpUkT06tXrRYsWLeo7OztzJ5Y6msAcGhcgwHovwIqNjY2Li4tr9OjRI5GRkSH/i6OjY8r69esLa7xTFIAAAggggAACCCCAAAIIIJAnBdzd3eN27tzZNjk5Wbx9+1bo6emJGjVqCCsrq19r167dwt3d/W6ehGHReUqAAOu9AGvfvn1xsbGxje7cuSPS09MJsPLUV4HFIoAAAggggAACCCCAAALKFJg9e/a6mJgYp/3794vU1FS5SCMjI1GrVi1hZ2e3zsTEZLqdnR13YimzfVSVSwIEWP+FDAgI+Ozs2bPRMTExFklJSfIfhYIFC4q+ffumrFq1ijuwcumCYxgEEEAAAQQQQAABBBBAAIHsCaxdu7bdsWPHooOCgvI9ePAg64mhokWLCnNzc9G1a9d5o0aN+k/2RuVoBLRLgADrvX75+fl1OnXq1LatW7cKaWO8qlWrCmtr60Mqlaq5drWVahFAAAEEEEAAAQQQQAABBHRJYMWKFSvDw8OH7Nu3T0hvIpQ++vr64rPPPhMuLi476tev393Z2fm1Lq2ZtSDwvgAB1p+uh7CwMPOrV69aP3/+vGexYsV2uru7j+WSQQABBBBAAAEEEEAAAQQQQEDTAtOmTZu9YcOG/1y/fl1P2gtL+hgaGoqmTZuKDh06hDdu3Li/ra3tS03XyfwIfAoBAqy/Ud2+fXuJTp06PfoU6IyJAAIIIIAAAggggAACCCCAQHYFVq1aZblv377ouLi4/Ddu3BCZmZnyhu6FChUSlpaWon379pPLlSvnZW9v/yq7Y3M8AkoXIMBSeoeoDwEEEEAAAQQQQAABBBBAAIH/CgQEBCzasGGD2+7du+VHCd+FWJUrVxatWrV60qRJE3t3d/dYwBDQNQECLF3rKOtBAAEEEEAAAQQQQAABBBDQaYEpU6Yc3759u+np06dFWlqavNZ8+fKJSpUqiR49ejw2MTFxc3JyCtBpBBaX5wQIsPJcy1kwAggggAACCCCAAAIIIICANgv4+/uXSUxMPLp27doqjx8/znorobGxsahSpYqwsbE5Xbt2bRtXV9fr2rxOakfgfQECLK4HBBBAAAEEEEAAAQQQQAABBLRMYPny5YO3bdvmGx8fL54/f55VvYGBgWjcuLFo165d6KxZs3pr2bIoF4G/FSDA4uJAAAEEEEAAAQQQQAABBBBAQAsFVCqVatu2bdPPnj2r936IZWRkJL2VUFhYWHSsUaPGLnt7+1QtXB4lI/AHAQIsLggEEEAAAQQQQAABBBBAAAEEtFBg9erVlW/cuLExJiamxcmTJ8WrV6+yNnUvVqyYMDExSbWysnKeNm3aei1cHiUjQIDFNYAAAggggAACCCCAAAIIIICArghMmzbtRGxsrEliYqJITf39Zis9PT0hhVgtW7YUtra2q27dujVMpVJl6MqaWUfeE+AOrLzXc1aMAAIIIIAAAggggAACCCCgQwJ+fn7m58+fD4+MjCx/+fJl8fr1a3l1+vr6okiRIsLS0lJ6M+GUGTNmrNChZbOUPCZAgJXHGs5yEUAAAQQQQAABBBBAAAEEdE9g48aNpocPHz64ZcsWo5s3b4o3b97Ii5TuxCpatKjo2LGjaN26dat79+7t504s3et/XlgRAVZe6DJrRAABBBBAAAEEEEAAAQQQ0HmBJUuWtD9x4kTg3r17S1+9elWkpaXJa5beTFiuXDlhbm6e0rJly6Hjxo3boPMYLFDnBAiwdK6lLAgBBBBAAAEEEEAAAQQQQCCvCkh3YiUkJByLjIzUu3PnjsjI+H3bq3z58onSpUtL+2GJpk2bthg8ePDBvGrEurVTgABLO/tG1QgggAACCCCAAAIIIIAAAgj8pcDcuXP7JSYmLti5c2fZR48eifT09KwQq0qVKsLGxuZZnTp1BgwfPjwCQgS0RYAAS1s6RZ0IIIAAAggggAACCCCAAAIIfKDAsmXLhsTExKzcu3evePz4cdadWNLjhLVq1RJdu3ZNnzNnjuEHDsdhCGhcgABL4y2gAAQQQAABBBBAAAEEEEAAAQRyX8DT03NIZGTk/MTExGJSiJWZmSlPUqBAATnEsra2fla1alVLV1fXE7k/OyMikLsCBFj/4unn55c/X758CwoWLLihR48e+3KXn9EQQAABBBBAAAEEEEAAAQQQ+DQCKpVKv3z58i6xsbErt27dKr+Z8F2IVahQIfH5559Ld2L9Mnv27AafpgJGRSD3BAiw/sZS+qJnZGT0u3///ozbt2/XKFy4sKhfv/7yV69ejeKVo7l3ATISAggggAACCCCAAAIIIIDApxWYM2fO93v27Bmze/fu4i9fvswKsYyNjYWpqano1KnTqerVq/fq37//pU9bCaMj8PECBFh/Y7dw4cICu3btik1ISLB49eqVfFS3bt3Sra2tvx08ePCcjyfnTAQQQAABBBBAAAEEEEAAAQTUJyDdoPHZZ5/NW79+/fhz586JlJSUrMmNjIxE8+bNpY3dEydNmmSivqqYCYHsCRBg/UOAFR0dHR8fH2/+7rWjFStWFA4ODsLExKSok5PTs+xRczQCCCCAAAIIIIAAAggggAACmhEIDg6uePbs2fWbNm1qlZycLD9OKH309PSE9MSRdCdWly5dwqpWrTrI3t7+hWaqZFYE/l6AAOsfAqzIyMj4hIQE83eHGBoaio4dO4oOHTq0HTt2bAIXFgIIIIAAAggggAACCCCAAALaIuDt7V3m119/3RwfH988MTFRpKenZ5VerFgx6WaN9M6dO/eZNGlSmLasiTrzjgAB1t/0Ojg4uEBERER8bGys+YMHD7JeOVq/fn1pk7tDX3zxhaWzs/PrvHOpsFIEEEAAAQQQQAABBBBAAAFtFwgODm565MiRqOjo6FLnz5/PCrH09fVFkSJFpLuwzlhYWLiPHDlyp7avlfp1S4AA62/6eezYsXxbt24Njo2N7X7s2LGs2ytLlSol2rRpI2rUqFFs7ty5T3XrcmA1CCCAAAIIIIAAAggggAACui7g7e3d9PTp01FRUVGlbt++nfV7VwqxihYtKm2dk2JmZmbl4uJyWNctWJ/2CBBg/UOv1q5dO3rXrl2Lg4ODsza5kza4a9iwoXB0dKwxbty4X7Wn1VSKAAIIIIAAAggggAACCCCAwO8C3t7edqdOnfKNjY0tce3aNfH27Vv5vxsYGIhy5coJS0vL+1ZWVlbOzs6/YIaAEgQIsP6hC9HR0cZHjx494OnpafrkyRP5SGmDu+rVq4uhQ4d+N3ny5B+V0ERqQAABBBBAAAEEEEAAAQQQQCC7AvPnz2+WlJQUuWfPntI3btzI2jpHCrEqVaokWrZseadNmzZjhg4dGprdsTkegdwWIMD6F9E5c+bMXLFixdTr169nPRtctmxZMXDgQFG/fn2L/v37H8jtpjAeAggggAACCCCAAAIIIIAAAp9aYMWKFflev349+eTJkx47d+4Ut27dygqxpJeYFS9eXNoT61zjxo2Hjx49es+nrofxEfgnAQKsf7k+/Pz8Zvr7+089dOiQePXqlXz0Z599JszNzYW1tfV8d3f3SVxiCCCAAAIIIIAAAggggAACCGirwOLFiycdOHBgrhRiPX78+A+PE5YsWVL07NnzWcOGDTsNHz78oLaukbq1X4AA6196qFKpCt69e/e3oKCgYo8ePZKPzpcvn5DuwurTp8/iBQsWuGn/ZcAKEEAAAQQQQAABBBBAAAEE8qqASqUyLFGixI9xcXH/OXz4sLh3794fHieU9sRq1arVg+bNm3dwc3M7mVedWLdmBQiw/sU/MzNTb+bMmdN8fHx+kB4jlD7SPljSZu79+vVbvHr1agIszV7DzI4AAggggAACCCCAAAIIIJBDgeDg4AJ37txx271795w9e/aIhw8f/iHEKl++vGjWrNn1du3aTRwxYkRwDqfjdASyLUCA9QFkc+fOtQoICNh57ty5rFsppdNcXFzONm/evOPQoUNvfsAwHIIAAggggAACCCCAAAIIIICAYgVUKpW+oaHhzKSkpMl79+6V78RKT0+X65U2dpe20+nSpcv5Bg0aOE+cOJHHCRXbSd0sjADrA/q6fPlyq7CwsJ1HjhwRT58+zTqjffv2omvXrgFjxozp/wHDcAgCCCCAAAIIIIAAAggggAACihaIjIws+Ouvv47dv3//rISEBPHkyRORlpaWFWIVK1ZM+h38pFmzZv2qVKkSZ21t/UbRC6I4nREgwPqAVgYHBzc9ePDg4cjISHHp0qWsM2rWrCn69u0rPDw8cPwARw5BAAEEEEAAAQQQQAABBBDQDoElS5bMiomJmXzkyBG99/fE0tfXF6VKlRJmZmaiZcuW0ytVquTbv3//29qxKqrUZgGClw/snq+v72k/P78NVZ64AAAgAElEQVS6+/fvzzqjcOHCwt7eXqxevRrHD3TkMAQQQAABBBBAAAEEEEAAAeULSHdiXbly5ZsDBw78sHv3bnH37t2sPbGkfaGLFi0qGjZsKNq1a3f4888/tyPEUn5Ptb1CgpcP7KD0LPD/PQf8OiIiIt+7Z4ClUzt16iTdhdV74MCBoR84FIchgAACCCCAAAIIIIAAAgggoBUCc+fOVZ04cWL8wYMHC9+6desP+0Lny5dPfP3119Lv4tOff/55W3t7+/tasSiK1EoBAqwPbJv0NkIHB4fD0dHRZikpKVnJs4mJiejRo0d4o0aN+tva2r78wOE4DAEEEEAAAQQQQAABBBBAAAGtEFi6dKnr0aNHl+/cuVPe2D01NVWuW7oTq0CBAvLjhB06dIirVKlSn4EDBz7UikVRpNYJEGB9YMukAMvd3T1++/btbX799desTewqV64sbWAn6tWrV23EiBFXP3A4DkMAAQQQQAABBBBAAAEEEEBAawQ8PT1tTp48GbZ7927jmzdvZr2dUAqxChYsKExNTZ9YW1u3mzJlynGtWRSFapUAAVY22vXTTz95x8fHD5fexPDq1Sv5zCJFiohmzZqJJk2aVJszZw4BVjY8ORQBBBBAAAEEEEAAAQQQQEA7BPz9/Qs9efKk5/Hjx+fu27ev3JUrV7KeTJJWULVqVdG7d+8DderUcXBxcbmhHauiSm0SIMDKRrc2bNhQ+eTJk8nLly8v+OzZM/lMAwMDUbt2bTnAWrNmDQFWNjw5FAEEEEAAAQQQQAABBBBAQLsEfH19px86dGhKXFxcfulOrLS0NHkBZcuWFXZ2dqJNmzZODg4Ogdq1KqrVBgECrGx2ad68ed4LFiwYLj33m5mZKZ9dvXp1MWjQIOfp06evyeZwHI4AAggggAACCCCAAAIIIICAVgksX758eGJiorf0dsL79+/Lv42rVasm7O3tb9auXdvE1tb2gVYtiGK1QoAAK5ttWrRo0XfLly/3uHTpUlbSXLJkSeHg4CDMzc379O/fPzibQ3I4AggggAACCCCAAAIIIIAAAlolsGbNmrp37tyJTkpKqpSRkaFft27d32rWrNnewcHhnFYthGK1RoAAK5utCgwM7BcaGhoQFxcn3j1GKL11oU6dOqJXr14BU6ZM6Z/NITkcAQQQQAABBBBAAAEEEEAAAa0TCAsLK3/79u3OBgYGpYoUKbLVycnprNYtgoK1RoAA6yNa9d1332338/PrKD3vK32kfbA+++wz0a9fv4AlS5YQYH2EKacggAACCCCAAAIIIIAAAggggAACfydAgPUR18bMmTM7BwQEbE5OTjZ6tw+Wvr6+GDhw4E5zc/Nurq6uLz9iWE5BAAEEEEAAAQQQQAABBBBAAAEEEPgLAQKsj7gsFixY0CIgICD+zJkzxqmpqVkjODg4ZLZv337Q4MGD/T9iWE5BAAEEEEAAAQQQQAABBBBAAAEEECDAyp1rYN26dS2ioqLid+/ebXznzp2stxGamZlJb124MXHixCq5MxOjIIAAAggggAACCCCAAAIIIIAAAghwB9ZHXAPBwcEGFy9efBgSElL01KlTWQFW+fLlRe/evYWXlxeuH+HKKQgggAACCCCAAAIIIIAAAggggMBfCRC0fOR1sWrVqqEhISE+MTExIiMjQx7FyMhI2NraSiFWLQcHhwsfOTSnIYAAAggggAACCCCAAAIIIIAAAgi8J0CAlYPLwcHB4XJISEj19PR0eRQ9PT3RvHlz8X97Yc1wc3PzyMHQnIoAAggggAACCCCAAAIIIIAAAggg8F8BAqwcXArOzs7R27dv73zv3j3xLsSqVauW6NGjx5UGDRq07tu3740cDM+pCCCAAAIIIIAAAggggAACCCCAAALSTUMofLyAh4dHdHR0dOcTJ06Id28jLFOmjGjbtm2GmZmZ6fjx4099/OiciQACCCCAAAIIIIAAAggggAACCCAgCRBg5eA6WLhwYbfExMSg8PBw4xcvXsgj5c+fX9SrV096lNB08eLFJ3MwPKcigAACCCCAAAIIIIAAAggggAACCBBg5ewaSEhIMDx48GDkggULOj18+FAeTNoHq3r16qJNmzamq1atIsDKGTFnI4AAAggggAACCCCAAAIIIIAAAtyBldNrYMGCBROWLVs2/9q1a+Lt27fycNJjhC4uLjurVavWy9XV9WlO5+B8BBBAAAEEEEAAAQQQQAABBBBAIC8L8AhhDrvv6+s7wd/ff/7x48dFSkqKPFqRIkVEu3bthI2Nje+QIUOG5nAKTkcAAQQQQAABBBBAAAEEEEAAAQTytAABVg7bHxYWZhcdHR0eEREhHjx4II9mZGQkqlatKvr27Rvl4eHRJYdTcDoCCCCAAAIIIIAAAggggAACOi8QGRlZ8Nq1a5V+++03YWxsLCpUqCCKFSt22d7ePl3nF88C/1WAAOtfif79gO+//36Pn5/f11evXpUPlvbBkr5sAwYMiPLx8SHA+ndCjkAAAQQQQAABBBBAAAEEEMjDApmZmXqLFi368eDBgwOTkpKEoaGhaNSokWjVqtW8oUOHeuVhGpb+XwECrFy4FGbOnGm/cePGwDNnzhhmZGRkjdi/f//fLCwsLIcPH34xF6ZhCAQQQAABBBBAAAEEEEAAAQR0UmDFihX5kpKSbkRHR5eV9piWbgypXLmyaNu2rahdu/bYlJSUZSqV6veNp/nkSQECrFxou6enp2lERETc8ePHi7148UJkZmbKo3bs2FF06NBh5vjx47/NhWkYAgEEEEAAAQQQQAABBBBAAAGdFFCpVEaXL19+Ex0dLR49eiT/rpbuwipfvrxo3rz5c0tLy29HjBjBnVg62f0PWxQB1oc5/eNRGzdurJeQkLA7Nja2hPQY4bu7sGrXri369OkjVCoVzrngzBAIIIAAAggggAACCCCAAAK6KaBSqQyfPHlyPDY2tkFycrJIT/992ysDAwNRtmxZYWFhIf1vbMOGDZf9X5jFnVi6eRn846oIVnKh6dHR0cYXL168EBQUVOXw4cNZXzTpbYTdunUTAQEBOOeCM0MggAACCCCAAAIIIIAAAgjorsDixYvrnzt37tT69ev1nj59mvV0U758+USJEiVEy5Ytn3/99dffuru7cyeW7l4Gf7sygpVcanpUVFT9devWHQkNDc3/9u3vYbC+vr6wsbERkZGROOeSM8MggAACCCCAAAIIIIAAAgjorsCiRYsaHzt2bPvWrVtLPXv27A93YklvJbSyshJ169Yd26RJE+7E0t3L4C9XRrCSiw13cnKKiYiIaP/+PlhSgBUVFYVzLjozFAIIIIAAAggggAACCCCAgO4KzJ49u0NSUlLknj17jG7fvp21TY/0OKEUYpmbmz/7+uuvv3Nzc+NOLN29DP5nZQQrudhsNzc337i4OOcLFy7op6WlyW9NkAKsrVu34pyLzgyFAAIIIIAAAggggAACCCCg2wKbNm1qHBAQELN79+4S0qbu7/aalkKs0qVLy3titW7demz9+vW5E0u3L4Ws1RGs5GKj582bV+7u3bvr161bZyl9wQoWLChsbW1FYGAgzrnozFAIIIAAAggggAACCCCAAAK6LzBv3rwOycnJmzdt2lTgyZMnf9gTq2TJktKeWM/Mzc2/nTBhwmLd12CFBCu5fA1s3LixYVJSUsTFixdLFi9e/GWdOnX83N3dJ+fyNAyHAAIIIIAAAggggAACCCCAgM4LLFu2rPHRo0fjtmzZUlQKsd5/O2H58uVF27ZthampKW8n1PkrQQgCrE/QZD8/v/xPnjwxL1iw4A1XV9fLn2AKhkQAAQQQQAABBBBAAAEEEEAgTwhId2IdP3489MCBA0Vu3br1PyFW06ZNn1tYWHw7fvx49sTS4SuCAEuHm8vSEEAAAQQQQAABBBBAAAEEENAFga1btzZet27drp07dxZ+/Phx1p5Y+vr6olSpUtLjhNIbCt0NDQ2Xubq6punCmlnDHwUIsLgiEEAAAQQQQAABBBBAAAEEEEBA8QJz5szpeP78+Y2bN28u9vTp06wQK1++fKJEiRLCzMwstUWLFsumTp06TvGLocBsCxBgZZuMExBAAAEEEEAAAQQQQAABBBBAQBMC0p5YJ0+e3Ld58+b80svT3u2JJd2JVbx4cdGqVSvpTqzVDx48cFWpVG81USNzfhoBAqxP48qoCCCAAAIIIIAAAggggAACCCDwCQQWLlzY4dChQxsOHjxY4v09saQQS7oTy8TEJLV9+/ZLJ02a9M0nmJ4hNSRAgKUheKZFAAEEEEAAAQQQQAABBBBAAIGPF3Byckrbtm2b4ft7Yunp6YkiRYpIbyYUffv2XXv79m0XlUqV8fGzcKZSBAiwlNIJ6kAAAQQQQAABBBBAAAEEEEAAgQ8W+PHHH1teu3ZtY1RUVMX79++LtLTf9243MDAQRYsWFc2aNUszNzdfMmPGDO7E+mBV5R5IgKXc3lAZAggggAACCCCAAAIIIIAAAgj8g8DKlSsbJycnHwsNDRW3b98Wqamp8tHS44TFihWT305obW0dMHz48P5AarcAAZZ294/qEUAAAQQQQAABBBBAAAEEEMjTAh4eHvUvXbq0c//+/WVu3LjxhxBL2ti9YcOGae3atVs8derU8XkaSssXT4Cl5Q2kfAQQQAABBBBAAAEEEEAAAQTyuICel5eXUXJy8uvNmzeLu3fv/uHthIULF5Y2ds/s16/f+mHDhjnlcSutXT4Blta2jsIRQAABBBBAAAEEEEAAAQQQQOCdwMKFC79OTk5et3Xr1qp/3hNLepywWbNmb83MzBZ9//33E1DTPgECLO3rGRUjgAACCCCAAAIIIIAAAggggMBfCKxcudL8/PnzB8PCwsRvv/32P3titWjRIr1z584bR40axZ1YWnYFEWBpWcMoFwEEEEAAAQQQQAABBBBAAAEE/l5g9uzZXyQnJ+/dv39/uWvXrmW9nfDdxu4NGjRIb9++/c/Tpk3jTiwtupAIsLSoWZSKAAIIIIAAAggggAACCCCAAAL/LJCZmak3e/bsUrdv3763adMm+e2E6enp8klSiFWoUCFhamr6tm/fvkHDhw/nTiwtuaAIsLSkUZSJAAIIIIAAAggggAACCCCAAAIfLuDl5fX1uXPn1m7ZsqWatCdWampqVogl7YnVvHnzjMaNG3t6eHhwJ9aHs2rsSAIsNdIvWrSo5ps3bza8evWqWOnSpaNHjhzppsbpmQoBBBBAAAEEEEAAAQQQQACBPCWwePFii2vXru0LDw8XN2/e/J8Qq1mzZmmdOnUKHjt2LHdiKfzKIMBSU4NWrlxZ7cKFC/GbN2/+/OHDh6Jx48aia9euUWPGjOmiphKYBgEEEEAAAQQQQAABBBBAAIE8J/Djjz9WPHPmTPzRo0e/fH9PLD09PSHdiVW/fn3RsWPHBWlpaZNUKlVGngPSkgUTYKmhUcHBwRVPnDgRFhcX1ywpKUlOfAsWLCgGDRp01crKqkmPHj0eqqEMpkAAAQQQQAABBBBAAAEEEEAgzwmoVCr9fPnylb1///4t6e2Et27d+p89sUxMTNIcHBzWjxw5clCeA9KSBRNgqaFR/v7+1fbt2xcXHx9f7cqVK/IXRUp6ra2t37Rv336Mu7v7SjWUwRQIIIAAAggggAACCCCAAAII5FkBLy+vpklJScuio6MbP3jw4K/2xBImJiaeDRo0mGhvb//7ru98FCNAgKWGVgQHB1c7fPhw3Pbt26slJydnBVh169YVdnZ2j3/44YcSaiiDKRBAAAEEEEAAAQQQQAABBBDI0wLSxu6nT59eHB8f3/D69et/CLGKFi0qmjZtmtq+ffuACRMmDM7TUApcPAGWmpry008/xUVGRrbdv3+/ePv2rTxryZIlpbuwxLp16+iDmvrANAgggAACCCCAAAIIIIAAAnlbYM6cOUXPnDlz8sCBA9WkECstLU0GkZ6UkkKsevXqic6dO3uWKlXqP66urr//Ix+NCxCcqKkFAQEBdpGRkeGbN28Wb968kWc1NDQUbdq0ETt37qQPauoD0yCAAAIIIIAAAggggAACCORtgczMTL05c+ZUvX///pWQkBDx22+/iYyM3/du19fXF4ULFxaNGjVK7d69+9pvvvlmWN7WUs7qCU7U2As3N7fbfn5+5V68eCEyMzPlmaW3EY4cOXL64MGDf1BjKUyFAAIIIIAAAggggAACCCCAQJ4W8PPzMzt48ODSyMhIs4cPH/7Pnljm5ubC1NR0kaGhofR2wtQ8jaWAxRNgqbEJbm5uqyIiIlxu3ryZ9caDL7/8UgwYMODSl19+2dne3v6SGsthKgQQQAABBBBAAAEEEEAAAQTytMDChQu/Tk5OXpKQkNDg2rVr/7MnVuPGjd9YWlr6TZs2bUSehlLA4gmw1NiEefPmrYqMjHQ5cuRI1mOE5cuXF506dUq1sLDoM2TIkM1qLIepEEAAAQQQQAABBBBAAAEEEMjzAiqVSv/q1avX9+zZU/HGjRt/2BOrSJEion79+qJLly5eNWrUkN5OyJ1YGrpiCLDUCO/j4+Nw4MCBDaGhoUJ6jFD6SF8G6W2E1tbWQ6dPn+6rxnKYCgEEEEAAAQQQQAABBBBAAAEEhBBz586tdffu3V9CQ0Pz3bp1K+vla+/2xDIxMXnTqVOnVVOmTBkFmGYECLDU7D516tRAHx8fxwcPHsgzSxu5ly1bVnTv3n3o0qVLCbDU3A+mQwABBBBAAAEEEEAAAQQQQEAS2LBhQ5M9e/Ys27Jli9n9+/ezHieU3k5YvHhx0bJlS9G8efNF5ubmEywtLd+ipl4BAiz1eovvvvvO0c/PL1B6y8G7jdylu7BcXFyWL1q0iGdq1dwPpkMAAQQQQAABBBBAAAEEEEDgnYCnp6fF6dOnl+7bt6/hlStX/rAnVsmSJUWzZs2eWVtbfzty5MjFqKlXgABLvd5izpw5jmvXrg28fPly1hehYMGCYtiwYaJ169bF7ezsnqi5JKZDAAEEEEAAAQQQQAABBBBAAIH3BIYMGfIgPj6+xPXr1/Xevv39ZivpTqyKFStKWwBJbydsd+fOnQSVSpUBnHoECLDU45w1i7+/v2NkZGRgQkKCePcYobGxsfwF6Nq16wpnZ+fhai6J6RBAAAEEEEAAAQQQQAABBBBA4D2BRYsW1fv111/3btq0qZj0BFV6err8r/ny5RMVKlQQffr0uV+9evU2w4cPPwucegQIsNTj/IdZZsyY8SYwMNDo0qVL8n+X9sH64osvxMCBA+9OmTKlnAZKYkoEEEAAAQQQQAABBBBAAAEEEHhPQNoTKyEhwTs4OLjJs2fPREbG7zdbSTehNG7cWNja2q6eMmXKYNDUI0CApR7nP8zi6enpvmHDBs8jR47I/126DbFQoULSPlh3vby8CLA00BOmRAABBBBAAAEEEEAAAQQQQODPArNnz+69a9euwKNHj+Z79OhR1m94aT8sOzu71StXriTAUtNlQ4ClJuj3p1GpVOW2bNkSf/LkydrvNnKXXs05cODAewMGDKjI2ww00BSmRAABBBBAAAEEEEAAAQQQQOAvBJYsWeK3cePGQSdOnBCvXr2Sb0KRAqzu3bsTYKnxiiHAUiP2u6nmzZtXLioqKv7IkSO1X79+Lb+NUPoCdOvWLa1z5879XF1dQzRQFlMigAACCCCAAAIIIIAAAggggMCfBMLCwsonJib6Hzx4sN2pU6fkbYBatGghzMzMhk2ePHklYOoRIMBSj/MfZvHz8ysXHx8fv3v37trvNoOTAqyWLVtKIda2CRMmWGugLKZEAAEEEEAAAQQQQAABBBBAAIG/EAgPDy9z//79fr/99ltBAwMDUbVq1UdlypQJtLa2fgaYegQIsNTj/IdZgoODS5w6dWrHjh07miQmJgrplZxSgFW7dm3RpUuXy/PmzftCA2UxJQIIIIAAAggggAACCCCAAAIIIKBIAQIsDbVl0aJFqtjY2BkxMTEiNTVVDrDKly8vbGxsxMqVK+mLhvrCtAgggAACCCCAAAIIIIAAAgggoDwBghIN9mTkyJFH16xZ0+Tly5dyFQUKFBBt2rQR27Ztoy8a7AtTI4AAAggggAACCCCAAAIIIICAsgQISjTYDxcXlyVBQUGjUlJS5CqkNxFK+2Dt2bOHvmiwL0yNAAIIIIAAAggggAACCCCAAALKEiAo0WA/RowYsSQ4OHjU48ePRUZGhlyJFGDt27ePvmiwL0yNAAIIIIAAAggggAACCCCAAALKEiAo0WA/Jk6cuCQ0NHTU9evXRXp6ulxJ8+bNxZQpU5p37dr1kAZLY2oEEEAAAQQQQAABBBBAAAEEEEBAMQIEWBpsxdSpU5eEhYWNunz5svwmQunz1VdfiREjRpyqVKlS5549e97WYHlMjQACCCCAAAIIIIAAAggggAACCChCgABLg22YNWvWkvDw8FFJSUnymwilz+effy4cHBzeNGzYsG3fvn0PaLA8pkYAAQQQQAABBBBAAAEEEEAAAQQUIUCApcE2LFu2bElERMSoPXv2iFevXsmVVKhQQVhbW6eamZnZurq6xmiwPKZGAAEEEEAAAQQQQAABBBBAAAEEFCFAgKXBNixcuLDp8ePHD0dERIgXL17IlZQqVUq0atVKdOzY8RtXV1dPDZbH1AgggAACCCCAAAIIIIAAAggggIAiBAiwNNiGFStWfPXLL7+c8/f3F8+ePZMrKVq0qGjYsKGwtbWdNHHixPkaLI+pEUAAAQQQQAABBBBAAAEEEEAAAUUIEGBpsA3r168ve+zYsT2rV6/+8smTJ3IlBQoUkPfB6tmz56Qff/yRAEuD/WFqBBBAAAEEEEAAAQQQQAABBBBQhgABlgb7EB0dbXz48OHQpUuXdnnw4IFciaGhoShZsqRwdHSc5OnpSYClwf4wNQIIIIAAAggggAACCCCAAAIIKEOAAEvDfVCpVC4+Pj6rbt26lVVJwYIFxcCBAyd5e3sTYGm4P0yPAAIIIIAAAggggAACCCCAAAKaFyDA0nAPvv322x5+fn5hv/32W1Yl0mOE/fv3n+Tj40OApeH+MD0CCCCAAAIIIIAAAggggAACCGhegABLwz2QAqy1a9eG3bx5U2RmZsrVEGBpuClMjwACCCCAAAIIIIAAAggggMAnEAgODjZ48eJF57dv35YpVqzYCXt7+8RPMI1ODkmApeG2zpo1q8e6devCLl++LFJTU+Vq8ufPL4YPHx78888/99FweUyPAAIIIIAAAggggAACCCCAAAK5ILBw4cICGRkZY5KTk8e/ePGiTLly5RJLly79Tc2aNQ/Z29u/yoUpdHoIAiwNt9fLy6tHaGhoWGJionj27JlcjZGRkRg0aNCrzp07D7OzswvQcIlMjwACCCCAAAIIIIAAAggggAACORSYN2/epN27d889duyYePHihfwCt6ZNm4oOHTr0GjZsWFgOh9f50wmwNNxiPz+/Htu2bQvbtWuXuHfvnlxNvnz5RPfu3UWXLl2mDxw48AcNl8j0CCCAAAIIIIAAAggggAACCCCQQ4GpU6d6hYSEjLl+/bp48+aN/Nu/cuXKom/fvjuqVKli6+rqmpbDKXT6dAIsDbc3PDy8R3x8fNiWLVuEdBFLH0NDQ2FpaSl69eoV5Orq6qDhEpkeAQQQQAABBBBAAAEEEEAAAQRyKCAFWKGhoXKA9fr1a3m0IkWKSHdgCVtbW5dBgwb55XAKnT6dAEsB7VWpVJnr168XFy5ckKsxMDAQjRs3Fs7OzqkjRowwVkCJlIAAAggggAACCCCAAAIIIIAAAjkQ8PLymhkTEzN179694unTp/JI0g0s1apVE0OHDj2RP3/+Fm5ubm9yMIVOn0qApYD2Llu27IKPj09NaR8s6aOvry+++OIL4eLikjp58mQCLAX0iBIQQAABBBBAAAEEEEAAAQQQyIlAcHBwucuXLyesXLnyq2vXron09HShp6cnChUqJGxsbKT9sEaPHz9+aU7m0OVzCbAU0N0ff/yxckJCwoW4uLj87wKs8uXLywHWDz/8QIClgB5RAgIIIIAAAggggAACCCCAAAI5FVi1apXlxo0bY44cOWL47i4s6SmsChUqiI4dOx4zMzNr7erq+jKn8+ji+QRYCuiqSqUqtnXr1rhjx46ZvguwSpcuLQYPHpw6a9YsAiwF9IgSEEAAAQQQQAABBBBAAAEEEMipgEqlMnz79u3PsbGxow4fPiwPJ92FJT1K2LJly5e9evVaMGrUqOk5nUcXzyfAUkBXCbAU0ARKQAABBBBAAAEEEEAAAQQQQEBNAsOHD88MDAwUz58/z5qxUqVK0l1Y0v+62NvbR6mpFK2ZhgBLAa2SAqxt27bFHT161DQjI0PeA0u6fVB6hNDDw4M7sBTQI0pAAAEEEEAAAQQQQAABBBBAILcEPD09z4eEhHx58OBBkZmZKQ8r3YVVq1Yt4eTkNHjKlCmrc2suXRmHAEsBnZQCrH379sUdPnzYNCUlRX4LYaNGjcSAAQMejxkzpoQCSqQEBBBAAAEEEEAAAQQQQAABBBDIJYHg4GCD+Pj47WvWrGmXmpoqpJtZpE+pUqVEv3797tSvX998yJAh13JpOp0YhgBLAW308vIyvnfvXvChQ4e6XrlyRRQrVkx69nW/qanpNwMHDjyigBIpAQEEEEAAAQQQQAABBBBAAAEEclHghx9+GBsXF/fziRMnxLNnz+SR8+fPL9/Q0rdvX8+xY8d+k4vTaf1QBFgKaqGnp2fs1atXW5QqVepZ0aJFzdzc3G4qqDxKQQABBBBAAAEEEEAAAQQQQACBXBIICwureuXKleSlS5fmv3r1qvwoobShe/HixcWQIUOONGnS5Gt7e/vUXJpO64chwFJQC6VbCPPnz1+xa9eu1xVUFqUggAACCCCAAAIIIIAAAggggMAnEAgICLBYvnz5vmPHjonXr1/LM+VUR5UAACAASURBVEh3YbVu3Vr638qSJUuOcnV1TfsEU2vdkARYWtcyCkYAAQQQQAABBBBAAAEEEEAAAV0RGDt2bHpERIS+dBeW9JH2xS5TpoywsrI61aZNm7ZDhgx5pCtrzck6CLByose5CCCAAAIIIIAAAggggAACCCCAQA4EFi5cODoqKurnuLg4A2kY6TFC6Y2ELVq0eGFnZzfd3d3dMwfD68ypBFg600oWggACCCCAAAIIIIAAAggggAAC2iaQmZmp5+rq+nz9+vWFUlJS5L2wpE+VKlWEjY1NpqWlZT17e/uz2rau3K6XACu3RRkPAQQQQAABBBBAAAEEEEAAAQQQyIbAwoULk0NCQmodPnxYZGRkyGcaGxuLunXrCkdHxxETJkxYno3hdPJQAiydbCuLQgABBBBAAAEEEEAAAQQQQAABbREIDg4uEBcXF7l69WqrtLT/v2e7tBeWk5PTbzVr1mw5YsSI3zfJyqMfAqw82niWjQACCCCAAAIIIIAAAggggAACyhGYOnXquG3bti28cOGCkB4llD4FChQQpqamwtbWdsrkyZPnKKda9VdCgKV+c2ZEAAEEEEAAAQQQQAABBBBAAAEE/iCwYsWKGleuXDm5fv36Ijdu3JD3wpI2dC9evLjo27fvwaVLl7bIy2QEWHm5+6wdAQQQQAABBBBAAAEEEEAAAQQUI+Dv79/R19d3u7QX1ps3b+S6jIyMhImJiejQocPumjVr2gwYMOD327Py2IcAK481nOUigAACCCCAAAIIIIAAAggggIByBcaNG5e5efNmceXKFblI6S6swoULi9atW5/v2LFj2zFjxtxSbvWfrjICrE9ny8gIIIAAAggggAACCCCAAAIIIIBAtgR++umnIfHx8Yvj4+PzS3dhSY8SSh9zc/PnDg4O49zd3Vdla0AdOZgAS0cayTIQQAABBBBAAAEEEEAAAQQQQED7BVQqlWFKSsrV4ODgitJeWBkZGfKiatSoIXr37v26devWjTp37nxe+1eavRUQYGXPi6MRQAABBBBAAAEEEEAAAQQQQACBTyrg4+MTEhUV1Wvbtm0iNTVVnqtYsWKiWbNmok+fPmNcXFyWfNICFDg4AZYCm0JJCCCAAAIIIIAAAggggAACCCCQdwX8/f0LnTx5cuuKFSvavHz5UoYwNDQUVapUEY6OjruqVavWdfDgwc/zkhABVl7qNmtFAAEEEEAAAQQQQAABBBBAAAGtEBg6dOigHTt2+N2+fVukpaXJNUubuVtZWQkzMzOnb7/9NlArFpJLRRJg5RJkbg2zefPmys+fP++YP3/+33r37r0tt8ZlHAQQQAABBBBAAAEEEEAAAQQQ0B6BefPmDdq1a5ffwYMHxePHj+XCDQwMRLly5US/fv32z5s3r6X2rCbnlRJg5dww10bw9fU1OX/+fMypU6dKlS9fXjRp0sSvcOHCI52dnV/n2iQMhAACCCCAAAIIIIAAAggggAACihfw9fUtcfv27cjAwMAWFy5ckDdz19PTEwUKFBDdunUTlpaWfYYNGxas+IXkUoEEWLkEmRvDeHh4zA8KCpogvWWgYMGColWrVpktWrRQubu7e+TG+IyBAAIIIIAAAggggAACCCCAAALaI7Bu3br2QUFBMXv27BHPnj2TC5f2wjIxMRGdO3c+0bhx4zbdunXLE3thEWAp5Lr19vaumJycfHPlypVC2qBNSlW/+uor0alTpxMLFy5soqenl6mQUikDAQQQQAABBBBAAAEEEEAAAQTUJDB16tTr0nZDZ8+elWfU19cX0lNbVlZW19q2bWs1aNCgy2oqRaPTEGBplP//T+7p6fnzzp07x+7cuVO8efNGDrAqVqwounTpIj3faqBSqTIUUiplIIAAAggggAACCCCAAAIIIICAmgR+/vnnnjt27AjYtm1bfmlKKS8wNjYWX3/99TVbW1srNzc3Aiw19YJphBALFixYGRMTMyQhIUGkpqbKF2SFChWEjY2N9P8EWFwlCCCAAAIIIIAAAggggAACCORBgU2bNtUIDQ3dvX79+oqZmb8/nCVlBhYWFjft7Oysxo8ffyEvsHAHlkK6TIClkEZQBgIIIIAAAggggAACCCCAAAIKExg0aFBSSEhIfWnLoXchVrNmzdIcHByGjRs3bo3Cyv0k5RBgfRLW7A9KgJV9M85AAAEEEEAAAQQQQAABBBBAIC8ITJkyJSk0NLT+lStXxNu3b+Ulf/nll2LQoEGiefPmBSwtLV/rugMBlkI6TIClkEZQBgIIIIAAAggggAACCCCAAAIKE/D29t4cERHRTdp2SNo3W/qULl1a2shd2NnZ9erTp0+YwkrO9XIIsHKd9OMGJMD6ODfOQgABBBBAAAEEEEAAAQQQQEDXBUJDQ51iY2NXBQQEGKWkpMjLlTZyr1u3rhg6dOiwESNGrNR1AwIshXSYAEshjaAMBBBAAAEEEEAAAQQQQAABBBQo8N1332338vLq+PTpU7k6aSP3GjVqiNGjRw9zd3cnwFJgz3SyJAIsnWwri0IAAQQQQAABBBBAAAEEEEAgVwQGDBggPUK4+datWyI9PV0es3z58tIdWGv19fWHqVSq1FyZSKGDcAeWQhpDgKWQRlAGAggggAACCCCAAAIIIIAAAgoUmDBhQre9e/duPn36tHj3GGHRokVF165dU01MTGy/+eabGAWWnWslEWDlGmXOBiLAypkfZyOAAAIIIIAAAggggAACCCCgywI+Pj5djhw5EhEVFaV/+/ZteakFChQQpqamonv37hsnTpzYV5fXT4ClkO4SYCmkEZSBAAIIIIAAAggggAACCCCAgAIFNmzYUPnixYu7161bV+3ixYtyhYaGhqJy5cqiZ8+eG3/66ScCLAX2TedKIsDSuZayIAQQQAABBBBAAAEEEEAAAQRyVcDLy2vomjVrfE6cOCGPK23kLj1GaG9vv9HHx4cAK1e1GewvBQiwuDAQQAABBBBAAAEEEEAAAQQQQOCfBCIiIob+9NNPPnv37s06rGDBgnKAtWbNGgIsLp9PL0CA9emNmQEBBBBAAAEEEEAAAQQQQAABbRaIjIwcOn/+fJ89e/ZkLUPaB0sKsNauXUuApc3N1ZbaCbC0pVPUiQACCCCAAAIIIIAAAggggIBmBAiwNOPOrO8JEGBxOSCAAAIIIIAAAggggAACCCCAwD8JEGBxfWhcgABL4y2gAAQQQAABBBBAAAEEEEAAAQQULRAZGdl8wYIFB3bv3i0yMzPlWqVHCB0cHGL9/Pw6KLr4HBanl8PzOT2XBAiwcgmSYRBAAAEEEEAAAQQQQAABBBDQYYFOnTplJiQkiDdv3sirNDIyEj179kzv1KmT2cCBA0/q6tIJsBTSWQIshTSCMhBAAAEEEEAAAQQQQAABBBBQsMDQoUMzt27dKm7fvi1XaWhoKCwsLESPHj1+GTt2bAMFl56j0giwcsSXeycTYOWeJSMhgAACCCCAAAIIIIAAAgggoKsCs2bNyty4caNISkqSl2hgYCBq164tbG1tb5ubm1t269btvC6unQBLIV0lwFJIIygDAQQQQAABBBBAAAEEEEAAAQULeHp6Ttm+fbtq586dRunp6XKAVaNGDWFtbX2vVatWVj169Dit4PI/ujQCrI+my90TCbBy15PREEAAAQQQQAABBBBAAAEEENBFAX9//zL79u1LCA0NrfP8+XOhp6cnGjVqJAVYZ+vUqWNib2+fqovrJsBSSFcJsBTSCMpAAAEEEEAAAQQQQAABBBBAQOECPj4+g3755ZcRly9fbqSnp2dUr169X6pXr27n6up6WeGlf3R5BFgfTZe7JxJg5a4noyGAAAIIIIAAAggggAACCCCgywIbNmyofPfu3eEGBgZGxsbGK4cNG3ZBl9dLgKWQ7hJgKaQRlIEAAggggAACCCCAAAIIIIAAAooTIMBSSEsIsBTSCMpAAAEEEEAAAQQQQAABBBBAAAHFCRBgKaQlBFgKaQRlIIAAAggggAACCCCAAAIIIICA4gQIsBTSEgIshTSCMhBAAAEEEEAAAQQQQAABBBBAQHECBFgKaQkBlkIaQRkIIIAAAggggAACCCCAAAIIIKA4AQIshbSEAEshjaAMBBBAAAEEEEAAAQQQQAABBBBQnAABlkJaQoClkEZQBgIIIIAAAggggAACCCCAAAIIKE6AAEshLSHAUkgjKAMBBBBAAAEEEEAAAQQQQAABBBQnQIClkJYQYCmkEZSBAAIIIIAAAggggAACCCCAAAKKEyDAUkhLCLAU0gjKQAABBBBAAAEEEEAAAQQQQAABxQkQYCmkJQRYCmkEZSCAAAIIIIAAAggggAACCCCAgOIECLAU0hICLIU0gjIQQAABBBBAAAEEEEAAAQQQQEBxAgRYCmkJAZZCGkEZCCCAAAIIIIAAAggggAACCCCgOAECLIW0hABLIY2gDAQQQAABBBBAAAEEEEAAAQQQUJwAAZZCWkKApZBGUAYCCCCAAAIIIIAAAggggAACCChOgABLIS0hwFJIIygDAQQQQAABBBBAAAEEEEAAAQQUJ0CApZCWEGAppBGUgQACCCCAAAIIIIAAAggggAACihMgwFJIS6QAKzY2dkh8fLxITU0Venp6okKFCsLGxkb6fwOVSpWhkFIpAwEEEEAAAQQQQAABBBBAAAEEEFCrAAGWWrn/frIVK1asjIqKGrJjxw7x5s0bOcCqWLGisLW1FWXLliXAUkifKAMBBBBAAAEEEEAAAQQQQAABBNQvQIClfvO/nHHt2rX/j737DovyWB8+PhQpig01Fuy9IBasYMMu2MsGS1BRxN57SUg0MbFLbIiKolgoCioWEElQRFGwYMSuBLuCFVEUeN9ZLzgxOeeXaGB32f0+13X+Oe7O3PdnnsRwM3NPi8jIyGM+Pj4iJSVFWcCqVauW6N69e4KJiUlldmBpyEIRBgIIIIAAAggggAACCCCAAAJqFggKCip548aNJi9evKiXL1++tyYmJjunTJmSqOawcnV6Cli5yvtpg//4449R69ata/bkyRNhaGgo2rZtm2lnZzds3LhxXp82Ep9GAAEEEEAAAQQQQAABBBBAAAFtFVi5cuWysLCw8TExMQZmZmaiS5cuPitWrBikrfnKvChgadDq7t69u9b58+eHJyUlTSxSpMiBL774YuX48eOPaFCIhIIAAggggAACCCCAAAIIIIAAAmoU8PLyMomOjv7F39+/aXJysjA2NhYtWrSQm2C86tSpM7Zbt26v1Rherk1NASvXaD9v4MzMTP21a9cWLl68eIpCoUj7vFH4FgIIIIAAAggggAACCCCAAAIIaKPA8uXLG/7yyy+hQUFB5jI/AwMDUaVKFbkL62HLli3b9e3b9zdtzJsCljauKjkhgAACCCCAAAIIIIAAAggggIBWCnz//fen9uzZ0+TMmTPK/GQBq1q1asLe3v5uy5YtW/fq1euGNiZOAUsbV5WcEEAAAQQQQAABBBBAAAEEEEBAKwUmTZqUGRgYKG7duqXMT/bQbtq0qejRo8fFadOm1dPT08vQxsQpYGnjqpITAggggAACCCCAAAIIIIAAAghopYCjo2Pm4cOHxdOnT5X5GRkZiW7duonu3btPHzx48GKtTJom7tq6rOSFAAIIIIAAAggggAACCCCAAALaKNCpU6fM8PBwkZb2oW22iYmJGDhw4NU+ffpY2dvbv9XGnGVO7MDS1pUlLwQQQAABBBBAAAEEEEAAAQQQ0CqBoKCgDkuXLg2JiIjIzsvU1FQoFIqdW7Zs6a9Vyf4pGQpY2ry65IYAAggggAACCCCAAAIIIIAAAlojsG/fPpfFixevp4ClNUtKIggggAACCCCAAAIIIIAAAggggIB2CVDA0q71JBsEEEAAAQQQQAABBBBAAAEEEEBA6wQoYGndkpIQAggggAACCCCAAAIIIIAAAgggoF0CFLC0az3JBgEEEEAAAQQQQAABBBBAAAEEENA6AQpYWrekJIQAAggggAACCCCAAAIIIIAAAghol0BQUJDLkiVL1h87diw7sfz58ytvIdy8eTO3EGrXcpMNAggggAACCCCAAAIIIIAAAgggkPcEVqxYsWjz5s3Tzp07pwzewMBAfPHFF6Jfv3473d3dKWDlvSUlYgQQQAABBBBAAAEEEEAAAQQQQEB7BDZt2tT6zJkzB/bu3Zv/zp07ysSMjY2FlZWV6N69u9e8efOctSfbv2aip83JkRsCCCCAAAIIIIAAAggggAACCCCgDQLffvttj6ioqMBTp06Jp0+fKlMqWLCg6NKli2jatOlXU6ZM2aYNef6vHChgadDq7t69u9jdu3cXP3z4cGiBAgUSLSwspjg5OflpUIiEggACCCCAAAIIIIAAAggggAACahBwdXXt8csvvwTeunVLpKWlKSMoXry4cHJySq5fv34nJyenM2oIS2VTUsBSGfXfT/Tzzz/PDAkJWXjp0iVRuHBhYWNj88DS0vLLkSNHRvz9t/kEAggggAACCCCAAAIIIIAAAghoq8CXX37ZIzw8PPDx48ciMzNTmWaZMmXE2LFjd9evX3+Avb39W23NXeZFAUtDVtfX19coJiYmavXq1Q1TUlKUUVlaWorOnTufWrRoUXM9Pb0PbycPAggggAACCCCAAAIIIIAAAgjolICXl5dJbGzswq1bt0589uyZMnfZwL1q1api1KhRIyZOnOip7SAUsDRkhbdv3z7x8OHDy3ft2iXevHkj9PT0RMmSJWUBS1SsWNHAzc0tQ0NCJQwEEEAAAQQQQAABBBBAAAEEEFChwIYNG9aFhoa67t27V6SmpipnLlSokGjSpIk8QjjCycmJApYK10Onp/L29rY/cuRIsK+vr7KAJR/ZjM3Ozk40bNiQApZOvx0kjwACCCCAAAIIIIAAAgggoMsC8+bNu+Dn51f3+vXr4v3790qKcuXKiW7dur1zcHCwdnBwiNN2H3ZgacgK79mzp8iJEyeerl69Wrx+/VoZlZGRkbC1tRWtW7emgKUh60QYCCCAAAIIIIAAAggggAACCKhawNnZWVnAevXqVXb/q0aNGomePXt+M3fu3O9UHY865qOApQ71/zHn6NGjF3t7e0+VL2TW07RpU3klJgUsDVonQkEAAQQQQAABBBBAAAEEEEBAVQJbt24tvW/fvhO+vr4Vs+aUbYdsbGwSevTo0W769Ok3VBWLOuehgKVO/T/NTQFLgxaDUBBAAAEEEEAAAQQQQAABBBDQAIHVq1fPCwwMnBcaGppPhiOLV6ampqJly5YJDg4O7caPH08BSwPWSadCoIClU8tNsggggAACCCCAAAIIIIAAAgj8rcAPP/wQ7+/vXzM2Nlb5WXn7oOx/1bFjx4TWrVu3HThw4M2/HUQLPsAOLA1axIkTJy7eunXr1OTk5OwzrRwh1KAFIhQEEEAAAQQQQAABBBBAAAEEVCwwduzYTHn74O+//66cOV++fKJx48bCwcEh2sbGprWdnd2Hm+C0/KGApUELPGfOnMU+Pj5TExMTRXp6ujIy2ZTt66+/bte9e/ejGhQqoSCAAAIIIIAAAggggAACCCCAgAoEunXrlnn06FGRkpKinM3Y2Fj06tUrs2fPnisdHR0nqSAEjZiCApZGLMOHIBYsWLB4165dUy9fvizevXun/P+qV68uRo4c+Uv16tV7d+3a9akGhUsoCCCAAAIIIIAAAggggAACCCCQiwI7duxounr16pNRUVHZG13MzMzEwIEDD3l4eHTJxak1bmgKWBq0JMuXL1/s5+c3NSYmRrx9+1YZWfny5cXgwYNFgwYN2vXu3ZtdWBq0XoSCAAIIIIAAAggggAACCCCAQG4KLFu2bKunp+eg+Ph45TT6+vqiRIkSwtHRcfPKlSuH5ubcmjY2BSwNWpH169cvDggImBoRESFSU1OVkVlYWMgXUxaw2g8aNChMg8IlFAQQQAABBBBAAAEEEEAAAQQQyCWBjRs3doyJidkTGBiY/969e8pZ5PFBS0tL0bdv382zZs2igJVL9gz7NwJbtmxZHBgYOPXw4cPi9evXFLB4YxBAAAEEEEAAAQQQQAABBBDQUYGFCxcOiYiI8Dp58qR4+vRDR6HChQuLrl27Cisrq/YzZszQqU0u7MDSoH8QKGBp0GIQCgIIIIAAAggggAACCCCAAAJqFJg4ceKQI0eOeN24cSP7lJY8Pujk5PSoTp06ds7OzpfUGJ7Kp6aApXLy/z0hBSwNWgxCQQABBBBAAAEEEEAAAQQQQECNAkOGDBly4MABr6SkpOwG7rJP9qhRo9xnzpw5UU9PL1ON4al8agpYKiengKVB5ISCAAIIIIAAAggggAACCCCAgEYKTJ06NXDt2rU9UlJSlPHJBu7VqlUTLi4uTlOnTt2qkUHnYlAUsHIR91OHZgfWp4rxeQQQQAABBBBAAAEEEEAAAQS0T2Dv3r0NQ0JCjm3YsCH/mzdvlAmamJjI3lfyCKHT2LFjKWBp37LnnYwoYOWdtSJSBBBAAAEEEEAAAQQQQAABBHJLYNOmTT8cOHBg1t69e0VaWppyGtn/qk2bNqJ3795O/fv3p4CVW/iM+/cCFLD+3ohPIIAAAggggAACCCCAAAIIIKDtAsuXL7/q6+tb7fTp0+L9+/fKdCtXriz69esnrK2tiygUiufabvDn/DhCqEErTgFLgxaDUBBAAAEEEEAAAQQQQAABBBBQk8C0adMSd+7cWfbu3bsiIyNDGUW9evXE4MGDb02ePLmymsJS67QUsNTK//HkFLA0aDEIBQEEEEAAAQQQQAABBBBAAAE1CPj6+pYICgq66Ofn90XW8UEZhq2trejatWuXWbNmHVJDWGqfkgKW2pfgPwH8rwKW3CJYv3799kOGDAnToHAJBQEEEEAAAQQQQAABBBBAAAEEclhg2bJlPQ4fPrw9JCQkf2ZmpnJ0eQNhq1at7nfv3r3V5MmTr+fwlHliOApYGrRM/62AJZu0dejQQbRs2dJp1KhROtekTYOWh1AQQAABBBBAAAEEEEAAAQQQyHWB77///tTu3bubxMTEZBevChcuLBu4X+natWvbYcOG3cv1IDRwAgpYGrQo3t7ebcPDw8P8/f3Fy5cvlZEVLFhQ1K5dWzZq+2Hq1KlzNChcQkEAAQQQQAABBBBAAAEEEEAAgRwWGDVqVOb+/ftFYmKicmRDQ0NRo0YN0bFjx7ONGzfuOGDAgCc5PGWeGI4ClgYtk4eHR/6rV68e9vLyapGcnJz9ohYpUkQ2avth6dKlFLA0aL0IBQEEEEAAAQQQQAABBBBAAIGcFujUqVPmsWPHxOvXr5VDm5iYCHt7e9GpU6cVrq6uk3J6vrwyHgUsDVuphQsXfvfzzz/Pu3//vpBnXfX09ISRkZEYPnz40tWrV08TQnw4AMuDAAIIIIAAAggggAACCCCAAAJaJbBlyxaLNWvW3Dlz5oxIT09X5iZPZjk7O4evXLmyrVYl+4nJUMD6RLDc/vj/P+vaZceOHQeuXr0qsm4bMDAwEF999dW5zp07D3N0dIzN7RgYHwEEEEAAAQQQQAABBBBAAAEEVCuwffv24g8fPjy8Zs2ahteuXVNOLje1FC9eXNYE1i5btmy0aiPSrNkoYGnWeog1a9Z0CQ4OPnDy5EmRlJSkjE7eNtCuXTvRs2fPTWPGjBmmYSETDgIIIIAAAggggAACCCCAAAII/EuBNWvWDDhx4sSWkJAQw0ePHilHkyeyZP8rR0fHtXPmzKGA9S+N+XoOCvj7+zeIiYmJlY3c/1hxlS/s0KFDxYwZMyg65qA3QyGAAAIIIIAAAggggAACCCCgCQJz586ddOjQoWXx8fEiJSVFGVKhQoVEly5dhI2NTc8JEyYEaUKc6oqBYoi65P+PeT09PQM3bNjQ49SpU9mfkldmygLWihUrWDMNXDNCQgABBBBAAAEEEEAAAQQQQODfCLi4uMz19/ef//z5c5GRkaEcqkSJEmLIkCF3LC0tbQcPHvz7vxk/r3+XYogGrqCXl1c1X1/fqwcPHsyOTl6b6ezsLNavX8+aaeCaERICCCCAAAIIIIAAAggggAACnyvg6+tb4+jRo0c3btxY5t27d9nDlC9fXowZM2ZNkyZNJtjZ2b3/3PG14XsUQzRwFd3d3Y39/f2PRkVF2bx//155G6Hsg+Xo6Cj7YFkpFIo4DQybkBBAAAEEEEAAAQQQQAABBBBA4DMEli5dejQgIMBO9sPO2n1VoEAB0aBBAzFo0KB+I0eO9P+MYbXqKxSwNHA5ZQErJCTk6PHjx21evHihfHnlzQNt27YVvXv3/nbMmDFuGhg2ISGAAAIIIIAAAggggAACCCCAwGcIjB49+pWPj08BWQOQm1jkI3thd+/e/Vbjxo3bKRSKW58xrFZ9hQKWBi6nLGCdOXPmaHh4uM29e/dEenq6soDVtGlToVAoTpYtW7atQqFI1cDQCQkBBBBAAAEEEEAAAQQQQAABBD5R4Kuvvnq1Y8eOAvIUlnzkKaw2bdrca9WqVWM3N7d7nzicVn6cApYGLuuBAweMQ0NDj4aEhNhcuXJFyBdYFrCsrKyEg4PDyfr161PA0sB1IyQEEEAAAQQQQAABBBBAAAEEPkfgu+++U+7AunbtmjA2NhZ16tQRrVu3Dra0tOw7dOjQN58zprZ9hwKWBq6oLGDFxsYeOXjwYIvo6GghG7jJAlbVqlVF165d71pbW9ceNGjQCw0MnZAQQAABBBBAAAEEEEAAAQQQQOATBTZt2mRz9erVw+fPn89nYmKS2bx587Ty5cs3dnR0vPqJQ2ntxylgaeDSurm56RcpUmTNkSNHXENDQ8Xbt2+VBSwLCwthb28vd2IVHzt2bJIGhk5ICCCAAAIIIIAAAggggAACCCDwGQJBQUEFnz17ZmlsbPxaX1//okKhSP+MYbT2KxSwNHRpt27dOiI0NNTDz89PpKZ+aHdlbm6uFnb02gAAIABJREFUbOTesGHD4rNnz6aApaFrR1gIIIAAAggggAACCCCAAAIIIJCzAhSwctYzx0bbv39/0ejo6ORly5aJV69eKcc1NTUVNjY2okmTJsUXLlxIASvHtBkIAQQQQAABBBBAAAEEEEAAAQQ0WYAClgavzvTp0xesW7dujrxGUz4GBgbC2tpaNG7cuPjq1aspYGnw2hEaAggggAACCCCAAAIIIIAAAgjknAAFrJyzzPGRZsyYMd/T03NucnKycuysmwj79+9ff+bMmedzfEIGRAABBBBAAAEEEEAAAQQQQAABBDRQgAKWBi5KVkhubm7zN2/ePDcxMVGkp3/o3VapUiXh4uISPnv27LYaHDqhIYAAAggggAACCCCAAAIIIIAAAjkmQAErxyhzfqB169bN3759+9zo6Gjx5s0b5QQlSpQQ3bp1Ey1atPjK2dl5W87PyogIIIAAAggggAACCCCAAAIIIICAZglQwNKs9fgoGj8/vy7BwcEHAgICxMuXL5V/ZmZmJqysrESfPn1WT5kyZawGh09oCCCAAAIIIIAAAggggAACCCCAQI4IUMDKEcbcGSQ8PNwwNDT0Nw8Pj+pJSR96thsaGopixYqJwYMHr1u0aNGo3JmZURFAAAEEEEAAAQQQQAABBBBAAAHNEaCApTlr8V8jWbRo0fcrVqyYfe/ePeWfy0buxsbGYvjw4etWrVpFAUvD14/wEEAAAQQQQAABBBBAAAEEEEDg3wtQwPr3hrk6wrfffmu3a9eusOvXr+ulpaUp5zIwMBBOTk4nunTpMkihUNzK1QAYHAEEEEAAAQQQQAABBBBAAAEEEFCzAAUsNS/A302/cuVKu/3794edOXNG7+nTp9kFrJ49e77v1q3bT0OGDJn7d2Pw5wgggAACCCCAAAIIIIAAAggggEBeFqCApeGr5+PjY3fs2LGwgwcP6iUkJCij1dfXF506dRL29vbLx40bN1nDUyA8BBBAAAEEEEAAAQQQQAABBBBA4F8JUMD6V3y5/2VfX1+zxMTE51u2bNGPi4sTmZmZyiOEXbp0EQ4ODstHjRpFASv3l4EZEEAAAQQQQAABBBBAAAEEEEBAjQIUsNSI/0+n9vb2tvTz8zsVFhaWX/bBKliwoHB0dLxUt27dFqNHj/5wrpAHAQQQQAABBBBAAAEEEEAAAQQQ0FIBClh5ZGFnzJix69q1a4rU1FRhbm4ubGxs3B4/fjzfzc0tI4+kQJgIIIAAAggggAACCCCAAAIIIIDAZwlQwPosNr6EAAIIIIAAAggggAACCCCAAAIIIKAqAQpYqpJmHgQQQAABBBBAAAEEEEAAAQQQQACBzxKggPVZbHwJAQQQQAABBBBAAAEEEEAAAQQQ+L8F3Nzc9MuXL18zJSVl6tu3b4WRkdH68ePHn8Tt0wUoYH26Gd9AAAEEEEAAAQQQQAABBBBAAAEE/lZg1apVxX7//ffIs2fP1njz5o2wtLR8W7du3U6jR4/+9W+/zAc+EqCAxQuBAAIIIIAAAggggAACCCCAAAII5ILArFmzmh46dOjk5cuXRWZmpihTpoxwdHS807Rp09o9evR4mQtTau2QFLC0dmlJDAEEEEAAAQQQQAABBBBAAAEE1CWwbdu2sr/99tsvXl5eVR48eKAMo1ChQqJjx45CoVCMVigUa9UVW16clwJWXlw1YkYAAQQQQAABBBBAAAEEEEAAAY0WWLFixbchISFfHzt2TLx8+WGzlZmZmWjVqpUYOHDg1wMHDpyv0QloWHAUsDRsQQgHAQQQQAABBBBAAAEEEEAAAQTytoC7u7txYmKin5+fX7d79+6JtLQ0ZUJFixYVPXr0EF27drXs27fvb3k7S9VGTwFLtd7MhgACCCCAAAIIIIAAAggggAACWi6wZs0aq8jIyLBdu3YVT09PV/a/0tPTE2XLlhUjRow4O2/evIZaTpDj6VHAynFSBkQAAQQQQAABBBBAAAEEEEAAAV0W+Oabby4FBQXVOnfuXDZD/vz5Rd26dd/17Nnzy1mzZu3RZZ/PyZ0C1ueo8R0EEEAAAQQQQAABBBBAAAEEEEDgvwh4e3s3Cg4OPn3o0CHx/Plz5Sfk7qsaNWrIo4NPra2tLfv3738PvE8ToID1aV58GgEEEEAAAQQQQAABBBBAAAEEEPivAr6+viUuX768a/fu3Xbnz5/PPjpoamoqi1eiW7duXb/66qtg+D5dgALWp5vxDQQQQAABBBBAAAEEEEAAAQQQQOAvAgsWLGgWGRkZFRUVJZ49e6b8c0NDQ1G+fHnRoUOHYA8Pj66wfZ4ABazPc+NbCCCAAAIIIIAAAggggAACCCCAQLbA1q1bS1+/fv3Qli1brO7cuSPev3+v/LMCBQqI7t27p9va2k4eO3asO2SfJ0AB6/Pc+BYCCCCAAAIIIIAAAggggAACCCCQLbBixYofDx8+PCMiIkKkpKQo/3+5+6pcuXJi7Nixd6dMmVIWrs8XoID1+XZ8EwEEEEAAAQQQQAABBBBAAAEEEBAeHh6FL1y4cHjnzp1N5dHB9PR0pYq5ublo27btk7Zt23YbPXr0Sag+X4AC1ufb8U0EEEAAAQQQQAABBBBAAAEEEEBArFmzZkxoaOiqoKAgkZGRoRSRNw/WrFnzzaBBg/rOmTOHxu3/8j2hgPUvAfk6AggggAACCCCAAAIIIIAAAgjotsDEiRPv7t27t8zNmzezi1clS5YULVu2fNalS5d2zs7Osbot9O+zp4D17w0ZAQEEEEAAAQQQQAABBBBAAAEEdFTA09NzkJ+f31bZ++rNmzdKBQMDA2FnZyccHR397ty54+jm5vZhWxbPZwtQwPpsOr6IAAIIIIAAAggggAACCCCAAAK6LLB+/fr6Fy5cCAsODja/ffu2yMzMVB4dLFy4sOjZs2fk5s2bW+iyT07mTgErJzUZCwEEEEAAAQQQQAABBBBAAAEEdEZg7NixbcPDw8OuX78u3r59q8zbyMhINGjQQNjb2+/55ptveusMRi4nSgErl4FVOfzKlSstL1269NPDhw9F8+bN982YMWOdKudnLgQQQAABBBBAAAEEEEAAAQR0RcDT07PWpUuXQry9vcsmJycrd1/JR948OGzYsLjatWsrhg4dellXPHI7TwpYuS2sovFXrlxpc/nyZf8jR46UTkpKktd0PmzevPm4KVOm+KkoBKZBAAEEEEAAAQQQQAABBBBAQGcEFi9eHOrv79/+3Llz2buvTE1NhaWlpXBycpo8bty45TqDoYJEKWCpAFkVUwwaNMgvLCys75MnT8T79++FmZmZ6Nq1q+jSpUszJyenU6qIgTkQQAABBBBAAAEEEEAAAQQQ0AUBd3f3EufOnft1586dtVJTU7N7X1lYWIgePXrcat26dTuFQnFLFyxUlSMFLFVJ5/I88mYDWcCSu68yMjKUTeNk1bdnz56Xqlat2mXw4MG/53IIDI8AAggggAACCCCAAAIIIICATggsXLgwbN++fW2ioqL0s44O5suXT9SvXz9FoVD0nzZt2j6dgFBhkhSwVIidm1PNmTNnw5EjR4adPXtWpKWlKacqUqSIaNq0qWjTpk2nWbNmheTm/IyNAAIIIIAAAggggAACCCCAgK4IjB49OjMwMFDcu3dPmbK+vr6oXLmyaNeuXWLTpk3bODs739QVC1XlSQFLVdK5PM/69ettYmJi9u3YscP85cuXyu2L8h+gsmXLilGjRoXMmjWrUy6HwPAIIIAAAggggAACCCCAAAII6IRAr169Mg8ePCjevHmjzFfuvrK3txft27fvlZSUtN/Nze29TkCoMEkKWCrEzu2pfvzxx6UbN26cfPv2bfHu3TvldAULFhQdOnSQvbB+cHFxmZPbMTA+AggggAACCCCAAAIIIIAAAtoq4Ovra/To0aPeu3bt2nH8+PHs3lfyZ+8vv/wy0tPTs4W25q7uvChgqXsFcnB+b2/v1mFhYb8EBwcL2cxdPgYGBuKLL76QV3ieXrBgQZMcnI6hEEAAAQQQQAABBBBAAAEEENApgUWLFnU8ceLEjhMnTpg/evRImbvcfVW1alV5kdr2xYsXD9QpEBUmSwFLhdiqmGrRokU/bd68efKVK1cM09PTlVMaGRmJXr16vW7VqtXwMWPG7FBFHMyBAAIIIIAAAggggAACCCCAgLYJzJgxY82uXbtGyd5XWf2n8+fPLzp37ixsbW3HTpkyZbW25awp+VDA0pSVyKE4Vq5caRkaGnrk1KlTJeUurKxeWDVq1BB9+vR5vGDBgi9yaCqGQQABBBBAAAEEEEAAAQQQQEBnBDw9PWcfOnRozsGDB/O/fv1ambc89VSiRAkxdOjQi1WqVGk9fPjwZJ0BUXGiFLBUDJ7b0/n6+ha+dOnS5pCQkJ7R0dHi/fsPfeNMTEyEg4OD6Nu3r0X//v0/XJPAgwACCCCAAAIIIIAAAggggAACfyvg7e1dIDY29pyPj0/VpKQkkZGRofxOgQIFRL169UT//v2Hjxs3buPfDsQHPluAAtZn02nuF93d3QvFxMScDQgIqJySkpK9C8va2loMGjQovHz58r179er1THMzIDIEEEAAAQQQQAABBBBAAAEENEdgyZIl48LDw5ccPnzYKGujiJ6enqhSpYoYMGDADUtLy9YKheKu5kSsfZFQwNK+NVVmNGHChK2HDx8edP36deUuLPkPVsmSJUWrVq1SW7Vq1WPs2LGhWpo6aSGAAAIIIIAAAggggAACCCCQowKTJk3KDAwMFLdv386+ebBw4cKiefPmb+3s7NpNnz49MkcnZLC/CFDA0tKXYuXKlYozZ85sCggIKJB1Nlc2c69YsaLo16/ftO+//36JlqZOWggggAACCCCAAAIIIIAAAgjkmMC6deum+vj4LD516lR243ZDQ0NhY2Mj2rZtu6N06dLDXV1dPzTF4sk1AQpYuUar/oGXLl0auGTJkh7yak95I6HchVW0aFExcODAG40aNWo6ePDgJPVHSQQIIIAAAggggAACCCCAAAIIaKaAp6dnj+jo6F0HDhwwljcPyovS5M/WcveVk5PTCXd3d1vNjFz7oqKApX1rmp3RypUrh+7evXtTbGysePnypfL/l83cGzRoIBQKxcFJkybZa3H6pIYAAggggAACCCCAAAIIIIDAvxL49ttv523fvv27hIQE8ebNG+VYxsbGQvaY7t69+6aZM2cO+1cT8OV/LEAB6x9T5b0P7t69u9apU6fObt++3TgxMVGZgL6+vihWrJgYMWLE9e+//75a3suKiBFAAAEEEEAAAQQQQAABBBDIfYGtW7c6hIWF/ezv718p64I0Oau5ublwdnY+W69ePYevvvrqfu5HwgxSgAKWlr8Hy5cvn+rn57dY7sJ6+/atcrtjvnz55A6spFatWg1wdXUN0XIC0kMAAQQQQAABBBBAAAEEEEDgkwXmz59/wcfHp27W5WhygPz584u6devKmwfHTpgwYfUnD8oXPluAAtZn0+WNLy5ZsqRCdHR0WGRkZJX79++LjIwM5S6sGjVqiG7dul1ftGgRu7DyxlISJQIIIIAAAggggAACCCCAgIoEvLy8av76668nt23bVvj9+/fKWWXvq0qVKonevXs/bdasmU3fvn0vqygcpmEHlva/Axs3biyYlJQUEhQU1EzemJD1D56sGjs4OAg/Pz+KmNr/GpAhAggggAACCCCAAAIIIIDAJwiMGzfuwpEjR+pevnw5u3G7PM1kY2Pzqnv37l0nT5786ycMx0dzQIDiRQ4gavoQe/furRMcHHxu586dhi9evMj+h69hw4Zi2LBhgY8ePern5ub2oaTMgwACCCCAAAIIIIAAAggggIAOC/j4+Mzz9PT8Ljo6Wrx+/VopYWBgIKpVqybat29/sV69eu1dXFwe6jCRWlKngKUWdtVP+vXXXwfu2bOnR3x8fPYurFKlSolWrVqltW7duv+YMWN2qz4qZkQAAQQQQAABBBBAAAEEEEBAcwQ2bNjQ4OLFi36BgYFV5M2Dso+0PDpoZmYmevToIVq2bOni6uq6QXMi1p1IKGDpyFpv2rRpeERExDo/Pz8DeXuCfAwNDUXp0qVlQ/fxS5cu/VlHKEgTAQQQQAABBBBAAAEEEEAAgf8qMGfOnJl79+5deOPGjezdV/Jn5woVKsjeV6sXL148Fjr1CFDAUo+7ymf19fU1iouL27hx48ZBDx8+FOnp6dlV5H79+iXb2Nj0Gj58eITKA2NCBBBAAAEEEEAAAQQQQAABBDRAwNPTs9Lp06fDdu7cWenVq1fKS9Dk7quCBQvKS9BetWzZcvjIkSN3aUCoOhkCBSwdWvZVq1Y5BgcH74iKihLPnj1TZi4ryTVr1hQuLi5JEyZMKK5DHKSKAAIIIIAAAggggAACCCCAQLbAqlWr3m7ZssUoNjZWuelDPiYmJqJKlSpi0KBB22bNmvUVXOoToIClPnuVz7x79+4vYmJiNuzevbtb1k0KMgh5I+GAAQNeNW3atImLi0u8ygNjQgQQQAABBBBAAAEEEEAAAQTUKLBmzRqr06dPxwQEBBi+fPlS2ftKPhYWFqJz586y91XrIUOGcGpJjWtEAUuN+OqYetGiRVUOHjwYdfLkyRJv3rxR/kOpr68vGjVqJDp27HhgwYIFDuqIizkRQAABBBBAAAEEEEAAAQQQUIdAZmam3tdff301KCioalxcXHbxSp5YatKkiewb/dWECRN89PT0PlS1eNQiQAFLLezqm9THx6fo6dOnDx89erTxpUuXlDcSyjO9RYoUEfb29sLHx4d3Qn3Lw8wIIIAAAggggAACCCCAAAIqFvDx8amwa9eu27/88ot48eKFcnYDAwNRsWJFYWdnd71x48bNXV1dn6g4LKb7kwDFCt17JfQ8PT0bHj9+/Iyfn59ITU1VVpflP5z16tUTzs7OAWPHju2reyxkjAACCCCAAAIIIIAAAgggoGsCa9eurfj48eOLW7ZsKXDz5s3s3Vey99WXX34pjw4qhg0b5s/uK/W/GRSw1L8Gaolg7ty5QTt27Oh++/bt7OZ0JUqUEM2bN09v27btwIkTJ3KzglpWhkkRQAABBBBAAAEEEEAAAQRUIeDr62sQGxu7KygoqI/82Vhu8JCP3OBRtmxZMXz48N3z5s3ro4pYmOPvBShg/b2RVn5i7dq1QyIiIryCgoLE69evlTnKXljm5uZi5MiRHgsWLBiplYmTFAIIIIAAAggggAACCCCAAAL/v0G7p6dn4J49e7qGhoYayPY68nSSbLFjZmYme0SLNm3aOI4bN47NHRrytlDA0pCFUHUYZ86cybdnzx6PzZs3D33w4EH2LiwjIyPRvn17+Q/r4okTJ05XdVzMhwACCCCAAAIIIIAAAggggIAqBL755ptMLy8vkZiYmH10sECBAqJGjRqie/fuPwoh5rm5ub1XRSzM8fcCFLD+3khrP+Hh4dEvJCTE99dffxVPnnzoR5e1C6tPnz6ZNjY2toMHD47SWgASQwABBBBAAAEEEEAAAQQQ0FmB7777TlnAkscH5e4reeugtbW13NCxrmjRopMnT5784Uwhj0YIUMDSiGVQXxArV648tn379hZnz54VaWlpykDked/69euLDh06HGrYsGFXhUKRrr4ImRkBBBBAAAEEEEAAAQQQQACBnBdYvXq1W2Rk5NRTp04VkAUsCwsLUaVKFY/mzZuPc3V1fZfzMzLivxGggPVv9LTgux4eHqUjIiJCIiIiLO/evSsyMjKUZ37ltslWrVq9a9KkiZmbm9uHyhYPAggggAACCCCAAAIIIIAAAloikJmZqefh4THwzp07W2VKFhYWw169erVr2rRpKVqSolalQQFLq5bz85LZsGFDt+jo6L3btm37qKF75cqV5bnfS/Xq1RvOUcLPs+VbCCCAAAIIIIAAAggggAACmi+wd+/eOt26dbukp6eXqfnR6maEFLB0c93/kvUPP/yw2cfHZ/CVK1eEvH1BPnIXVvXq1cWAAQO+nzZt2lyoEEAAAQQQQAABBBBAAAEEEEAAAXUIUMBSh7oGzrlu3brmUVFRu/fs2VPq5cuX2TcwmJqaiqFDh0bUqVPnyzFjxjzQwNAJCQEEEEAAAQQQQAABBBBAAAEEtFyAApaWL/A/TU+e/f3xxx9nbtu27YcbN26IN2/eKL8qG7rLK0T79u0b/91339X+p+PxOQQQQAABBBBAAAEEEEAAAQQQQCCnBChg5ZSkFoyzbdu2xmfPng3Zu3dvkevXryt3YcmG7vnz5xdt2rQRdnZ2P5QvX/5rbiXUgsUmBQQQQAABBBBAAAEEEEAAAQTykAAFrDy0WKoIde3atbaHDx8+Hh4eLl68eJFdxCpTpozo2LHjizp16lSZOnXqE1XEwhwIIIAAAggggAACCCCAAAIIIICAFKCAxXvwkUB4eLjh/v37t0ZGRjrGxsaKtLS07D+3srIS/fv3n2lsbOw+efLkVOgQQAABBBBAAAEEEEAAAQQQQAABVQhQwFKFch6bw8PDo3hiYuJRT0/Puo8fPxYZGRnKDAoVKiTq1asnd2LNnjdv3sI8lhbhIoAAAggggAACCCCAAAIIIIBAHhWggJVHFy63w/b09BwVHBy8IiQkxOj169fK6WRDd1nE6tu375MGDRq0Gz169IXcjoPxEUAAAQQQQAABBBBAAAEEEEAAAQpYvAP/U2D27Nkb9+zZ43z79m2RmvrhxKAsYtWuXVseJbw+e/bsavAhgAACCCCAAAIIIIAAAggggAACuS1AASu3hfPw+F5eXo0jIyP3Hz169AtZxMo6SmhoaCj69OkjbG1t2yQnJx9zc3P7cMaQBwEEEEAAAQQQQAABBBBAAAEEEMgFAQpYuYCqTUN6eXnVDQwMPHLkyJEv5FHCzMxMoaenJ+SthLa2tvdr1arV7Ntvv/1dm3ImFwQQQAABBBBAAAEEEEAAAQQQ0CwBCliatR4aGc2cOXN2h4WF9YqJiRHv3r1TxpgvXz5RrVo14ejoeL5kyZI2rq6uHxpl8SCAAAIIIIAAAggggAACCCCAAAI5LEABK4dBtXE4d3f3Krdv376wa9eu/A8ePBDp6enKNAsWLCisra1F7969F48fP366NuZOTggggAACCCCAAAIIIIAAAgggoH4BCljqX4M8EYGnp+f4/fv3Lz569KjRq1evlEcJ5ZM/f34xYsSIfTY2Nr0UCsWHyhYPAggggAACCCCAAAIIIIAAAgggkIMCFLByEFPbh5o/f/48Hx+fb27evGmQlpamTNfY2Fh89dVXqdbW1k1GjRp1UdsNyA8BBBBAAAEEEEAAAQQQQAABBFQvQAFL9eZ5dsb169c3PnXq1NEjR46Y/f7778pdWLKANXTo0IyGDRtajxgx4lyeTY7AEUAAAQQQQAABBBBAAAEEEEBAYwUoYGns0mheYEFBQQUfPHjw7f79+yf9+uuv4u3bt8LCwkJ8+eWXv9aqVcvByckpRfOiJiIEEEAAAQQQQAABBBBAAAFtF9iwYUO3u3fv2sqNFiVLljw1atSoPdqes67lRwFL11Y8B/KdNWvWntjY2O6yF5alpWVG48aNBwwfPtwvB4ZmCAQQQAABBBBAAAEEEEAAAQT+sUBmZqbesmXLml67du3Q2bNnC2dkZMjLxl42b97cfvDgwcf/8UB8UOMFKGBp/BJpXoABAQGlk5OTa7x//14UKlTo7sCBA69pXpREhAACCCCAAAIIIIAAAgggoO0CGzdudImKilofGhoqnjx5oky3atWqslfz0alTp7bT9vx1KT8KWLq02uSKAAIIIIAAAggggAACCCCAgBYJzJ8//9SGDRua3L17V8hNFvIpX768GDt2rJg+fTo1Dy1aaxZTixaTVBBAAAEEEEAAAQQQQAABBBDQFYEff/xx3LFjx+YdOnSoRHp6ujJtfX19UaNGDeHs7Lxm2rRpY3TFQhfypIClC6tMjggggAACCCCAAAIIIIAAAghokUBAQEDDgICA0wcPHtR/9uyZkM3b9fT0ZJsb0bBhw/udO3duN2PGjHgtSlnnU6GApfOvAAAIIIAAAggggAACCCCAAAII5B0BLy+vmvHx8eH79+8vdfXq1eyjg8bGxqJZs2bCwcEhrFSpUj2cnJxS8k5WRPp3AhSw/k6IP0cAAQQQQAABBBBAAAEEEEAAAY0RWLBgQb99+/btunjxol5KyocalYGBgbL3lYODw2+tWrVqplAoXmlMwASSIwIUsHKEkUEQQAABBBBAAAEEEEAAAQQQQCC3BTw8POzCw8MnHz58uOvTp0+V08mjg2ZmZqJr167J9erVGzJz5sx9uR0H46tegAKW6s2ZEQEEEEAAAQQQQAABBBBAAAEEPlFg06ZNJc6fP3/S19e38qNHj0RW43YTExNRvXp1oVAoJrx//36Vm5tbxicOzcfzgAAFrDywSISIAAIIIIAAAggggAACCCCAgK4LzJgxIyY0NLRhXFycePfunZJDHh2sWLGiLF4lW1paNhw4cGCCrjtpa/4UsLR1ZckLAQQQQAABBBBAAAEEEEAAAS0RWL9+/Qo/P78JUVFRQva9yrp1sESJErJx+/O2bdt+OXHixMNaki5p/BcBCli8FggggAACCCCAAAIIIIAAAgggoLECq1at6nDy5Mmgo0ePmt67d08Zp+x7ZWpqKlq1aiVatGixrl69elO6dev2WmOTILB/LUAB618TMgACCCCAAAIIIIAAAggggAACCOSWwKRJkxb6+/vPvH//vnj//r1ymnz58om6devKWwd3161bd5BCoUjNrfkZVzMEKGBpxjoQBQIIIIAAAggggAACCCCAAAII/EEgPDzc5PTp00d2795te/bsWfH27Vvln+rr6wt5dNDZ2XlvgwYNHCle6cZrQwFLN9aZLBFAAAEEEEAAAQQQQAABBBDIUwJLliyZfezYse/CwsIMsvpeyQTMzc2Fra2plSZGAAAgAElEQVSt6Nat27ARI0ZsylNJEexnC1DA+mw6vogAAggggAACCCCAAAIIIIAAArkhsGXLlgbHjx+PPXz4sEhMTMxu2p4/f35hZWUljw5umTt37pDcmJsxNVOAApZmrgtRIYAAAggggAACCCCAAAIIIKCTAtu3b7e6cuVKqK+v7xdXr14V6enpSgdDQ0NRq1YtYWdnd658+fIdpk6d+kQngXQ0aQpYOrrw6kx748aNZZ4/f+6flJTUvGjRov6FCxf+2sXFJV6dMTE3AggggAACCCCAAAIIIICAZggsWLDg2127dn1948YN8fr1h4sFZd+rIkWKCEdHx/vNmjWzdXJyuqUZ0RKFqgQoYKlKmnmyBb755psdISEhjsnJyaJYsWKiXr16j2vUqPHdxIkTV8GEAAIIIIAAAggggAACCCCguwLr168feOjQoYWHDh0ql5qaqjw6KB8TExPRoUMH0bJly7HTp09frbtCups5BSzdXXu1ZL569epS0dHR93fs2CHS0tKUVfQKFSoo/0VkY2MzPH/+/FsVCkWaWoJjUgQQQAABBBBAAAEEEEAAAbUJrF+/3ubSpUvHAwIC9O7evSsyMjKUsZiamopKlSqJnj17+rdo0WKQvb39h+sIeXRKgAKWTi23+pP18PCYvXfv3u9DQkLEu3fvlAHJc8zly5cX7dq1y7C0tOw2YcKEA+qPlAgQQAABBBBAAAEEEEAAAQRUJeDm5maYkpISFRYW1iguLi7750UDAwNRsWJF0aNHD1GnTp22w4YNC1dVTMyjWQIUsDRrPXQimgkTJrz29vY2ff78eXZF3cjISHzxxRfyX0p3a9as2XLcuHGcZ9aJt4EkEUAAAQQQQAABBBBAQNcFfH19jZKTk1f6+PiMjImJ+ajvVdGiRUWbNm3e1K1bt4qbm9s9XbfS5fwpYOny6qsp95UrV/Y6c+bMssDAwIqvXr3KPtMsd2JVr15dHid8WLNmTcdRo0b9oqYQmRYBBBBAAAEEEEAAAQQQQEBFAitXrhwRHh7ucfz4cfHkyYeLBfX09JRHB7t37y5vHnQuVarUNldX1w/HeHh0UoAClk4uu/qTXrFixeigoKDVsbGxQu7Eynrk9tDatWuLjh073rW0tGwxdOjQ2+qPlggQQAABBBBAAAEEEEAAAQRyQ2Dt2rUV4+Li/Ldv32798uVLkZ6erpwmX758yp8Ne/XqNd/Nze3r3JibMfOWAAWsvLVeWhOtr69v4fj4+O9DQ0PHnD9/XvxxJ5Y8TlirVi3Ru3fvB1WrVh0wcOBAzjhrzcqTCAIIIIAAAggggAACCCDwQcDT07PkrVu3zvv7+5e8cePGR8Ur2WJGoVA8tbS0bD5s2LArmCFAAYt3QG0C+/btyx8XFxcYEhLS4cSJE8pbCbMeeUWqvJ2wa9eu+ytXrtx/zJgxr9QWKBMjgAACCCCAAAIIIIAAAgjkqIC7u7txUlLS7iNHjtifOXNGvH374WJBeXSwdOnSsu+VaNGihcvo0aM35OjEDJZnBShg5dml047Aly9fXiQ1NfVMcHBwlejo6OybJmR2csto48aN5Znnn2fOnDleOzImCwQQQAABBBBAAAEEEEAAgbVr187Zt2/fgpMnT4qnT58qeyPL4lWBAgVEy5YtZVuZKZaWlhs7dOjwn54zsOm0AAUsnV5+zUhe7sQ6ffr0ucDAwGpy22hKSkp25V3uxJLXpTZv3vzL8ePH++np6WVqRtREgQACCCCAAAIIIIAAAggg8DkCmzdv7hMVFeUfFBQkHjx4kD2EsbGxaNKkidx5tbFBgwauCoXiQ0MsHgTk7jwUENAEgY0bN9ZLSEjYvX///srx8fHizZs3ygq8vr6+KFKkiCxgvercufPwcePG7dKEeIkBAQQQQAABBBBAAAEEEEDg0wWWLVtm+ujRo91bt27t/OjRo+xTOPJW+nLlyomBAwcesbKy6qtQKNh59em8Wv0NClhavbx5K7nw8HDD4ODgyyEhIVV+++237AZ+sohVrFgxYWNjI+zs7PpOnDgxIG9lRrQIIIAAAggggAACCCCAAAKZmZl6S5cuPenv798kJibmoxYyBQsWlMWr9Hbt2rXv16/fL2gh8GcBCli8Exol4O7uLndind2zZ49eQkJCdhFLVuOLFi0q2rdvf6NZs2ZTJkyYEKRRgRMMAggggAACCCCAAAIIIIDA/xTw8PDIn5CQMO3s2bNukZGR4sWLF9mfNTc3Fw0aNMjs2LHjNzNmzJgPIwL/TYACFu+Fxgls3LjR7uTJk0f37t0rkpOTs6vyBgYGomzZsqJXr16ZjRo1shw0aNAljQuegBBAAAEEEEAAAQQQQAABBP4i4O7u7nTkyJEtUVFR4smTJ9lN201NTUXDhg1l7+OjVatWHdarV6/b8CFAAYt3IM8ILF26dMjx48c9T548aSjPRaenf+jdZ2RkJKpWrSpatWp108bG5ksnJ6czeSYpAkUAAQQQQAABBBBAAAEEdEzA19fX6N69e+NOnTq15JdffhF//vmudu3a8tbBIz///HMHHaMh3U8UYAfWJ4LxcdUIyLPR3t7e7QIDA0PDwsLEy5cvlRV6+cibCatVqyYGDBiQVqdOnYbdu3f/TTVRMQsCCCCAAAIIIIAAAggggMCnCGzevHnoiRMnNuzZs0f/6dOn4v3798qv6+npCXl00NXVNcXa2tqqT58+Nz9lXD6rewIUsHRvzfNUxvPnz58SGxv7Q0hIiNHr16+zi1hmZmbC0tJSdOzYcV+NGjUGDxw48GmeSoxgEUAAAQQQQAABBBBAAAEtF/Dw8Ghx9uzZ7UePHi13/fp1kZGRocxYXtRVvHhxYW9vf65NmzZThwwZEqblFKSXAwIUsHIAkSFyT8DNzU2/WLFiXx84cOCbiIgI8cciltyJZWdnl9m5c+dVEyZMGJ97UTAyAggggAACCCCAAAIIIIDApwh4eHjUvHLlStjhw4fLXL58ObstjNx5Va5cOdG2bdsUW1vbLi4uLsc+ZVw+q7sCFLB0d+3zVObffvvtlN27d/909epVg9TUVGXs8l988qrVXr16/d64ceMOY8eOvZqnkiJYBBBAAAEEEEAAAQQQQEALBbZu3VojPj5+U0BAgM2tW7dEWlpa9s9whQoVEg4ODs/69OljzbFBLVz8XEyJAlYu4jJ0zgl4eXlVvHPnzpkdO3YUi4+Pzz5KKLeeWlhYCBsbm1utWrVyGDNmTHzOzcpICCCAAAIIIIAAAggggAACnyqwdOnSfZs3b+567do18ebNm+yvy0u52rdvL9q1a7dqypQp4z51XD6v2wIUsHR7/fNU9lu3bq0aHR19JjQ0tPDVq1ezz08bGBiIsmXLiubNmx+3sbGZMn78+Og8lRjBIoAAAggggAACCCCAAAJaIjB37txxsbGxPx49ejT/27dvszcf5M+fX1hbW4vOnTuHlilTRjF06NBnWpIyaahIgAKWiqCZJmcEPD09B50+fdozODjY5OHDh9k3WMgiVtGiRUWfPn0uNWzYcJKrq2tIzszIKAgggAACCCCAAAIIIIAAAv9EYOPGjd8EBgbOCg8PN05JSfnoEq7q1auL3r1737CwsGhE8eqfaPKZPwtQwOKdyHMCa9eu/ebIkSOTf/3110LyGtb09HRlDrKIVaxYMbkTSzZ3P2hqaurk6ur6JM8lSMAIIIAAAggggAACCCCAQB4T+Omnn74KCwtbFxMTk1/+nJZ146CxsbGoXbu2PDZ4pU6dOv2GDh0al8dSI1wNEaCApSELQRj/XGDfvn35L1y4MOz48ePu0dHRIjk5+aOeWLIpYJ06dTL69u0bOmnSpM7/fGQ+iQACCCCAAAIIIIAAAggg8KkCXl5e3+zdu3fi8ePHi8ifz/64yaBatWqiQ4cO162srOxcXFzufOrYfB6BLAEKWLwLeVLA19e38K1btxadPHnSMTo6utD9+/ezK/wyIVnEkjux2rdvf9jCwmLQgAED2ImVJ1eaoBFAAAEEEEAAAQQQQECTBVasWNE4Pj4+KDg4uPSDBw+y27zIhu3lypUTnTp1SmjQoMEMFxeXXZqcB7FpvgAFLM1fIyL8PwSWL1++NDo6Wh4nFI8ePcr+l6Wenp4wNTUVrVu3zmjTps3hGTNm2AOJAAIIIIAAAggggAACCCCQswKzZs2KOHDgQMvffvst++cxQ0NDUapUKdG9e3dRv359+xEjRhzM2VkZTRcFKGDp4qprWc7u7u5zIyIiph87dqxgUlLSR0UsedNFs2bN5L84j7x7967/1KlT2YmlZetPOggggAACCCCAAAIIIKAeAQ8Pj8IRERHPAgICRNaNg/r6+qJ48eKiadOmr1q2bNl5+vTpkeqJjlm1TYAClratqA7m4+vra3bt2rXu586d8zhx4oTZvXv3sntiyZ1Y8jhhjRo1Mjp37nypUaNGjt27d/9NB5lIGQEEEEAAAQQQQAABBBDIMYH9+/cXvXTp0nZ/f//OZ86cUbZ0kT9/yabt3bp1Ey1bthxgbGzs7+rq+i7HJmUgnRaggKXTy689yQcFBRVMTEwce/bs2dmRkZFmV69e/agnltyJVb9+feHg4PC4dOnSzZydnW9qT/ZkggACCCCAAAIIIIAAAgioXsDT03P2zp07vw8PD1f+/JUvXz7RpEkT0bZt2zXz588fo/qImFGbBShgafPq6mBuq1evHhgXF7c2JCSk4J07d0RaWppSQf4mwMTERFhbW8t/mSZYWVk59O3bl51YOviOkDICCCCAAAIIIIAAAgjknMDkyZN/PXnyZKsXL16IsmXLisaNG4fUqlVr8oABA/h5K+eYGUn+XI8CAtom4O3tPf7UqVM/BAcHF7h796549+4/O1ZlEatWrVrC3t4+pUKFCnYjRow4rW35kw8CCCCAAAIIIIAAAgggoEoBuRMrOTm5b4kSJfpy2kWV8ro1FwUs3Vpvncl23bp1vePj491DQ0MtLl++/NFxwgIFCogKFSrIM9m3mjZt2tXZ2fmSzsCQKAIIIIAAAggggAACCCCQCwIBAQFl+/TpcycXhmZIBJQCFLB4EbRWYN26ddWuXr0aHh4ebnHhwgWRnp6enauRkZGoUqWK6Nix47tKlSr1nzhxYoDWQpAYAggggAACCCCAAAIIIIAAAnlcgAJWHl9Awv+/BVavXl3r6tWrfsHBwXUSExOVV7tmPbLBoDyjbWtr+9DW1nbMqFGjKGLxQiGAAAIIIIAAAggggAACCCCggQIUsDRwUQgpZwW2bt3a+fz583t2795tIotYf+yJZWhoKEqUKCEbDWa2aNGi//Tp032FEJk5GwGjIYAAAggggAACCCCAAAIIIIDAvxGggPVv9PhunhHYsmVLrwsXLnz366+/WsbFxSlvJ8zM/FCnkjuxihQpIho1avTKwcHhh7Fjxy7MM4kRKAIIIIAAAggggAACCCCAAAI6IEABSwcWmRQ/CGzdurXq3bt3l504caJDWFiYSWpqanZzdz09PVG4cGHRvn17YW1tPX3mzJlL9PT02InFy4MAAggggAACCCCAAAIIIICABghQwNKARSAE1Qn4+voaXLx4cdCZM2c2x8TEiCdPnmQ3d9fX1xfyhsImTZq86tix44Jy5crtHzBgwG+qi46ZEEAAAQQQQAABBBBAAAEEEEDgvwlQwOK90EmBbdu2dfHz8ws8fvy40bNnz7KLWHInlqmpqShfvrzo3bv3/SpVqjQaNmzYPZ1EImkEEEAAAQQQQAABBBBAAAEENESAApaGLARhqFbAzc1NXwhhf/fu3X0HDhwQ9+/f/+g4oZGRkahevboYOHCg/8yZM/upNjpmQwABBBBAAAEEEEAAAQQQQACBPwpQwOJ90GkBT0/PDjExMcEHDhzI9/DhQ/H27dtsDxMTE9G/f3/RsGFDq3HjxsXpNBTJI4AAAggggAACCCCAAAIIIKBGAQpYasRnas0QcHd37x0fHx/wyy+/iISEBPH69WtlYPJ2wqZNm4ouXbpEVKtWzUGhULzSjIiJAgEEEEAAAQQQQAABBBBAAAHdEqCApVvrTbb/QyAzM1Nv/PjxN8LCwipdv35d2RPL2NhY2NnZiY4dO26YMGGCC3gIIIAAAggggAACCCCAAAIIIKAeAQpY6nFnVg0U8PDwsLtx48bgO3fuDJY7scqVKyfq1avnV6FChdEDBgx4ooEhExICCCCAAAIIIIAAAggggAACOiFAAUsnlpkk/6mAbO5eoUKFIampqQONjIwCDAwMNg0dOvTNP/0+n0MAAQQQQAABBBBAAAEENFXA29v7i0ePHo0wNTWdnJGR4TNu3LhxmhorcSHwZwEKWLwTCCCAAAIIIIAAAggggAACCGixgK+vr9Hvv//eJyEh4adTp06Vk7ewW1hYiA4dOjwqVapUvTFjxjzQ4vRJTUsEKGBpyUKSBgIIIIAAAggggAACCCCAAAL/TWDp0qXOp0+f9jh69Kjhs2fPlD1/5a3rNWvWzHR0dHSdNm2aJ3IIaLoABSxNXyHiQwABBBBAAAEEEEAAAQQQQOAzBLZs2VLs5s2bP8TFxY2Ijo4WcueVLF7JRxawqlWrJvr37z969uzZaz9jeL6CgEoFKGCplJvJEEAAAQQQQAABBBBAAAEEEFCNwMKFC8OPHj3a6ty5c/pJSUkiIyNDObGenp4oVaqUaNmy5UtbW9vOEyZMOKGaiJgFgc8XoID1+XZ8EwEEEEAAAQQQQAABBBBAAAGNE1i/fn31hISE5QcPHrS/evWqeP36dXbxSl9fX5ibm4tmzZqJTp067ShbtuzoXr16PdO4JAgIgT8JUMDilUAAAQQQQAABBBBAAAEEEEBAiwTGjx8fcfjwYduEhAT9t2/fiszMTOWuK1m8KlKkiGjXrp3cfbXOzMxsEreua9HCa3kqFLC0fIFJDwEEEEAAAQQQQAABBBBAQPsFdu/eLftdDbl169ac48ePF71y5Yp48+aNMnFZvMqXL5/y5kF7e/vIhg0b+pubm29m55X2vxfalCEFLG1aTXJBAAEEEEAAAQQQQAABBBDQOYENGzZUffDgwY6YmJhGJ0+eFLLfVVpaWnbxytTUVN44KHde3SlTpkzLSZMm3dY5JBLO8wIUsPL8EpIAAggggAACCCCAAAIIIICALgp4eXmZPHnypN6DBw/8jh49Wu7y5ctCHhnMatYujwwWKFBAVK9e/X379u0v/vTTTw100YmctUOAApZ2rCNZIIAAAggggAACCCCAAAII6JjAkiVLWkVEROy6cOFCqQcPHiiLV7LflXxk8crMzExYWlqKDh06+BYrVmzs+PHjH+sYEelqkQAFLC1aTFJBAAEEEEAAAQQQQAABBBDQfoENGzbY3r9/f8m5c+eaRUZGKo8Mvnv3Tpl4VrP2UqVKiUaNGr1v2rTprjp16rj16NHjuvbLkKE2C1DA0ubVJTcEEEAAAQQQQAABBBBAAAGtEvDy8lp4+vTpr06dOmVx8eJFZa+rP+66MjIyEpUrVxbNmzcXtWvXnl+uXLlFCoXilVYhkIxOClDA0sllJ2lVCri7uzd7/vz58nz58jV69+7ddyYmJkF16tS5Ym9v/1aVcTAXAggggAACCCCAAAII5F2B0NDQwmfPnnWNior6/vTp04byyOD79++zEzI0NBSFChUSVatWlcWr+AYNGswbMmRIQN7NmMgR+FiAAhZvBAK5KODh4TEgOjp6zYkTJwq/fPky6y+UR+3atRs8YcKEQ7k4NUMjgAACCCCAAAIIIICAFgmsWLFibVBQkNOFCxfyP3/+/KPiVb58+USJEiVEgwYNnltbW08qWrTooUmTJt3XovRJBQFBAYuXAIFcFPjuu++2+vj4DLp9+7ayoaL8rYi5ublo27atqFat2vpKlSr95OzsfDMXQ2BoBBBAAAEEEEAAAQQQyKMC7u7uxiYmJkNv3rw5Lzo6uszZs2eFLF5l3TIo+13J4pVs1N6sWbNHtWvXXlahQoWfu3Xr9jqPpkzYCPxPAQpYvBwI5KKAm5vb1m3btg1KTExUFrDkI/+SMTExEfXq1ZNbexNr1qw509XVdXsuhsHQCCCAAAIIIIAAAgggkMcEfH19DW7cuLH14sWL/aOiooT8mUIeGczqd2VgYKDcddWmTRtRpUqV4AoVKnw7YsSI03ksTcJF4B8LUMD6x1R8EIFPF/Dw8Bh+7NixleHh4fkfPnz4lzPqFhYWwtbWVhay5pYvX969R48eLz99Fr6BAAIIIIAAAggggAAC2iKQmZmp9+OPP1bR09PbuW/fPutz586J1NTU7F1XMk/ZqF0Wr5o2bfqyYcOGdefOnZugLfmTBwL/S4ACFu8GArkssGzZMseoqKgdJ06cEH8uYsm/eIoUKSK3/L7u2bPn1vHjx4/M5XAYHgEEEEAAAQQQQAABBDRUIDg4uNTly5fHnjx50vXChQvF7969K1JSUrJ3XcnTHFm3DLZt2/ZqpUqVXMqXLx+pUCjSNTQlwkIgxwQoYOUYJQMh8N8FDhw4YJyQkDDpt99+mx4ZGVk0Li5OpKenf3TVrbwtpHHjxnIn1oOKFSvOMzMz81YoFGmYIoAAAggggAACCCCAgG4IrFy50vLBgwdHTp8+XfLixYvi8ePHyp8bsh59fX3lL7+tra3lzquzVlZWUxUKxVHd0CFLBARN3HkJEFCVwKZNm5qeO3duxL1795wjIiJEUlJS9l9I8jcpssF7+fLlRYsWLeQZ9s0WFhbjhw0bxpFCVS0Q8yCAAAIIIIAAAgggoAYBHx8f69u3bw++efOmY2RkZImbN2+Kd+/efbTrytjYWFSvXl3Ur1//RvXq1QMqVqz486BBg+6oIVymREBtAuzAUhs9E+uqwLhx4wolJCTcj46Ozi+LWPIvpz/+VkU2eK9du7bo27dvjImJicOzZ88eu7m5ZeiqF3kjgAACCCCAAAIIIKCNArJJ+507d1o8efLkl3379onr16+LtLS0v+y6MjU1lb/oTh8wYEDyvHnzvtBGC3JC4J8IUMD6J0p8BoEcFHBzc9MvWLCg3f//y+pIcHCwuH379l9+w5I/f37lbqz69esnNWrU6OeKFSuu79Onz/0cDIOhEEAAAQQQQAABBBBAQI0C8+fPX3Dq1KnJcXFxpo8ePRJv3rz5aNeVPKFhbm4u++XKI4NrK1Wq9IOLiwu7rtS4ZkytXgEKWOr1Z3YdFvDz82t57ty5dSdOnKgtbxZ59uxZ9l9YkkX+hSVvFqlbt65o1qzZkzJlyrQfOXLkeR0mI3UEEEAAAQQQQAABBPK0gLe3d4HHjx+vuX//vtPp06eF7HX19OnTj24YlL2uChQooDyVYWtr+7JSpUoLxo0btyhPJ07wCOSAAAWsHEBkCAQ+V8DX17f27du3l8bExFS5ePFitWvXrim3DWc9WbeMVK1aVbRp0+ZhjRo1fqhataqHvb3928+dk+8hgAACCCCAAAIIIICAagW2bNlicf/+/f4PHz78MiYmppEsXGX9AjszMzM7GHkSo2zZsqJmzZpPGjRoEF22bNmpLi4u8aqNltkQ0EwBCliauS5EpYMC8+bNe7xjxw7ze/fu6cvtwxkZ/2l7ZWBgIAoWLCh/A5NkY2PTsXjx4pdHjBiRqqen95+/7XTQjJQRQAABBBBAAAEEENBUgczMTL3Nmzcbv3v3rkpiYmJweHh4hQsXLoiUlBTlf+v/sXAlT1/I/96vXLlyeuvWrd82atTIacCAAQGamhtxIaAOAQpY6lBnTgT+i8CmTZvKXblyZUZMTMzICxcuGCQnJysbOGb9xSaLWEWLFhU1atQQVlZWz2rUqDF14sSJG8FEAAEEEEAAAQQQQAABzRNYv359l99//31xbGxsnatXr4qHDx9mF69ktPK0hfyfvGGwTJkyomvXrq8sLCycy5cvn+jo6HhS8zIiIgTUK0ABS73+zI7AXwRWrVo17fLlyz9FREToXblyRXmk8M+/nSlXrpxo3LixbPL+8+zZsycIIdiJxbuEAAIIIIAAAggggID6BfS8vb1HJyQk/Hjp0iWz+Ph4cePGjY8KV1kh5suXT5QsWVLUq1dPNmmPr1Wr1vB+/fqdUH8KRICAZgpQwNLMdSEqHRfYtGlTpwsXLkw+d+5cw8uXLxdPSkpS3lSY9cjGjoUKFZIN3t9YW1t716pV64IQwsvV1fW1jtORPgIIIIAAAggggAACKhcICAgom5CQ0D0hIaH+kydPXKKiosSDBw+ybxb88y+k5Y6rKlWqvCtXrtx5KyuryKJFi84bNmzYS5UHzoQI5CEBClh5aLEIVbcE3Nzc9AsXLjzk+PHjG+UNJXLL8R93Y8ntxlmFrPbt22c2atRozowZMxbqlhLZIoAAAggggAACCCCgXoEdO3Y0uH//fmhISIh5bGysnmzO/v79+4962soI5Y4rExMT5U3j7dq1EzY2NhMLFCiwql+/fhn0tlXvGjJ73hCggJU31okodVQgKCio4MOHD3vGx8ePPHPmjM358+fF69ev/9Ibq1ixYqJ69epy+/EJKyur/q6urr/rKBlpI4AAAggggAACCCCgEgFPT89hN27cmBIXF1dLHhOUv3B++fKlsniV9chfOstetrLPVaVKleRRwccVKlSYXrp06VgXFxd5ioIHAQT+oQAFrH8IxccQUKfAtm3byj558mTIpUuX+oeHh9dOTExUbkf+41+M8srdihUrZrZs2TK1fv36iQYGBq1dXFweqjNu5kYAAQQQQAABBBBAQNsENm/e3CchIcEzLi6u4OXLlw1v376t/CXzH28Rz8q5QIEC8r/RRevWrePKli0bbG5uvnPkyJHntc2EfBBQhQAFLFUoMwcCOSSwevXqxr/99tvW8+fP17h8+bKQvbH++MgjhWZmZrK5u6hTp86RsmXLLpszZ87BHJqeYRBAAAEEEEAAAQQQ0GmBDRs2NImKigoOC+LnYUkAACAASURBVAsrLntcvX379qMLlySO/G9yWbgqXbq08pRE2bJlD9euXXvM+PHjb+g0Hskj8C8FKGD9S0C+joAqBWRfLHNzc7PU1NSNx48f73vy5Enx/PlzZYP3rMaQcpuyoaGhkMcKGzVq9KJt27ZfTp48+ZAq42QuBBBAAAEEEEAAAQS0UWDhwoXBy5Yts5e/SP7zjiv53+DyqKC8bKlKlSpy19VTCwuLHgYGBjEjRoxIpc+VNr4R5KRKAQpYqtRmLgRySMDb27vAq1evml+5cqVXZGTk6GvXrolXr14pe2NlPfIv0KJFi4patWqJZs2apVpYWAyfMGHC9hwKgWEQQAABBBBAAAEEENApAU9Pzw7R0dEHt2/fbpCSkqLM/Y89riwsLISVlZWoXbt2bMGCBZdXqFAhXKFQ3NUpJJJFIBcFKGDlIi5DI5DbAps2bSrx4MGDn2NjY7+Mjo4Wv//+197t8rYT2TCyfv36qTY2NrcnTpxYO7fjYnwEEEAAAQQQQAABBLRNwMPDo3BiYuLjtWvX5ktOTlaegChYsKCoVq2a/IXx2RIlSvxaqlSp8yYmJoFDhw59pm35kw8C6haggKXuFWB+BHJAYNWqVUuio6M7XLp0yeLWrVvF5LHCP99+Intj1apVK6N58+brq1atGqmvrx84ZsyYVzkwPUMggAACCCCAAAIIIKATAsuXL+8ZGhr67ZMnT5RHCM3NzeV/Y9+sXbv2EFdX1+c6gUCSCKhJgAKWmuCZFoGcFAgPDze8evVqkbt37zY4e/ZsSGxsrJB/qcqmkllPVm8seaywRYsWonnz5jsrVKgwSKFQ/OfcYU4GxVgIIIAAAggggAACCPy/9u4EPqry3v/4yb7MZJJMMlnIHhIIi6yiVmoVbBWsiix3lFWjVUQtytWqbW+v2Ou/2rqW1iVXqIiANopoLdyq9SoqLlRRIIQQksmeyTJJJstkskwy//5OPd4AAQIEmWQ+5/WaVwLMnPM873MSZr7neX7PMBR47LHHoqV8h2xykzgkJKSDG8PD8ETTJY8TIMDyuFNCgxA4dYEXXnghuL29fXFxcfH9n376acbXX3+tdHV1qXeHtCLvsiqK3CnKyMhQLrroImXEiBEjV61aZTn1o/JKBBBAAAEEEEAAAQQQQAABBM6sAAHWmfVl7wicFYGcnJyRdXV12cXFxVd9/PHHEyoqKg4bjSWNCg4OVqTQ5Pnnn185btw4W3Jy8u+WLl368llpMAdFAAEEEEAAAQQQQAABBBBA4DgCBFhcHggMY4FHH300pqio6NO9e/emWywWpb6+/qjlfqXI++jRo6XwZGFqauovpk2b9rfLL7/8X8uqsCGAAAIIIIAAAggggAACCCDgAQIEWB5wEmgCAmdKYPXq1b6JiYlJNpvt2ry8vN/u2LFDaWhoUDo6Or4NsrTaWOHh4bJSoXLFFVf85N///d/Xnak2sV8EEEAAAQQQQAABBBBAAAEETlaAAOtkxXg+AkNQYPXq1f7p6emXWSyWWTt37vzpV199pTQ1NR1VG8tgMCjjx49XJk+eLDWynjMYDKuys7M7hmCXaTICCCCAAAIIIIAAAggggMAwEiDAGkYnk64gcCKB3Nxcv+Li4t8WFxff/fnnnyuHDh36tsi79lo/Pz8p7K6MGzeuKy0t7YsxY8bsiouL+4XZbHaeaP/8OwIIIIAAAggggAACCCCAAAJnQoAA60yosk8EPFxg/fr1U/Py8tZ/8cUXScXFxeF1dXVHFXmX1QojIiKUCy+8UJkwYcKbwcHBv8rKyso3m809Ht49mocAAggggAACCCDgJQIvvvhiVF1d3ajCwkIfp9MpswjkJmzJ9ddf3+AlBHQTAa8RIMDymlNNRxE4XCA3N9dYVlaWWVBQsPXTTz+NLy8vV9rb2w8r8i6jsWS1QgmyLr744vILLrhg5sqVK4uxRAABBBBAAAEEEEDAEwQeeeSRv+7evfuK/fv3+zQ3N0spjM5LL7309bvuumuRJ7SPNiCAwOAJEGANniV7QmBICqxbt25iXV1dzqeffjrpk08+CWptbVWnFbrd7m/7I0HW2LFjlfnz5xdccMEF02fNmtU4JDtLoxFAAAEEEEAAAQSGsoDPc889l+FyuTYdPHhwWmlpqSI3YaurqxUJr7q7uxWj0ajMmzdPef755/msO5TPNG1HoB8Bfqi5LBBAQBV4+OGH76iurv7JP0dkTdyzZ48i0wr7bomJibJCoXLllVdecvXVV++ADQEEEEAAAQQQQACB70IgJycnoLOzc3VBQUFWS0vLD8rLy6OLi4vV96sSWh25XXXVVcpbb73FZ93v4uRwDAS+QwF+qL9DbA6FwFAQWLNmzdsfffTRpIMHD0ptrCCHw6FOKxw9enTPnDlzyh544IGRQ6EftBEBBBBAAAEEEEBg6Ark5ubqq6qqkjo6OlJaW1vn5+fn/+Szzz5TGhoa+g2ttJ7GxMQoc+bMcT7//POhQ7f3tBwBBPoTIMDiukAAgcMEcnNzQ9rb29OtVuvVFovlgdLS0iCZUjh27Nj9o0aN+tGqVauskCGAAAIIIIAAAgggcKYE/vSnP11bXl5+XUlJyTV5eXlKVVWVIjdVpUh7T0/PYaUuZOEhf39/JSQkRAkNDVUuueSS5qlTp6645557Xj5T7WO/CCBwdgQIsM6OO0dFYEgIvP766xPb29tnyAgsf3//vy1atKhgSDScRiKAAAIIIIAAAggMGYHc3Fw/h8MR5nQ6f19YWLisoKBADa3q6+sVu92udHR0HNYXHx8fRXvo9XolKSlJmTJlSvvEiRPfjo2NfW7JkiXvDJnO01AEEBiwAAHWgKl4IgIIIIAAAggggAACCCCAwGAJ5OTkzLBarYuqq6tDnU5nVm1t7RQJr2pra49aVKjvMSW0kvqsaWlpyogRIyxxcXH7DQbDH9LS0v7XbDb3DFb72A8CCHiWAAGWZ50PWoMAAggggAACCCCAAAIIDEuBRx99VNfU1KQ3Go3JPj4+5uLi4nv+8Y9/KFKQXUZayaj//jYZbRUUFKSEhYUpsbGxPYmJiR3jx4/vmjBhwofLli27Zlhi0SkEEDhKgACLiwIBBBBAAAEEEEAAAQQQQOCMCbz55puTa2tr4ywWy38UFRVdaLFY1GLsra2tal0rqbcqta36bhJaBQQEKMHBwYqMuIqPj1cmTJjgHjt27LMGg2GDwWCoXrhwYcUZazQ7RgABjxMgwPK4U0KDEEAAAQQQQAABBBBAAIGhK/DFF18E5OfnBzocji8PHDgw2mq1KjabTamurla/trW1KZ2dnf12UKttJUXZExISlMmTJ/dOnjzZFhUV9WRMTMxHc+bM2Tl0ZWg5AgicjgAB1uno8VoEEEAAAQQQQAABBBBAAAFV4Nlnn7330KFDUd3d3WOcTuf44uLitKKiIjW0kkLsbrf7mFJ+fn6KTqeTmlZKRkaGy2QyfWkymZoSExP/vnLlyschRgABBAiwuAYQQAABBBBAAAEEEEAAAQROWiAnJyfAarX6jBs37lcNDQ0X7ty5c6bUtJIVBGWU1fECK19fX3WKoEwPNBqNSnR0dG9MTIw7Kyur95xzzrl7yZIlfzjpBvECBBAY1gIEWMP69NI5BBBAAAEEEEAAAQQQQGDwBLZs2ZKuKEpKQ0ODjK56PC8vL0KmBjY1NSktLS1Ke3u70t3dfVRBdpkaKKOsJLQKDQ1VC7JHR0crWVlZ8thiNBrX6fX6dn9//4JFixbVDl6L2RMCCAwXAQKs4XIm6QcCQ1Bg/fr182traze6XK6AlJSUz5YsWfL9IdgNmowAAggggAACCAxrgbfeeivTZrOtLSsrm26xWHzsdruPBFZVVVU+UoxdC62OhxAYGKhERUUpmZmZygUXXGBPTU19Sa/XN4WGhr48f/78gz4+PseeXzisdekcAggMVIAAa6BSPA8BBAZV4I033kj6y1/+8tXXX38d5XK5lJSUFCU1NXVncnLy2wkJCc8uWrTINqgHZGcIIIAAAggggAACJxTYsGGDzu12LywtLTW1traOdTqd8a2trVk1NTUJlZWV6vRAh8OhyPu3420y0io8PFwtxJ6cnNyg1+sPyIir6OjoPenp6X9aunTp7hM2hicggAACfQQIsLgcEEDgrAjk5OTc//jjjz986NAh9fhSB0GGkl944YXK9OnTdxuNxtkrVqyoOyuN46AIIIAAAggggICXCbz22mtXNDc3T6qrq5tdXl5+YUFBga+8T5MC7F1dXaqG1LQ6Vl0rmR4YFBSkvp+TmlYxMTFqQfYJEyZIkHWun5/f3qlTpypTp051MdrKyy4uuovAIAkQYA0SJLtBAIGTE3jqqafannrqKV1ZWdm3b4S01Wfi4uKU888/X/ne9753c2xs7P/Onz/fcnJ759kIIIAAAggggAACxxL461//Or6trU1fV1cnAdW9Vqt1bnFxsSK1rGR0ldPpVFcN7OzsVEda9RdaSU0rf39/NbQKDg5WDAaDGliNHz9eiYuL+01iYuJHYWFhrT4+Pv8wm83/SsDYEEAAgdMQIMA6DTxeigACpy6wdu3ah9auXfvLPXv2qG+S+m7yZkju3I0bN65z9OjRnZmZmU/efffdq0/9aLwSAQQQQAABBBDwboG33norurGx8eHy8vJrSktLg202m29ra6tSX18fKqOstALsx1s5sK9gSEiIEh8fr46wGjt27K6YmJgder3e2tPT80pkZGSd2Wzu8W5xeo8AAoMtQIA12KLsDwEEBixw3333vbN3795L9+zZ42u1Wo+6uycjsmT4+eTJk9tHjRr16ogRI7YFBwf/ZeXKlZ0DPghPRAABBBBAAAEEvFjgrbfeCi0oKLj70KFD19TW1k4pLy9XpJaV3W4/5uiqI7nk5qJMDYyNjVVMJpPcaKwyGAzW6OjotpEjRx6MiYn5ldlsrvdiZrqOAALfgQAB1neAzCEQQKB/gZycnFB/f/+tn3766WVffvmlItMJ5e5f36KgMjxdVq2RIOuiiy7qnjBhwnNZWVnPX3PNNftwRQABBBBAAAEEEDi+wB/+8IeZ77zzzl8++OADnUwL7O3tVR/HGmmlvffS6XTqtEAZFa/X69X3YllZWVKU/UODwXCn2+229Pb29ixbtszBOUAAAQS+CwECrO9CmWMggMBxBXJzc9Oqqqrmf/bZZ49+/vnnitRjkJoLfd9cyUo28iZKG6o+bty4LSaT6YHMzMziGTNmdECMAAIIIIAAAgggcLTAypUrq7dt2xZvsViOCq0krJIR7/KQ91rykJpW8n4rMzNTGTlyZJ6MrpLVA4OCgrrNZvM2jBFAAIGzJUCAdbbkOS4CCBwl8NRTT13d1ta24eOPPw7ftWuX0tzcrPT0HF4+Qd5YRUREKCkpKUpSUpJt2rRpLenp6fOuu+66PZAigAACCCCAAAIIHC5wyy23uLdt26ZUVVUdRSOj3KOiopTk5GQlLS1NRlcVGgyGt2WqYGVl5R+SkpKali9fbsMUAQQQ8AQBAixPOAu0AQEEDhP47W9/+/SePXu+X1paOqGgoEBpbGw8SkhbsVCGsk+aNKktPDx8XUpKyvsxMTHvmM3mw6vC44sAAggggAACCHipwG9+85uXd+zY8W/5+fl+QiDF1+VmYExMTJtery+Liorqjo6OLk1JSamNior69Zw5c6q9lIpuI4CAhwsQYHn4CaJ5CHijwPvvv++/b9++yJ6enk8++eSTjH379qnLOre1tanTCrVNG/YeGhoqdwyV6dOnuzIyMtaNGjXq83nz5r3gjXb0GQEEEEAAAQQQ6Cuwbt26MKvVurmqqupKee8kJRni4uLyQ0NDf+7j4/N5XFxcj9PpbGLVQK4bBBDwdAECLE8/Q7QPAS8XeO211y7ft2/foo8++mjhgQMHApqampTu7u7DphZqxUZldRyp0TB69Ghl/Pjx29PT0x+KjIwsnDdvXoOXM9J9BBBAAAEEEEAAAQQQQGBICxBgDenTR+MR8A6BRx99VOfv7/+zysrKhbt37x6Vl5enTis8sj6WaMjUQgmypEZWSkpKy9ixYyvT0tKWLl++fLd3aNFLBBBAAAEEEEAAAQQQQGD4CRBgDb9zSo8QGLYCmzZtSq+srHy0tLR0Uk1Njb6goCCmvLxccTiOXr1ZRmXJKjoZGRnKtGnTlNTU1Hf9/f0fT0xM/OL6669nRNawvUroGAIIIIAAAp4n8Pvf/z6zq6trdnt7+7ktLS1qAyMjI2XVvz+ed955u2fMmOHyvFbTIgQQQMCzBAiwPOt80BoEEBiAwLZt21IqKip0xcXFW/bv359VWlqq1NTUKPKG0OX6v/d/Wo2s4OBgKVSqTJ48WQq+/z09Pf2VxYsXrxvAoXgKAggggAACCCBw0gKvv/56jMPhmOV0On17enrG5+XlmQsLC5NKSkoUm82myHsUeW9yySWX5E+ZMuWHy5cvt570QXgBAggg4GUCBFhedsLpLgLDTWDr1q2XWCyW6z/88MNFX331VWBDQ4PS2dmpTi90u91qd+VNor+/v6LT6dSlotPT05ULLrigPi4ubp7JZMo3m81HL3M43KDoDwIIIIAAAgicEQG32+3z6quvJn1Tp3N0R0fHw2VlZVPz8/PVsKqjo0Npbm5WF6OR9yhSy1PemwQEBCgzZ86UEGv6/fff/8kZaRw7RQABBIaRAAHWMDqZdAUBbxV44YUXgktKSr4XHBx8a0FBwaWffvppVFlZmdLV1XUUibxhlCArKSlJSU5Oto8cOdIybdq0D7Ozs1d5qx/9RgABBBBAAIGTF9i+fXtQbW3tIxaLZWx1dXV6fX290traarTb7Uap1SnhldPpPGwF5SOPMnPmzKpZs2bNuPfeew+dfAt4BQIIIOBdAgRY3nW+6S0Cw14gJydn0cGDB++urKxMsVgsURaLRS34fuQmQZavr6/UxlJrZKWnp79rMBi2mUymV2+66abqYQ9FBxFAAAEEEEDgpARyc3ON9fX1M9vb2y+rra2VEVQ3y/sMKWUgN87k/UZ/N8/6O0hgYKDcSFMuv/zyfdOnT//RokWLak+qMTwZAQQQ8EIBAiwvPOl0GYHhLpCbm+vX0dExuba29sVdu3aNlSH8dXV1it1uV4ft991kaqEM4ZeVC7OysiTM2pWenv6swWCoj4iIeP+qq65qH+5e9A8BBBBAAAEEjhbIzc0NcbvdM1paWsKkzmZjY+M9xcXF5x48eFCpqqpSR1dJ7U0pWyBfpXSBVr6g7960hWVCQ0OViIgItXi7Xq9Xzj//fFlsZuEtt9zyCv4IIIAAAicWIMA6sRHPQACBISywZcuWxMbGxoc++OCDRR9//HGABFkSYvWtkSXdkzeXISEh6pvK2NhYdWTWpEmTDgQHB89JTU21m83m+iHMQNMRQAABBBBA4AQCubm5JqlTVV1dHRgREfFfNTU12YWFhYqseCwBljzk3yW4kpFW/YVV2nsKPz8/RXvI+4u4uDglMzNTmTJlyoHRo0evCwwMrPb393+TG2VclggggMDABQiwBm7FMxFAYOgK+DzxxBNX1tfXn1tbWzt3//7958ioLIfD0W9dChmVZTAYlISEBKmV5RgxYkRJZmbm/+j1+l/ffvvtbUOXgZYjgAACCCCAwJECL7/88ojS0tJf2my2H1RUVMhIK53T6UyTGlYyLVCCq+MFVn33J6O65T1EWlqaumhMfHx8cXh4+Ne1tbVbRo4cqSQmJu5dtGjRfs4CAggggMDJCxBgnbwZr0AAgSEssGnTpqlVVVUb9+zZE2axWOJLSkp85Q3qkSOytC5KjQpZ5nrChAnK+PHjD5pMptd1Ot0rt912294hzEDTEUAAAQQQ8EoBWfilq6trYm9v77x/FmAPllUBe3t7Z+3Zs2dUSUmJYrVa1cBqoJtMC5TR2zLCKiYmpkm+DwkJsWdkZLhjYmKeu+mmmx4d6L54HgIIIIDA8QUIsLhCEEDAKwXWrFlj6uzsfGr//v2L9u3bp8jKQbL8dXt7uxpmaZtW7F2CLHmkpKQoF1xwQVNmZuavo6KiSiIjI/Pmzp1b7JWIdBoBBBBAAIEhILBp06Y5crNKRlE5HI4llZWVCw4dOqRIYCVTAuX/fQmypI5Vb29vv6Oz5f2AjNAODg5WVzOW4Eq+StkBGWmVkpLyodFovGvEiBHK1Vdf/bWPj497CNDQRAQQQGBICRBgDanTRWMRQOBMCKxbt05WEXp0x44dhsLCQh8p9n6sYqwSYsnUgOjoaHX1oIkTJ3ampKTc7HA43khLS+s0m81dZ6KN7BMBBBBAAAEEji+wffv2IKvVGihhlU6nC3S73WsqKysXSR0rWSlQQioJrOTR0dGhPiSw6m+TwEq7iSWrFkt4ZTQa1bBqzJgxnWlpaXtiY2M3GwyG3Pnz51s5NwgggAACZ16AAOvMG3MEBBAYAgIvvvjihKKiogs6OzsXV1dXn79v374gWRq7tbX1mG9sZeVCmTIgdS4iIiL+MWbMmLLU1NT7b7jhBkZkDYFzThMRQAABBIaHwPbt201VVVUPlJeXJ1VVVcXLqGpfX98RNpstQb5vaGhQVyKWsOpYhdf7SmgLuyQlJak3q1JSUlqDgoJedTqduxMTE+Xvyo1G4+fz5s2rGx6C9AIBBBAYGgIEWEPjPNFKBBD4DgU2b96cXVZW9rhMLygtLdUVFxcH1tbWqndu+3vjqxV9Hzt2rCyJ7Ro5cuQjt91226++wyZzKAQQQAABBLxCYPXq1b7x8fFher3+5zU1Nepoqvb29h9ZLJYpUoC9rKxMDaxkuuBANxldLTelZIRVcnJyT3R0dGdQUFCnrEicmJh4wGg03rFgwYKvBro/nocAAgggcGYECLDOjCt7RQCBYSLwxBNP3FRcXPyHvXv3hlRXV6urEcmbZW2KoXRTm2agrTw0depU5Zprrrns1ltvfXeYMNANBBBAAAEEzorA1q1bIxwOx3ny/6+sHux0Ohc0NDQsLi0tDS0qKlKam5vVqYASWEktK62O1bFGWslNp6CgICm0rj6kjpUEV7Ly8MiRI9uTkpIeTElJ2X7llVfmnZUOc1AEEEAAgWMKEGBxcSCAAAIDEHj++ecTm5qa/vbxxx+P2bVrl6/c3e0bYmm7kDoZ8iZ4yZIlrlGjRmVmZ2eXDmD3PAUBBBBAAAEE+gisXr3aPzU19fGKioqV+fn5ag0rCatkar/T6fy2htWxVhHWdiU3mWSTr35+ftooKyUrK6s3PT29JjExccPNN9/8c/ARQAABBDxfgADL888RLUQAAQ8R2LBhQ0x9ff2VNTU1lzU0NEw/ePBgohSGlbvCfVculBWJrrvuup6JEydeeuONN+7wkObTDAQQQAABBIaEwPr166fu3bv34fz8/B/JtECthtWxpvL31ykJq8LDw5X4+HiZBqiuItzT0/OSv79/YUxMjNxsqoqIiPjsuuuuOzAkUGgkAggggIBCgMVFgAACCJyCQE5OTrTT6XyvtLR0gtTbkCBLCsTKHV5ZoWju3Ll/X7Vq1Y9OYde8BAEEEEAAAa8WeOyxx3a+/PLLF+bl5an1J0+0ybTA4OBgJSoqShZVUUwmkyI3kyIjI9VR0bGxsZ/p9fqZZrPZeaJ98e8IIIAAAp4rQIDlueeGliGAwBARyMnJyaqpqXm3srIyUe74JiQk7D733HPnz549m+mDQ+Qc0kwEEEAAAc8RuPvuu3euX7/+wqamJnXlwL6b/D8rRdclsJIaVnq9Xi3ALuFVVlaWEh0dvcNkMm1YsWLFC4qiuD2nV7QEAQQQQOB0BQiwTleQ1yOAAAKKoqxZsybI5XL5CoZOp3MtX768GxgEEEAAAQQQOHmBBx98cOemTZsulLpXfVcTlDqTElYlJSWpYdWYMWPkptEv3nvvvadkmqD8/eTJk7tnzJjhOvmj8goEEEAAAU8XIMDy9DNE+xBAAAEEEEAAAQQQ8CKBDRs2nH/gwIEH8/PzL7HZbEEy2io+Pt7h7+//anBwcMM3Naw6DAbDloULF37lRTR0FQEEEPBqAQIsrz79dB4BBBBAAAEEEEAAgYEJ5ObmzrLb7RNlNcCOjg5Fak/JyKelS5f+dmB7GPizcnNzA+vq6m4KCAh4pru7+zWdTve0Tqf7yGw29wx8LzwTAQQQQGA4CRBgDaezSV8QQAABBBBAAAEEEDhNgffffz+4uro6q76+PqClpUX2dnlnZ+edZWVl0UVFRYrValUcDodah2rcuHHK/PnzN9xyyy3Xn+ZheTkCCCCAAALHFSDA4gJBAAEEEEAAAQQQQAABVWDjxo3X19TUPFJYWBh66NAhn5qaGqlDFdbe3q6OupKHrAwoxdWlJpXRaFSWLVtWd84550zMzs6ugREBBBBAAIEzJUCAdaZk2S8CCCAwyAIbNmwYb7FY7svLyzM4nU516oasujR27NiOqKio+7Kzs1n1cJDN2R0CCCAwnAXWrl17XktLyxyr1Tq+srJSAqlzm5qaRtTX1ys2m01paGhQ2trajloJsK+JFFVftWpV5a9//euk4WxF3xBAAAEEzr4AAdbZPwe0AAEEEBiQwJNPPvnk1q1b79q9e7d6BzwgIEC9852VleWeNGnSP8LDwzcZDAYlOTlZmTdv3poB7ZQnIYAAAgh4jcArr7wyr6mpKdHhcMR3dHTMraioiLVarREWi0Wprq5WWltb1bDK7XarD9m0r0ci+fj4KKGhocrEiROVRYsW/fqOO+54wGsg6SgCCCCAwFkRIMA6K+wcFAEEEDh5gbvuuuuZzZs3r5C74vIBQz48yPQNCbKkDoler1dkZSapRzJmzJgnXC7X+vDwcLcsKz5v3ry8kz8ir0AAAQQQGIoCb775Zlhzc3NKU1OT4nK5Yru7uy9xuVy/LCws9JEaVjLaSsIql8v17aOnp+eYI63k/xsZ9RsUFKQ+JLiS/3fi4uJ6EwVwJQAAIABJREFULr744j8/9NBDi4eiE21GAAEEEBhaAgRYQ+t80VoEEPBigZ///OfPvPLKKysqKirUDxxHbhJmBQYGKjqdTkZmdYeEhNhjY2PVu+MTJ05ctXTp0k1ezEfXEUAAAa8Q+POf/3xPeXn5LcXFxRGFhYUyFTC0s7NTJzWs5CFT0KWGlQRWx9sktJJNvsqNEvn/JDMzU0b9yvcPVVRUvBIZGdmbkpJScfvtt7d5BS6dRAABBBA4qwIEWGeVn4MjgAACAxfYuHHjpV9//fUfd+7cmXXgwAFFljE/1tQO2avcLZfaJPHx8cqoUaMaAgICPoiMjHSNGjVKMZlM/3n99dcXDvzoPBMBBBBAwNMENm7caLDb7T+rqanJrKqqCvDx8Zlhs9ki6+rqFKljJTWsTvR/hdYnLbCSmyESVsn/HYmJiY7IyMidISEh7ZGRkUpCQoIzLCzsxWXLlr3taRa0BwEEEEBg+AsQYA3/c0wPEUBgGAmsW7duhM1me7uwsHB8aWmpupR5bW2tOhWkq6vrqJ7KBxJ5+Pn5qdM+5ANIRkaGMmnSpH16vX5tWFhYR0JCgrJ48eL/HkZMdAUBBBAYdgIyLdDhcFzZ2NgYJr/3FUUJ7erqml9UVPT9kpISdVqg3W4/rIZV31pW/YHIqN3w8HD1IYFVdHS0evNjxIgREmIVGI3G9Uaj8Umz2Xz0fzDDTpgOIYAAAgh4ugABlqefIdqHAAIIHENgw4YNtx48ePCOvLy8cfLhRWpjydQQeUiYJXWy+m5azSz5cKLVzJJVDMePHy9TDDc5nc6HgoKCXImJicrSpUuLgEcAAQQQOHsCL730UoaMopLRVGFhYYaurq7lFRUVt8i0wLKyMnUxD5lOLtMBu7u71SmBR/7e79t6+d0vUwHlZoZMNZfvZZSuTAtMSUmxpqWlPbJy5UoWADl7p5wjI4AAAgicQIAAi0sEAQQQGKICq1ev9k1JSYmpr6/PlJFYMTExN5eXly/9/PPPFRmdpU0bOdYdeK0AvHyAiYqKcgUHB9dGRUX1nHPOOcrkyZOfuuGGG54cojQ0GwEEEBiyAmvXrjW2trbmlJSUnHfw4EFF6h76+/vrOjo6omSElcPhUG9UHC+s0kbfCoL8rpc/m0wmJT09Xa1hlZSU9GRNTc1WuZkhC31ERkbWp6amFs2YMePoAotDVpKGI4AAAggMNwECrOF2RukPAgh4rYAEWgkJCbNaWlrurampURobG1MqKytTCwoK1Foo8oFHtmPVzZK787KylEwdycrKcoSGhr6t0+la5O68TqdbFxERsX/x4sVNXgtMxxFAAIFBFsjNzQ23Wq0LGxsbz5dRVS0tLTKdb0ZZWVmKNkVcmxZ4okNrNazkd7lMBYyLi1PS0tKc0dHRu+TvjEajhFi1kZGR7yxbtmzdifbHvyOAAAIIIOBpAgRYnnZGaA8CCCAwSAKbNm1Kt9ls/1FRUbGsurraT0KtqqoqdTqK3MEfSM0sg8Gg1swaOXJkj8lk2hMWFvZ2dHT0AZPJtHvBggX7B6mp7AYBBBDwFgGf3//+90u6u7vPCQoKmlRZWRlpsVjOlWng5eXlaoAlI6u0x4lqWMl0QL1er0REREiBdbXOoUwNlBsRUVFRX0VFRT13xx13UOPQW64u+okAAggMcwECrGF+gukeAgggoAls3Lhxyb59+/7f3r17E8vKynwbGxvVIEvqp0gdlf5qZmnLp8vde3mEhIRIAXhl3LhxUvD3z76+vo+1t7dbpZbWiBEjWubMmdOKOAIIIIDA4QJut9vnqaeeSuvt7X31rbfemiJTA6VulVbDSupX9fd7uO9eZDEOCae0hxRgl5FW6enpvenp6bZJkyY9f8MNN/wH9ggggAACCAxXAQKs4Xpm6RcCCCDQj0BOTs7IlpaWrPr6er/Q0NArysvLl+/evVutsSJ3/uVDlDbFsL+phhJoyWpVcsdfvkZGRvb6+/sfSk1NlVFatoyMjB0LFy78JfgIIIAAAv8nsHbt2ke2b9++KD8/P0lGwsrNg4HUsOq7kqyEVSkpKfK7VkZblblcrjW+vr5F8fHxPXq9vuLmm2/eizkCCCCAAALDWYAAazifXfqGAAIInEBg/fr15oaGhlU2my20trbWeOjQoUSZyiKjs2SFqxNNX5EPV98UgZcl19Vl2KUgcE9Pz9q0tDRXYGDgC4qi7Fm5cmUnJwMBBBDwRoHc3Nyx+/fv379582bl0KFD/RJo9avkH2WEldSrkhpW8oiMjGyMjIy0xsTE9ERERBzU6/VvGQyGv5jN5mZv9KTPCCCAAALeK0CA5b3nnp4jgAAChwn86U9/Sq+rq/tjRUXFD+rr63VS+F1GCkiY1dbWpgZa/W3aCAFtpSuZ5iIjBb6pnSWh1vb4+PjWxsbG15KTk6WI8GdXXHFFJfwIIICANwjk5uZO2rNnz1evvPKKUlxcfFiXZRqgLJ4h9QblITWsZLXAb4Krz4xG44cRERGvulyuPcuXL+/2Bi/6iAACCCCAwLEECLC4NhBAAAEE+hXYvHnzVfv27fvv/fv3mywWi58EWhJiSfF3qdUij2OtaChhlowikLpZUmRYPqDFxMQoY8eOlRUOG9xutzkkJKQ4JibGtmzZMgenAAEEEBjOAuvWrXt548aNC/bu3esvta/kd6SEVxJYyajV9PT0prS0tPLU1NSNCxcufGw4W9A3BBBAAAEETlWAAOtU5XgdAggg4AUCGzZsSGtubj6vvr4+2OFwxPv6+j5cUFCgToOprKxUixBL3Syp5XK86YYyKks+rGmjDGTFrOjo6OZJkyZ9mZmZecONN95Y4QWcdBEBBLxUIDc316+wsPCatra2pR0dHXMCAgIOylTrkJCQelkEIzQ0dH9cXFztNddcw+9CL71G6DYCCCCAwIkFCLBObMQzEEAAAQS+Edi4caOhu7v7N01NTXNqa2tlNJaPxWIxlZSUBFqtVnW6oVaY+FijszRMGZV1zjnnKFddddUHJpPpMqbHcJkhgMB3LZCTkxOq1+tnORyO78tCFhEREbV+fn452dnZ9jPVljfeeCOJoOpM6bJfBBBAAIHhLECANZzPLn1DAAEEzrCAjCqoqKi4sbKyUkYWXCEhlkw1bGpqUlpbWxW73a5OOZRRWkduUjtLphcuXbq086KLLrp42bJln5/h5rJ7BBDwUoHXX389pqur6zybzSa/j0Z1d3dnSthutVozm5ubZ9bX1/s0NzertafGjRv3bnJy8rLs7OwaL+Wi2wgggAACCHikAAGWR54WGoUAAggMXYGcnJy7a2trHzhw4EBQfn5+oHxglCLwR9bO6hNgub73ve9dfOONN34ydHtNyxFA4GwLuN1unw8++CCosLDQ1263+/n5+QVJm9ra2iJCQkI+rKysjC8vL1dKS0sluFKDdanlJ1OhtWnQMt158uTJyuzZs98xmUxzly9f3n62+8XxEUAAAQQQQOBfAgRYXAkIIIAAAoMusHXrVqmbldDQ0JAqI7Ha29tTmpqa7szPz1fKysoUGekgNbHS09OVBQsWfBgeHn7ZypUrOwe9IewQAQS8RuCZZ565z263X15dXR1SX19vdDgcoySgkt9BMr3Z4XDI7yL1qyxI0d80ZymuPmbMGAmwvs7Kyrr0Jz/5SaPXANJRBBBAAAEEPFyAAMvDTxDNQwABBIaLwIsvvrjA6XQ+abPZIuUDpaxSGBUV9ZXJZLptyZIl+063ny+88EJwV1fXku7u7rSQkJDqoKCgl4qKitpWr17de7r75vUIIOAZAmvWrAmKi4ub39DQMM5ut0e43e5FPT09ERKKFxUVKTLis6Gh4dtHf9OXj9cTmdY8c+ZMZdasWXffeeedT3hGr2kFAggggAACCIgAARbXAQIIIIDAkBd4/vnn00pLS/++f//+dPkgK6scJiYmVkZERGyPjo5ucLlc740YMUJZuHDhe0O+s3QAAS8Q2LZtm4zazJDFItxu94Tu7m5TZ2enjN6c3dTUNKmmpkadBlhRUaE4nU51NJVMA+y7Iqq2oMSxuGQac3BwsKwAqISEhCg6nU5+byjnnXfe5ocffnixFzDTRQQQQAABBIaUAAHWkDpdNBYBBBBAoD+B3/3ud//5zDPPPCgfauVDq0wD8vf3V0d5RUdHK2lpacr48eOVadOm/dfBgwdXyz4eeOABt3yA/ee3blQRQODsCEjdKjnygw8++O170tjY2LnNzc2by8vLA2XKcXFxsTqySn62pV6VTAuUkVVaYDWQoEp+J2gP+d0gta7k5z8hIUFJTk5WUlJS3PJ7IiEh4aqlS5duOzsaHBUBBBBAAAEEjidAgMX1gQACCCAw5AV+9rOfrVu3bt2NUufmyE1qben1eiU8PFwdXREZGSmjLtoNBsOejIyMmtjY2N9lZ2d/NuQR6AACQ0hg9erV/lFRUf/R3Nx8cWVlpQRSP6irq/OVMEqmAMpKplrNKlkEQmpWnWiTQEp7SFilfS8/+7K6oPYwmUwfBAYGfijPkd8HOp2uLDAwsMRoNJbPnTu3+ETH4d8RQAABBBBA4OwIEGCdHXeOigACCCAwiAL333//A6+++upqmU4kqx0eb5MPrTJdSD7MJiUlSSH5npSUlB4ZlaHT6Wp6enrWGo1G+f4Ns9l82rW5BrGb7AqBISfw2muvXd7U1HSe3W5XgoKCZjscjqkyeqqurk5WAwyw2Ww+EljJCCt5zsnWrNJApHaVTB2WQEoe8fHx6iIRMgpTAmyDwVDk5+f3SkREhMXf33+D2WzuGXKYNBgBBBBAAAEvFyDA8vILgO4jgAACw0EgJydnxscff/zCwYMHU2QaoRSJl4d8GO5vpTFtZIZMI9KmFcn3JpNJkVpZ8lWmFul0uj/qdLpyeY7Ux2lvb98p/x4SElKxcOHCiuFgRx8QOB2B1157LbOqqsrk4+OT0dnZGSsjpWQUVUtLi9HHx+cOu92ur6qqUkdUSX06+V6mAMpztJ9P+RnValidKHyWmlUSQGs1q6KioiQYU+tYRUdHO0JDQ/ckJiZ2G43GP69YseLZ0+kbr0UAAQQQQAABzxIgwPKs80FrEEAAAQROQWD16tW+Op0uJDAwcE1JScmN+fn5ijxkCpLUzNHq5mgFno91CAmx5KHVyJHphzKCQ/5OPijHxsZ2pqamysiODqPROGH58uXlp9BcXoLAsBDYtGnTJIvFsjMvL8+vurrav76+3q+lpUUNpySkkp87Cankey2g0r4/UVDVX80q+VmUYDklJUWtW5WUlFQWFBR0tdVqLZNRV6GhoVLPrjMjI0OZPXt2l4+PD/XthsWVRicQQAABBBD4lwABFlcCAggggMCwEti8efOPGhsbM1paWsbIdMK6urq46urqfysqKlJXLZORWX1XKtNGfxwPQUZsySgPGYUlD5mSJPW05HsJt2Q0iF6vLzUYDAdMJlNzUFDQLqPRuH7x4sVNwwqXziDwjcB999234sCBA08UFRUFa/WqZPSVhFb9jXrsD05+riSokk0LrOT7b8JidZpvbGysYjQat+v1+mIJsGSaoMvl+h8ZJRkeHr73qquuquKkIIAAAggggIB3CBBgecd5ppcIIICA1wrk5OQEdHZ23tjW1vZvnZ2dl8oUJqmVVVtbe1ix6JP50N0XUwIsCbekbpZ8qJavYWFhMjrEFhkZ6dI+nIeFhTV2d3e/Ghwc3CYfzK+99trHvPak0PEhL7By5Urn+vXrg6XA+olWAeyvsxL6Shil1a2SQFhq0snPk/xdd3f3s9HR0e2RkZFfdnZ2bs3Ozj5xFfchr0oHEEAAAQQQQOB4AgRYXB8IIIAAAl4l8PLLL6fW1dUtt1qtMyorK41tbW2ZsnqhfAiX0VkyBcrpdCqdnZ1S80r9eqLtyJXP5PlafS0twJKi0hJuyYpoMg1KpjyFhIS8GhAQ8I5er29MTk7+yGw215/oWPw7AscSyM3NDfT39x/ldrsD5Tnz58/ffaa0brnlFvemTZvUn5H+wl8ZUSVTcaVmlTxkOu43darUnw2DwSBBVXV0dHRNXFxcW2Ji4pNLly5940y1l/0igAACCCCAwNAXIMAa+ueQHiCAAAIInKSA2+323bRpk76mpibQz89PL8WlZYuIiLjObrc/LCO0qqurFYvFoq6WptX0ka9a8em+0xAHcnitrpb2wV4+xMuHepmGOGLEiK4FCxY8u2rVqrsGsi+eg8CRAhs3bry2paXldw0NDfre3l51Xl5MTMxzK1as+PmZ0Fq1atVf3nzzzatkJKO2cqBWP04CXbm2JayVUVUS3sbExMh1XtLQ0DBTAi0Ztejn59dhMpk6dDqdy2w2t52JdrJPBBBAAAEEEBg+AgRYw+dc0hMEEEAAgUEQ2LJlS6LD4TivoaFBPmDPkxFZLpfLt6mpaaLD4RgrqxxWVlYqNptNHa0lI7S0AtVaPa2B1NXSmiqBlkyZ+vGPf9wybdq0W1euXPnyIHSDXQxxgQ0bNsxsbW39QU9Pzzlyjck198+aT/NkdKCERlJvShv5JGGq3W5XH33/XmpJTZkypfLiiy+eNG/evIbBJPnjH/84ymazPVJeXj5XRmFJKBUWFlYSGRn5iYRXEmbJiKuOjo7Xvxl56AoNDf3oyiuvpC7cYJ4I9oUAAggggIAXCRBgedHJpqsIIIAAAqcm4Ha7fV566SVTe3t7vKIoN5eVlfkGBgbO6erqGiGF4mVltcLCQkXCLRnNJVMStRUQB3JE+cA/ffp0WTlty7333rtgIK850XO2bdt2TlFR0Q9CQkKu9fX1jdae393dXdDe3v6eTOGSaYwSoAUFBX344x//eN+J9sm/n7zAG2+8cbtcH7LJSCUJPXt6ei719/fPkuBJrhO5XrRRTPI8KYReX1+fbLfbdRIOyTUmgaqEU/KQ50uodWTtqSOn8sm5nThxopKdnf2Tn/70p+tOvvXHf8X7778fbLVab+7t7R1dVVX1dHR0dPNNN91UPdjHYX8IIIAAAggggIAIEGBxHSCAAAIIIDAIAk8++eRPGxoalldVVfna7faMpqYmKR7/bXAhK7VJGCFhhoQQWvAlT5Ag6Yc//KFjypQpt99zzz0vnm5zfvWrX41rb2//Y15e3iXaqovaPr8JrNSV3uQhfw4NDe0MCgra1Nvbu/3IY8tIGll1UR4y7cvlcrX7+vqWRUREuCV467u5XK5is9ncdbrtPxuvz83NjfP394/se2wpUC7BkU6ny5KF8uTf5JzK38ujb+jUj1uo2+2+vrm5+VJ5noRL8lVGSUnQKdeB/FkCT1kdUwu5ZD99R/Rpf+47qm+gRdNlKl9WVpZy6623brvzzjuvPBuuHBMBBBBAAAEEEBgsAQKswZJkPwgggAACXi0gBbQVRTFWVVX5hISExLS0tPjJSBrZ5GtPT89NDofjNgkstCmIEmrJJqNkLrnkkgcnTJjw0IwZM/41XOc0tmuvvdb60UcfxcmxtFpdfXcnoZVWr0j+Xgu1JKA6cpPnSf0iCbtkmpiiKF1RUVGNJpPJLXW9tE2+j4iIqI+IiJi7ePFiy2k0/zt/6Zo1awydnZ1/czqdqdooJgmXJKSqr6+Xov5xPpIGKYo6Ykqmj8q56xs6Hdlo2Y8ElX0XAdBCLHld3+P0/fOpdl6aJ+fxm2aq51fO53nnnacsXbp05vXXX//+qe6b1yGAAAIIIIAAAp4gQIDlCWeBNiCAAAIIDHuB7du3Gzo6On7ocDhCJPzo6uqKCQoK+mFXV1djcHDw326//fZNg4Uwa9Ys97vvvnvcEUIDPZYEIiEhIepDQhH5sxSelzBLAhNt054nBbvluYOxSSgWGxvrNhqNt/7iF7943sfHxz0Y+9X2kZOTE2C1Wn/75ZdfrpJRUBI4aZsETBI8aitSan8vYZP2dwMdCXUqbdaCqP6+9nWXfctzpN6UFE0PCwtTAgICpGC6kpGRUZGYmPjMPffc88iptIHXIIAAAggggAACniRAgOVJZ4O2IIAAAgggMAgCc+fOdf/tb387rKD36e5WC1KOt58jw5bTPaYEZiaTSZk2bVrL9OnTN/3sZz+77XT32ff1zz77bMyOHTt25ebmpsjfH1lD6ljHGujzTrWtElDJlE0JAmUUlUzVlJpl2tf09HT177VNni+BYk9Pz4dut7tIAqzo6Ohio9H45xtuuKH4VNvB6xBAAAEEEEAAAU8SIMDypLNBWxBAAAEEEBgEgbvvvrtw586d6Var9dtpjH13q40ukjpcWnAj3/ed7jYIzRiUXUg4IyO+ZCrcddddd9nNN9/87qDsWFGUDRs2rNqyZcsjb7755uHFvE7zAFqgpE3p06b3SQDVd9qlBHQSUklY1XdUlTxHr9fbQ0JC7DKiSh4yokocwsLC3lm+fPny02wiL0cAAQQQQAABBIacAAHWkDtlNBgBBBBAAIHjCzz99NNJTqfzxy6X61mZrnhksXEJsGQlO614uEyFk1pPUpurv00rOK5NmdMKivc3he54/3aq501GF02dOlVqOV126623DlqA9fTTT+t37dq1bevWrT+Q6YInGlklQZSES31DqP76JO1NTEz8Npj6plC+WktMpvnJJvuSUVVdXV13BgcH7z+ynpivr2+Ty+Vqkn3JIzY2VhuNVTEYddJO9VzwOgQQQAABBBBA4GwJEGCdLXmOiwACCCCAwFkSePvtt3U2m+0Ku91ukBBKAq7e3t5URVEuPbJJEl5ZrVaftra2yU1NTeq8NakVJQXi5XFk6CNBkKzcJ6vtDdaWmZmpzJ49u+X8888fazabqwZrv7KfZ5555qLq6urHS0pKJnZ2dh5zJJYETjKCymQylSYkJFhl9NSxNgmjnE7nOpnmpz1PQiij0ajMnz9/3WC2n30hgAACCCCAAALeIkCA5S1nmn4igAACCCBwigJut9vnhRdemFFTUxOq0+lM/v7+lzY3N/vK6K4jR2HJVESXy5Xh6+s77RQPd9TLdDrde2lpaQ+sWLFi52Dts+9+pJh7e3v7xU6nU11m8VibFEo3Go37ly1bVnIm2sE+EUAAAQQQQAABBI4tQIDF1YEAAggggAACCCCAAAIIIIAAAggg4NECBFgefXpoHAIIIIAAAggggAACCCCAAAIIIIAAARbXAAIIIIAAAggggAACCCCAAAIIIICARwsQYHn06aFxCCCAAAIIIIAAAggggAACCCCAAAIEWFwDCCCAAAIIIIAAAggggAACCCCAAAIeLUCA5dGnh8YhgAACCCCAAAIIIIAAAggggAACCBBgcQ0ggAACCCCAAAIIIIAAAggggAACCHi0AAGWR58eGocAAggggAACCCCAAAIIIIAAAgggQIDFNYAAAggggAACCCCAAAIIIIAAAggg4NECBFgefXpoHAIIIIAAAggggAACCCCAAAIIIIAAARbXAAIIIIAAAggggAACCCCAAAIIIICARwsQYHn06aFxCCCAAAIIIIAAAggggAACCCCAAAIEWFwDCCCAAAIIIIAAAggggAACCCCAAAIeLUCA5dGnh8YhgAACCCCAAAIIIIAAAggggAACCBBgcQ0ggAACCCCAAAIIIIAAAggggAACCHi0AAGWR58eGocAAggggAACCCCAAAIIIIAAAgggQIDFNYAAAggggAACCCCAAAIIIIAAAggg4NECBFgefXpoHAIIIIAAAggggAACCCCAAAIIIIAAARbXAAIIIIAAAggggAACCCCAAAIIIICARwsQYHn06aFxCCCAAAIIIIAAAggggAACCCCAAAIEWFwDCCCAAAIIIIAAAggggAACCCCAAAIeLUCA5dGnh8YhgAACCCCAAAIIIIAAAggggAACCBBgcQ0ggAACCCCAAAIIIIAAAggggAACCHi0AAGWR58eGocAAggggAACCCCAAAIIIIAAAgggQIDFNYAAAggggAACCCCAAAIIIIAAAggg4NECBFgefXpoHAIIIIAAAggggAACCCCAAAIIIIAAARbXAAIIIIAAAggggAACCCCAAAIIIICARwsQYHn06aFxCCCAAAIIIIAAAggggAACCCCAAAIEWFwDCCCAAAIIIIAAAggggAACCCCAAAIeLUCA5dGnh8YhgAACCCCAAAIIIIAAAggggAACCBBgcQ0ggAACCCCAAAIIIIAAAggggAACCHi0AAGWR58eGocAAggggAACCCCAAAIIIIAAAgggQIDFNYAAAggggAACCCCAAAIIIIAAAggg4NECBFgefXpoHAIIIIAAAggggAACCCCAAAIIIIAAARbXAAIIIIAAAggggAACCCCAAAIIIICARwsQYHn06aFxCCCAAAIIIIAAAggggAACCCCAAAIEWFwDCCCAAAIIIIAAAggggAACCCCAAAIeLUCA5dGnh8YhgAACCCCAAAIIIIAAAggggAACCBBgcQ0ggAACCCCAAAIIIIAAAggggAACCHi0AAGWR58eGocAAggggAACCCCAAAIIIIAAAgggQIDFNYAAAggggAACCCCAAAIIIIAAAggg4NECBFgefXpoHAIIIIAAAggggAACCCCAAAIIIIAAARbXAAIIIIAAAggggAACCCCAAAIIIICARwsQYHn06aFxCCCAAAIIIIAAAggggAACCCCAAAIEWFwDCCCAAAIIIIAAAggggAACCCCAAAIeLUCA5dGnh8YhgAACCCCAAAIIIIAAAggggAACCBBgcQ0ggAACCCCAAAIIIIAAAggggAACCHi0AAGWR58eGocAAggggAACCCCAAAIIIIAAAgggQIDFNYAAAggggAACCCCAAAIIIIAAAggg4NECBFgefXpoHAIIIIAAAggggAACCCCAAAIIIIAAARbXAAIIIIAAAggggAACCCCAAAIIIICARwsQYHn06aFxCCCAAAIIIIAAAggggAACCCCAAAIEWFwDCCCAAAIIIIAAAggggAACCCCAAAIeLUCA5dGNx52GAAAAU0lEQVSnh8YhgAACCCCAAAIIIIAAAggggAACCBBgcQ0ggAACCCCAAAIIIIAAAggggAACCHi0AAGWR58eGocAAggggAACCCCAAAIIIIAAAggg8P8BQHiOY2qOeYEAAAAASUVORK5CYII=;" vertex="1" parent="1">
          <mxGeometry x="70" y="60" width="885" height="676.3" as="geometry" />
        </mxCell>
        <mxCell id="gYz3pa-wU1wfD8xuSLPR-7" value="Foreground" parent="0" />
        <mxCell id="gYz3pa-wU1wfD8xuSLPR-8" value="Enter Shipment" style="rounded=0;whiteSpace=wrap;html=1;" parent="gYz3pa-wU1wfD8xuSLPR-7" vertex="1">
          <mxGeometry x="790" y="55.25" width="120" height="60" as="geometry" />
        </mxCell>
        <mxCell id="gYz3pa-wU1wfD8xuSLPR-28" value="View/Track Shipment" style="rounded=0;whiteSpace=wrap;html=1;" parent="gYz3pa-wU1wfD8xuSLPR-7" vertex="1">
          <mxGeometry x="880" y="630" width="120" height="60" as="geometry" />
        </mxCell>
        <mxCell id="gYz3pa-wU1wfD8xuSLPR-29" value="Update/Receive Shipment" style="rounded=0;whiteSpace=wrap;html=1;" parent="gYz3pa-wU1wfD8xuSLPR-7" vertex="1">
          <mxGeometry x="190" y="770" width="120" height="60" as="geometry" />
        </mxCell>
        <mxCell id="gYz3pa-wU1wfD8xuSLPR-31" value="" style="shape=flexArrow;endArrow=classic;startArrow=classic;html=1;rounded=0;" parent="gYz3pa-wU1wfD8xuSLPR-7" edge="1">
          <mxGeometry width="100" height="100" relative="1" as="geometry">
            <mxPoint x="960" y="-50" as="sourcePoint" />
            <mxPoint x="1060" y="-50" as="targetPoint" />
          </mxGeometry>
        </mxCell>
        <mxCell id="gYz3pa-wU1wfD8xuSLPR-32" value="" style="shape=flexArrow;endArrow=classic;html=1;rounded=0;fillColor=default;" parent="gYz3pa-wU1wfD8xuSLPR-7" edge="1">
          <mxGeometry width="50" height="50" relative="1" as="geometry">
            <mxPoint x="550" y="230" as="sourcePoint" />
            <mxPoint x="500" y="350" as="targetPoint" />
          </mxGeometry>
        </mxCell>
        <mxCell id="gYz3pa-wU1wfD8xuSLPR-33" value="Enter Purchase" style="rounded=0;whiteSpace=wrap;html=1;" parent="gYz3pa-wU1wfD8xuSLPR-7" vertex="1">
          <mxGeometry x="30" y="40" width="80" height="60" as="geometry" />
        </mxCell>
        <mxCell id="gYz3pa-wU1wfD8xuSLPR-34" value="View Purchasing Agents" style="ellipse;whiteSpace=wrap;html=1;" parent="gYz3pa-wU1wfD8xuSLPR-7" vertex="1">
          <mxGeometry x="140" y="280" width="100" height="70" as="geometry" />
        </mxCell>
        <mxCell id="gYz3pa-wU1wfD8xuSLPR-35" value="View Stores" style="ellipse;whiteSpace=wrap;html=1;" parent="gYz3pa-wU1wfD8xuSLPR-7" vertex="1">
          <mxGeometry x="210" y="220" width="100" height="70" as="geometry" />
        </mxCell>
        <mxCell id="gYz3pa-wU1wfD8xuSLPR-40" value="View Items" style="ellipse;whiteSpace=wrap;html=1;" parent="gYz3pa-wU1wfD8xuSLPR-7" vertex="1">
          <mxGeometry x="278" y="158.75" width="100" height="70" as="geometry" />
        </mxCell>
        <mxCell id="gYz3pa-wU1wfD8xuSLPR-42" value="Create Purchase" style="ellipse;whiteSpace=wrap;html=1;" parent="gYz3pa-wU1wfD8xuSLPR-7" vertex="1">
          <mxGeometry x="378" y="131.25" width="100" height="70" as="geometry" />
        </mxCell>
        <mxCell id="gYz3pa-wU1wfD8xuSLPR-46" value="Create Shipment" style="ellipse;whiteSpace=wrap;html=1;" parent="gYz3pa-wU1wfD8xuSLPR-7" vertex="1">
          <mxGeometry x="530" y="150" width="100" height="70" as="geometry" />
        </mxCell>
        <mxCell id="gYz3pa-wU1wfD8xuSLPR-47" value="Updated Purchased Item" style="ellipse;whiteSpace=wrap;html=1;" parent="gYz3pa-wU1wfD8xuSLPR-7" vertex="1">
          <mxGeometry x="620" y="190" width="100" height="70" as="geometry" />
        </mxCell>
        <mxCell id="gYz3pa-wU1wfD8xuSLPR-48" value="View Purchased Items" style="ellipse;whiteSpace=wrap;html=1;" parent="gYz3pa-wU1wfD8xuSLPR-7" vertex="1">
          <mxGeometry x="680" y="252.5" width="100" height="70" as="geometry" />
        </mxCell>
        <mxCell id="gYz3pa-wU1wfD8xuSLPR-49" value="" style="shape=flexArrow;endArrow=classic;html=1;rounded=0;entryX=0.678;entryY=0.136;entryDx=0;entryDy=0;entryPerimeter=0;fillColor=default;" parent="gYz3pa-wU1wfD8xuSLPR-7" edge="1">
          <mxGeometry width="50" height="50" relative="1" as="geometry">
            <mxPoint x="760" y="100" as="sourcePoint" />
            <mxPoint x="620" y="160" as="targetPoint" />
          </mxGeometry>
        </mxCell>
        <mxCell id="gYz3pa-wU1wfD8xuSLPR-50" value="" style="shape=flexArrow;endArrow=classic;html=1;rounded=0;fillColor=default;exitX=0.862;exitY=0.091;exitDx=0;exitDy=0;exitPerimeter=0;" parent="gYz3pa-wU1wfD8xuSLPR-7" edge="1">
          <mxGeometry width="50" height="50" relative="1" as="geometry">
            <mxPoint x="780" y="130" as="sourcePoint" />
            <mxPoint x="710" y="190" as="targetPoint" />
          </mxGeometry>
        </mxCell>
        <mxCell id="gYz3pa-wU1wfD8xuSLPR-51" value="" style="shape=flexArrow;endArrow=classic;html=1;rounded=0;fillColor=default;" parent="gYz3pa-wU1wfD8xuSLPR-7" edge="1">
          <mxGeometry width="50" height="50" relative="1" as="geometry">
            <mxPoint x="760" y="251.25" as="sourcePoint" />
            <mxPoint x="810" y="140" as="targetPoint" />
          </mxGeometry>
        </mxCell>
        <mxCell id="3MaQ9lW96g9JMEUkwHcK-3" value="" style="shape=flexArrow;endArrow=classic;html=1;rounded=0;fillColor=default;" parent="gYz3pa-wU1wfD8xuSLPR-7" edge="1">
          <mxGeometry width="50" height="50" relative="1" as="geometry">
            <mxPoint x="440" y="210" as="sourcePoint" />
            <mxPoint x="470" y="350" as="targetPoint" />
          </mxGeometry>
        </mxCell>
        <mxCell id="3MaQ9lW96g9JMEUkwHcK-4" value="" style="shape=flexArrow;endArrow=classic;html=1;rounded=0;fillColor=default;" parent="gYz3pa-wU1wfD8xuSLPR-7" edge="1">
          <mxGeometry width="50" height="50" relative="1" as="geometry">
            <mxPoint x="440" y="360" as="sourcePoint" />
            <mxPoint x="360" y="230" as="targetPoint" />
          </mxGeometry>
        </mxCell>
        <mxCell id="3MaQ9lW96g9JMEUkwHcK-5" value="" style="shape=flexArrow;endArrow=classic;html=1;rounded=0;fillColor=default;" parent="gYz3pa-wU1wfD8xuSLPR-7" edge="1">
          <mxGeometry width="50" height="50" relative="1" as="geometry">
            <mxPoint x="420" y="380" as="sourcePoint" />
            <mxPoint x="310" y="270" as="targetPoint" />
          </mxGeometry>
        </mxCell>
        <mxCell id="3MaQ9lW96g9JMEUkwHcK-6" value="" style="shape=flexArrow;endArrow=classic;html=1;rounded=0;fillColor=default;entryX=1;entryY=0.714;entryDx=0;entryDy=0;entryPerimeter=0;" parent="gYz3pa-wU1wfD8xuSLPR-7" target="gYz3pa-wU1wfD8xuSLPR-34" edge="1">
          <mxGeometry width="50" height="50" relative="1" as="geometry">
            <mxPoint x="400" y="390" as="sourcePoint" />
            <mxPoint x="320" y="280" as="targetPoint" />
          </mxGeometry>
        </mxCell>
        <mxCell id="3MaQ9lW96g9JMEUkwHcK-7" value="" style="shape=flexArrow;endArrow=classic;html=1;rounded=0;fillColor=default;" parent="gYz3pa-wU1wfD8xuSLPR-7" edge="1">
          <mxGeometry width="50" height="50" relative="1" as="geometry">
            <mxPoint x="260" y="750" as="sourcePoint" />
            <mxPoint x="320" y="590" as="targetPoint" />
          </mxGeometry>
        </mxCell>
        <mxCell id="3MaQ9lW96g9JMEUkwHcK-9" value="" style="shape=flexArrow;endArrow=classic;html=1;rounded=0;fillColor=default;" parent="gYz3pa-wU1wfD8xuSLPR-7" edge="1">
          <mxGeometry width="50" height="50" relative="1" as="geometry">
            <mxPoint x="210" y="220" as="sourcePoint" />
            <mxPoint x="110" y="120" as="targetPoint" />
          </mxGeometry>
        </mxCell>
        <mxCell id="3MaQ9lW96g9JMEUkwHcK-10" value="" style="shape=flexArrow;endArrow=classic;html=1;rounded=0;fillColor=default;" parent="gYz3pa-wU1wfD8xuSLPR-7" edge="1">
          <mxGeometry width="50" height="50" relative="1" as="geometry">
            <mxPoint x="260" y="170" as="sourcePoint" />
            <mxPoint x="130" y="100" as="targetPoint" />
          </mxGeometry>
        </mxCell>
        <mxCell id="3MaQ9lW96g9JMEUkwHcK-11" value="" style="shape=flexArrow;endArrow=classic;html=1;rounded=0;fillColor=default;" parent="gYz3pa-wU1wfD8xuSLPR-7" edge="1">
          <mxGeometry width="50" height="50" relative="1" as="geometry">
            <mxPoint x="140" y="70" as="sourcePoint" />
            <mxPoint x="370" y="140" as="targetPoint" />
          </mxGeometry>
        </mxCell>
        <mxCell id="3MaQ9lW96g9JMEUkwHcK-12" value="" style="shape=flexArrow;endArrow=classic;html=1;rounded=0;fillColor=default;" parent="gYz3pa-wU1wfD8xuSLPR-7" edge="1">
          <mxGeometry width="50" height="50" relative="1" as="geometry">
            <mxPoint x="620" y="260" as="sourcePoint" />
            <mxPoint x="530" y="360" as="targetPoint" />
          </mxGeometry>
        </mxCell>
        <mxCell id="3MaQ9lW96g9JMEUkwHcK-13" value="" style="shape=flexArrow;endArrow=classic;html=1;rounded=0;fillColor=default;" parent="gYz3pa-wU1wfD8xuSLPR-7" edge="1">
          <mxGeometry width="50" height="50" relative="1" as="geometry">
            <mxPoint x="560" y="370" as="sourcePoint" />
            <mxPoint x="680" y="310" as="targetPoint" />
          </mxGeometry>
        </mxCell>
        <mxCell id="3MaQ9lW96g9JMEUkwHcK-14" value="View Shippers" style="ellipse;whiteSpace=wrap;html=1;" parent="gYz3pa-wU1wfD8xuSLPR-7" vertex="1">
          <mxGeometry x="710" y="425" width="100" height="70" as="geometry" />
        </mxCell>
        <mxCell id="3MaQ9lW96g9JMEUkwHcK-15" value="View Shipments" style="ellipse;whiteSpace=wrap;html=1;" parent="gYz3pa-wU1wfD8xuSLPR-7" vertex="1">
          <mxGeometry x="647" y="509" width="100" height="70" as="geometry" />
        </mxCell>
        <mxCell id="3MaQ9lW96g9JMEUkwHcK-19" value="" style="shape=flexArrow;endArrow=classic;html=1;rounded=0;fillColor=default;" parent="gYz3pa-wU1wfD8xuSLPR-7" edge="1">
          <mxGeometry width="50" height="50" relative="1" as="geometry">
            <mxPoint x="770" y="410" as="sourcePoint" />
            <mxPoint x="860" y="130" as="targetPoint" />
          </mxGeometry>
        </mxCell>
        <mxCell id="3MaQ9lW96g9JMEUkwHcK-17" value="" style="shape=flexArrow;endArrow=classic;html=1;rounded=0;fillColor=default;" parent="gYz3pa-wU1wfD8xuSLPR-7" edge="1">
          <mxGeometry width="50" height="50" relative="1" as="geometry">
            <mxPoint x="550" y="400" as="sourcePoint" />
            <mxPoint x="700" y="440" as="targetPoint" />
          </mxGeometry>
        </mxCell>
        <mxCell id="3MaQ9lW96g9JMEUkwHcK-18" value="" style="shape=flexArrow;endArrow=classic;html=1;rounded=0;fillColor=default;" parent="gYz3pa-wU1wfD8xuSLPR-7" edge="1">
          <mxGeometry width="50" height="50" relative="1" as="geometry">
            <mxPoint x="800" y="495" as="sourcePoint" />
            <mxPoint x="890" y="620" as="targetPoint" />
          </mxGeometry>
        </mxCell>
        <mxCell id="3MaQ9lW96g9JMEUkwHcK-16" value="" style="shape=flexArrow;endArrow=classic;html=1;rounded=0;fillColor=default;" parent="gYz3pa-wU1wfD8xuSLPR-7" edge="1">
          <mxGeometry width="50" height="50" relative="1" as="geometry">
            <mxPoint x="770" y="325" as="sourcePoint" />
            <mxPoint x="920" y="610" as="targetPoint" />
          </mxGeometry>
        </mxCell>
        <mxCell id="3MaQ9lW96g9JMEUkwHcK-20" value="" style="shape=flexArrow;endArrow=classic;html=1;rounded=0;fillColor=default;" parent="gYz3pa-wU1wfD8xuSLPR-7" edge="1">
          <mxGeometry width="50" height="50" relative="1" as="geometry">
            <mxPoint x="750" y="570" as="sourcePoint" />
            <mxPoint x="870" y="640" as="targetPoint" />
          </mxGeometry>
        </mxCell>
        <mxCell id="3MaQ9lW96g9JMEUkwHcK-21" value="" style="shape=flexArrow;endArrow=classic;html=1;rounded=0;fillColor=default;" parent="gYz3pa-wU1wfD8xuSLPR-7" edge="1">
          <mxGeometry width="50" height="50" relative="1" as="geometry">
            <mxPoint x="530" y="440" as="sourcePoint" />
            <mxPoint x="640" y="520" as="targetPoint" />
          </mxGeometry>
        </mxCell>
        <mxCell id="3MaQ9lW96g9JMEUkwHcK-22" value="Update&lt;br&gt;Shipment" style="ellipse;whiteSpace=wrap;html=1;" parent="gYz3pa-wU1wfD8xuSLPR-7" vertex="1">
          <mxGeometry x="500" y="540" width="100" height="70" as="geometry" />
        </mxCell>
        <mxCell id="3MaQ9lW96g9JMEUkwHcK-23" value="View Shipment Items" style="ellipse;whiteSpace=wrap;html=1;" parent="gYz3pa-wU1wfD8xuSLPR-7" vertex="1">
          <mxGeometry x="384" y="557" width="100" height="70" as="geometry" />
        </mxCell>
        <mxCell id="3MaQ9lW96g9JMEUkwHcK-24" value="Update Shipment Item" style="ellipse;whiteSpace=wrap;html=1;" parent="gYz3pa-wU1wfD8xuSLPR-7" vertex="1">
          <mxGeometry x="298" y="509" width="100" height="70" as="geometry" />
        </mxCell>
        <mxCell id="3MaQ9lW96g9JMEUkwHcK-25" value="View Receiving Clerks" style="ellipse;whiteSpace=wrap;html=1;" parent="gYz3pa-wU1wfD8xuSLPR-7" vertex="1">
          <mxGeometry x="230" y="450" width="100" height="70" as="geometry" />
        </mxCell>
        <mxCell id="3MaQ9lW96g9JMEUkwHcK-26" value="" style="shape=flexArrow;endArrow=classic;html=1;rounded=0;fillColor=default;" parent="gYz3pa-wU1wfD8xuSLPR-7" edge="1">
          <mxGeometry width="50" height="50" relative="1" as="geometry">
            <mxPoint x="410" y="420" as="sourcePoint" />
            <mxPoint x="340" y="460" as="targetPoint" />
          </mxGeometry>
        </mxCell>
        <mxCell id="3MaQ9lW96g9JMEUkwHcK-27" value="" style="shape=flexArrow;endArrow=classic;html=1;rounded=0;fillColor=default;" parent="gYz3pa-wU1wfD8xuSLPR-7" edge="1">
          <mxGeometry width="50" height="50" relative="1" as="geometry">
            <mxPoint x="270" y="530" as="sourcePoint" />
            <mxPoint x="220" y="750" as="targetPoint" />
          </mxGeometry>
        </mxCell>
        <mxCell id="3MaQ9lW96g9JMEUkwHcK-28" value="" style="shape=flexArrow;endArrow=classic;html=1;rounded=0;fillColor=default;" parent="gYz3pa-wU1wfD8xuSLPR-7" edge="1">
          <mxGeometry width="50" height="50" relative="1" as="geometry">
            <mxPoint x="160" y="280" as="sourcePoint" />
            <mxPoint x="90" y="140" as="targetPoint" />
          </mxGeometry>
        </mxCell>
        <mxCell id="3MaQ9lW96g9JMEUkwHcK-29" value="" style="shape=flexArrow;endArrow=classic;html=1;rounded=0;fillColor=default;" parent="gYz3pa-wU1wfD8xuSLPR-7" edge="1">
          <mxGeometry width="50" height="50" relative="1" as="geometry">
            <mxPoint x="390" y="510" as="sourcePoint" />
            <mxPoint x="430" y="440" as="targetPoint" />
          </mxGeometry>
        </mxCell>
        <mxCell id="3MaQ9lW96g9JMEUkwHcK-30" value="" style="shape=flexArrow;endArrow=classic;html=1;rounded=0;fillColor=default;" parent="gYz3pa-wU1wfD8xuSLPR-7" edge="1">
          <mxGeometry width="50" height="50" relative="1" as="geometry">
            <mxPoint x="468" y="453" as="sourcePoint" />
            <mxPoint x="450" y="540" as="targetPoint" />
          </mxGeometry>
        </mxCell>
        <mxCell id="3MaQ9lW96g9JMEUkwHcK-31" value="" style="shape=flexArrow;endArrow=classic;html=1;rounded=0;fillColor=default;" parent="gYz3pa-wU1wfD8xuSLPR-7" edge="1">
          <mxGeometry width="50" height="50" relative="1" as="geometry">
            <mxPoint x="400" y="640" as="sourcePoint" />
            <mxPoint x="300" y="760" as="targetPoint" />
          </mxGeometry>
        </mxCell>
        <mxCell id="3MaQ9lW96g9JMEUkwHcK-32" value="" style="shape=flexArrow;endArrow=classic;html=1;rounded=0;fillColor=default;" parent="gYz3pa-wU1wfD8xuSLPR-7" edge="1">
          <mxGeometry width="50" height="50" relative="1" as="geometry">
            <mxPoint x="320" y="780" as="sourcePoint" />
            <mxPoint x="517" y="609" as="targetPoint" />
          </mxGeometry>
        </mxCell>
        <mxCell id="3MaQ9lW96g9JMEUkwHcK-33" value="" style="shape=flexArrow;endArrow=classic;html=1;rounded=0;fillColor=default;" parent="gYz3pa-wU1wfD8xuSLPR-7" edge="1">
          <mxGeometry width="50" height="50" relative="1" as="geometry">
            <mxPoint x="650" y="580" as="sourcePoint" />
            <mxPoint x="330" y="810" as="targetPoint" />
          </mxGeometry>
        </mxCell>
        <mxCell id="3MaQ9lW96g9JMEUkwHcK-34" value="" style="shape=flexArrow;endArrow=classic;html=1;rounded=0;fillColor=default;" parent="gYz3pa-wU1wfD8xuSLPR-7" edge="1">
          <mxGeometry width="50" height="50" relative="1" as="geometry">
            <mxPoint x="540" y="530" as="sourcePoint" />
            <mxPoint x="500" y="450" as="targetPoint" />
          </mxGeometry>
        </mxCell>
        <mxCell id="RcK39BWxrftsBp0lfVGT-1" value="Assumptions:&#xa;1. Employees are entered and assigned roles in a separate process (that verifies details)&#xa;2. Stores are entered in a separate process (that verifies details)&#xa;3. Items are entered in a separate process (that verifies details)  &#xa;4. Shippers are entered in a separate process (that verifies details)&#xa;" style="swimlane;startSize=0;align=left;verticalAlign=top;whiteSpace=wrap;" parent="gYz3pa-wU1wfD8xuSLPR-7" vertex="1">
          <mxGeometry x="560" y="740" width="529" height="100" as="geometry" />
        </mxCell>
      </root>
    </mxGraphModel>
  </diagram>
</mxfile>
